SplineFontDB: 3.0
FontName: Githash
FullName: Githash
FamilyName: Githash
Weight: Square
Copyright: Remix of Limousine, done by OSP, 2012.\n\nRemix of FreeSans, done by OSP, 2009.\n\nFrom FreeSans font:\nCopyleft 2002, 2003, 2005, 2008 Free Software Foundation.
Version: $Revision: 1.136 $
ItalicAngle: 0
UnderlinePosition: -205.824
UnderlineWidth: 51.2
Ascent: 819
Descent: 205
sfntRevision: 0x000122d0
LayerCount: 2
Layer: 0 1 "Arri+AOgA-re"  1
Layer: 1 1 "Avant"  0
NeedsXUIDChange: 1
XUID: [1021 530 2138313645 13194354]
FSType: 0
OS2Version: 1
OS2_WeightWidthSlopeOnly: 0
OS2_UseTypoMetrics: 1
CreationTime: 1203284335
ModificationTime: 1341167456
PfmFamily: 17
TTFWeight: 400
TTFWidth: 5
LineGap: 92
VLineGap: 0
Panose: 2 11 5 4 2 2 2 2 2 4
OS2TypoAscent: 0
OS2TypoAOffset: 1
OS2TypoDescent: 0
OS2TypoDOffset: 1
OS2TypoLinegap: 0
OS2WinAscent: -247
OS2WinAOffset: 1
OS2WinDescent: -166
OS2WinDOffset: 1
HheadAscent: -247
HheadAOffset: 1
HheadDescent: 166
HheadDOffset: 1
OS2SubXSize: 666
OS2SubYSize: 716
OS2SubXOff: 48
OS2SubYOff: 143
OS2SupXSize: 666
OS2SupYSize: 716
OS2SupXOff: -167
OS2SupYOff: 490
OS2StrikeYSize: 50
OS2StrikeYPos: 264
OS2Vendor: 'GNU '
OS2CodePages: 600200bf.dff70000
OS2UnicodeRanges: e45f8eff.5007f9fb.000000a0.00000000
Lookup: 4 0 1 "'liga' Ligatures standard dans Latin lookup 0"  {"sous-table 'liga' Ligatures standard dans Latin lookup 0"  } ['liga' ('latn' <'dflt' > ) ]
Lookup: 1 0 0 "'init' Formes initiales (ARA) lookups1"  {"sous-table 'init' Formes initiales (ARA) lookups1"  } ['init' ('beng' <'dflt' > 'bng2' <'dflt' > ) ]
Lookup: 4 0 0 "'nukt' Nukta (IND) lookups2"  {"sous-table 'nukt' Nukta (IND) lookups2"  } ['nukt' ('gjr2' <'dflt' > 'gujr' <'dflt' > ) ]
Lookup: 4 0 0 "'nukt' Nukta (IND) lookups3"  {"sous-table 'nukt' Nukta (IND) lookups3"  } ['nukt' ('dev2' <'dflt' > 'deva' <'dflt' > ) ]
Lookup: 4 0 0 "'nukt' Nukta (IND) lookups4"  {"sous-table 'nukt' Nukta (IND) lookups4"  } ['nukt' ('gur2' <'dflt' > 'guru' <'dflt' > ) ]

StartChar: .notdef
Encoding: 65536 -1 0
Width: 512
GlyphClass: 2
Flags: HW
LayerCount: 2
Fore
SplineSet
479 1000 m 1,0,-1
 479 0 l 1,1,-1
 69 0 l 1,2,-1
 69 1000 l 1,3,-1
 479 1000 l 1,0,-1
411 932 m 1,4,-1
 137 932 l 1,5,-1
 137 69 l 1,6,-1
 411 69 l 1,7,-1
 411 932 l 1,4,-1
EndSplineSet
EndChar

StartChar: zero
Encoding: 48 48 4
Width: 75
GlyphClass: 2
Flags: HW
LayerCount: 2
Fore
SplineSet
76 412 m 1,0,-1
 76 335 l 1,1,-1
 0 335 l 1,2,-1
 0 412 l 1,3,-1
 76 412 l 1,0,-1
EndSplineSet
EndChar

StartChar: one
Encoding: 49 49 5
Width: 90
GlyphClass: 2
Flags: HW
LayerCount: 2
Fore
SplineSet
90 420 m 1,0,-1
 90 328 l 1,1,-1
 0 328 l 1,2,-1
 0 420 l 1,3,-1
 90 420 l 1,0,-1
EndSplineSet
EndChar

StartChar: two
Encoding: 50 50 6
Width: 108
GlyphClass: 2
Flags: HW
LayerCount: 2
Fore
SplineSet
109 429 m 1,0,-1
 109 318 l 1,1,-1
 0 318 l 1,2,-1
 0 429 l 1,3,-1
 109 429 l 1,0,-1
EndSplineSet
EndChar

StartChar: three
Encoding: 51 51 7
Width: 131
GlyphClass: 2
Flags: HW
LayerCount: 2
Fore
SplineSet
131 440 m 1,0,-1
 131 307 l 1,1,-1
 0 307 l 1,2,-1
 0 440 l 1,3,-1
 131 440 l 1,0,-1
EndSplineSet
EndChar

StartChar: four
Encoding: 52 52 8
Width: 157
GlyphClass: 2
Flags: HW
LayerCount: 2
Fore
SplineSet
158 454 m 1,0,-1
 158 294 l 1,1,-1
 0 294 l 1,2,-1
 0 454 l 1,3,-1
 158 454 l 1,0,-1
EndSplineSet
EndChar

StartChar: five
Encoding: 53 53 9
Width: 188
GlyphClass: 2
Flags: HW
LayerCount: 2
Fore
SplineSet
188 470 m 1,0,-1
 188 278 l 1,1,-1
 0 278 l 1,2,-1
 0 470 l 1,3,-1
 188 470 l 1,0,-1
EndSplineSet
EndChar

StartChar: six
Encoding: 54 54 10
Width: 227
GlyphClass: 2
Flags: HW
LayerCount: 2
Fore
SplineSet
227 488 m 1,0,-1
 227 259 l 1,1,-1
 0 259 l 1,2,-1
 0 488 l 1,3,-1
 227 488 l 1,0,-1
EndSplineSet
EndChar

StartChar: seven
Encoding: 55 55 11
Width: 272
GlyphClass: 2
Flags: HW
LayerCount: 2
Fore
SplineSet
272 511 m 1,0,-1
 272 237 l 1,1,-1
 0 237 l 1,2,-1
 0 511 l 1,3,-1
 272 511 l 1,0,-1
EndSplineSet
EndChar

StartChar: eight
Encoding: 56 56 12
Width: 327
GlyphClass: 2
Flags: HW
LayerCount: 2
Fore
SplineSet
328 539 m 1,0,-1
 328 209 l 1,1,-1
 0 209 l 1,2,-1
 0 539 l 1,3,-1
 328 539 l 1,0,-1
EndSplineSet
EndChar

StartChar: nine
Encoding: 57 57 13
Width: 391
GlyphClass: 2
Flags: HW
LayerCount: 2
Fore
SplineSet
391 572 m 1,0,-1
 391 175 l 1,1,-1
 0 175 l 1,2,-1
 0 572 l 1,3,-1
 391 572 l 1,0,-1
EndSplineSet
EndChar

StartChar: A
Encoding: 65 65 14
Width: 471
GlyphClass: 2
Flags: HW
LayerCount: 2
Fore
SplineSet
471 612 m 1,0,-1
 471 135 l 1,1,-1
 0 135 l 1,2,-1
 0 612 l 1,3,-1
 471 612 l 1,0,-1
EndSplineSet
EndChar

StartChar: B
Encoding: 66 66 15
Width: 565
GlyphClass: 2
Flags: HW
LayerCount: 2
Fore
SplineSet
565 660 m 1,0,-1
 565 87 l 1,1,-1
 0 87 l 1,2,-1
 0 660 l 1,3,-1
 565 660 l 1,0,-1
EndSplineSet
EndChar

StartChar: C
Encoding: 67 67 16
Width: 677
GlyphClass: 2
Flags: HW
LayerCount: 2
Fore
SplineSet
678 717 m 1,0,-1
 678 31 l 1,1,-1
 0 31 l 1,2,-1
 0 717 l 1,3,-1
 678 717 l 1,0,-1
EndSplineSet
EndChar

StartChar: D
Encoding: 68 68 17
Width: 813
GlyphClass: 2
Flags: HW
LayerCount: 2
Fore
SplineSet
813 786 m 1,0,-1
 813 -39 l 1,1,-1
 0 -39 l 1,2,-1
 0 786 l 1,3,-1
 813 786 l 1,0,-1
EndSplineSet
EndChar

StartChar: E
Encoding: 69 69 18
Width: 974
GlyphClass: 2
Flags: HW
LayerCount: 2
Fore
SplineSet
975 868 m 1,0,-1
 975 -121 l 1,1,-1
 0 -121 l 1,2,-1
 0 868 l 1,3,-1
 975 868 l 1,0,-1
EndSplineSet
EndChar

StartChar: F
Encoding: 70 70 19
Width: 1171
GlyphClass: 2
Flags: HW
LayerCount: 2
Fore
SplineSet
1171 968 m 1,0,-1
 1171 -220 l 1,1,-1
 0 -220 l 1,2,-1
 0 968 l 1,3,-1
 1171 968 l 1,0,-1
EndSplineSet
EndChar

StartChar: a
Encoding: 97 97 20
Width: 471
GlyphClass: 2
Flags: HW
LayerCount: 2
Fore
SplineSet
471 612 m 1,0,-1
 471 135 l 1,1,-1
 0 135 l 1,2,-1
 0 612 l 1,3,-1
 471 612 l 1,0,-1
EndSplineSet
EndChar

StartChar: b
Encoding: 98 98 21
Width: 565
GlyphClass: 2
Flags: HW
LayerCount: 2
Fore
SplineSet
565 660 m 1,0,-1
 565 87 l 1,1,-1
 0 87 l 1,2,-1
 0 660 l 1,3,-1
 565 660 l 1,0,-1
EndSplineSet
EndChar

StartChar: c
Encoding: 99 99 22
Width: 677
GlyphClass: 2
Flags: HW
LayerCount: 2
Fore
SplineSet
678 717 m 1,0,-1
 678 31 l 1,1,-1
 0 31 l 1,2,-1
 0 717 l 1,3,-1
 678 717 l 1,0,-1
EndSplineSet
EndChar

StartChar: d
Encoding: 100 100 23
Width: 813
GlyphClass: 2
Flags: HW
LayerCount: 2
Fore
SplineSet
813 786 m 1,0,-1
 813 -39 l 1,1,-1
 0 -39 l 1,2,-1
 0 786 l 1,3,-1
 813 786 l 1,0,-1
EndSplineSet
EndChar

StartChar: e
Encoding: 101 101 24
Width: 974
GlyphClass: 2
Flags: HW
LayerCount: 2
Fore
SplineSet
975 868 m 1,0,-1
 975 -121 l 1,1,-1
 0 -121 l 1,2,-1
 0 868 l 1,3,-1
 975 868 l 1,0,-1
EndSplineSet
EndChar

StartChar: f
Encoding: 102 102 25
Width: 1171
GlyphClass: 2
Flags: HW
LayerCount: 2
Fore
SplineSet
1171 968 m 1,0,-1
 1171 -220 l 1,1,-1
 0 -220 l 1,2,-1
 0 968 l 1,3,-1
 1171 968 l 1,0,-1
EndSplineSet
EndChar

StartChar: uni0368
Encoding: 872 872 28
Width: 0
GlyphClass: 4
Flags: HW
LayerCount: 2
Fore
SplineSet
-169 729 m 1,0,-1
 -201 729 l 1,1,2
 -207 774 -207 774 -250 774 c 0,3,4
 -277 774 -277 774 -291.5 752 c 128,-1,5
 -306 730 -306 730 -306 692 c 0,6,7
 -306 656 -306 656 -290.5 635 c 128,-1,8
 -275 614 -275 614 -249 614 c 0,9,10
 -207 614 -207 614 -199 664 c 1,11,-1
 -166 664 l 1,12,13
 -169 627 -169 627 -191 606 c 128,-1,14
 -213 585 -213 585 -250 585 c 0,15,16
 -291 585 -291 585 -315.5 614 c 128,-1,17
 -340 643 -340 643 -340 692 c 0,18,19
 -340 743 -340 743 -315 773.5 c 128,-1,20
 -290 804 -290 804 -249 804 c 0,21,22
 -214 804 -214 804 -192.5 784.5 c 128,-1,23
 -171 765 -171 765 -169 729 c 1,0,-1
EndSplineSet
EndChar

StartChar: uni0369
Encoding: 873 873 29
Width: 0
GlyphClass: 4
Flags: HW
LayerCount: 2
Fore
SplineSet
-174 877 m 1,0,-1
 -174 593 l 1,1,-1
 -204 593 l 1,2,-1
 -204 620 l 1,3,4
 -229 584 -229 584 -268 584 c 0,5,6
 -309 584 -309 584 -333 613.5 c 128,-1,7
 -357 643 -357 643 -357 695 c 0,8,9
 -357 743 -357 743 -333 773 c 128,-1,10
 -309 803 -309 803 -269 803 c 0,11,12
 -227 803 -227 803 -207 771 c 1,13,-1
 -207 877 l 1,14,-1
 -174 877 l 1,0,-1
-264 772 m 256,15,16
 -291 772 -291 772 -307.5 750.5 c 128,-1,17
 -324 729 -324 729 -324 693 c 128,-1,18
 -324 657 -324 657 -307.5 635.5 c 128,-1,19
 -291 614 -291 614 -263 614 c 0,20,21
 -237 614 -237 614 -222 635.5 c 128,-1,22
 -207 657 -207 657 -207 692 c 0,23,24
 -207 729 -207 729 -222 750.5 c 128,-1,25
 -237 772 -237 772 -264 772 c 256,15,16
EndSplineSet
EndChar

StartChar: uni036A
Encoding: 874 874 30
Width: 0
GlyphClass: 4
Flags: HW
LayerCount: 2
Fore
SplineSet
-205 725 m 2,0,1
 -205 747 -205 747 -218 756 c 128,-1,2
 -231 765 -231 765 -248 765 c 0,3,4
 -273 765 -273 765 -288 746 c 128,-1,5
 -303 727 -303 727 -303 696 c 2,6,-1
 -303 584 l 1,7,-1
 -335 584 l 1,8,-1
 -335 867 l 1,9,-1
 -303 867 l 1,10,-1
 -303 760 l 1,11,12
 -276 794 -276 794 -238 794 c 0,13,14
 -208 794 -208 794 -190.5 779 c 128,-1,15
 -173 764 -173 764 -173 737 c 2,16,-1
 -173 584 l 1,17,-1
 -205 584 l 1,18,-1
 -205 725 l 2,0,1
EndSplineSet
EndChar

StartChar: uni036B
Encoding: 875 875 31
Width: 0
GlyphClass: 4
Flags: HW
LayerCount: 2
Fore
SplineSet
-412 790 m 1,0,-1
 -382 790 l 1,1,-1
 -382 761 l 1,2,3
 -357 796 -357 796 -319 796 c 256,4,5
 -281 796 -281 796 -264 765 c 1,6,7
 -238 796 -238 796 -202 796 c 0,8,9
 -173 796 -173 796 -158 781 c 128,-1,10
 -143 766 -143 766 -143 738 c 2,11,-1
 -143 586 l 1,12,-1
 -175 586 l 1,13,-1
 -175 726 l 2,14,15
 -175 745 -175 745 -185.5 756 c 128,-1,16
 -196 767 -196 767 -213 767 c 0,17,18
 -233 767 -233 767 -247 751.5 c 128,-1,19
 -261 736 -261 736 -261 714 c 2,20,-1
 -261 586 l 1,21,-1
 -294 586 l 1,22,-1
 -294 726 l 2,23,24
 -294 767 -294 767 -332 767 c 0,25,26
 -351 767 -351 767 -365.5 751.5 c 128,-1,27
 -380 736 -380 736 -380 714 c 2,28,-1
 -380 586 l 1,29,-1
 -412 586 l 1,30,-1
 -412 790 l 1,0,-1
EndSplineSet
EndChar

StartChar: uni036C
Encoding: 876 876 32
Width: 0
GlyphClass: 4
Flags: HW
LayerCount: 2
Fore
SplineSet
-196 761 m 1,0,1
 -229 761 -229 761 -245 746.5 c 128,-1,2
 -261 732 -261 732 -261 691 c 2,3,-1
 -261 586 l 1,4,-1
 -294 586 l 1,5,-1
 -294 790 l 1,6,-1
 -264 790 l 1,7,-1
 -264 753 l 1,8,9
 -237 796 -237 796 -208 796 c 0,10,11
 -204 796 -204 796 -196 795 c 1,12,-1
 -196 761 l 1,0,1
EndSplineSet
EndChar

StartChar: uni036D
Encoding: 877 877 33
Width: 0
GlyphClass: 4
Flags: HW
LayerCount: 2
Fore
SplineSet
-221 797 m 1,0,-1
 -221 770 l 1,1,-1
 -255 770 l 1,2,-1
 -255 631 l 2,3,4
 -255 620 -255 620 -251.5 616 c 128,-1,5
 -248 612 -248 612 -238 612 c 256,6,7
 -228 612 -228 612 -221 613 c 1,8,-1
 -221 587 l 1,9,10
 -236 584 -236 584 -248 584 c 0,11,12
 -288 584 -288 584 -288 616 c 2,13,-1
 -288 770 l 1,14,-1
 -315 770 l 1,15,-1
 -315 797 l 1,16,-1
 -288 797 l 1,17,-1
 -288 853 l 1,18,-1
 -255 853 l 1,19,-1
 -255 797 l 1,20,-1
 -221 797 l 1,0,-1
EndSplineSet
EndChar

StartChar: uni036E
Encoding: 878 878 34
Width: 0
GlyphClass: 4
Flags: HW
LayerCount: 2
Fore
SplineSet
-266 584 m 1,0,-1
 -302 584 l 1,1,-1
 -373 788 l 1,2,-1
 -337 788 l 1,3,-1
 -283 623 l 1,4,-1
 -224 788 l 1,5,-1
 -188 788 l 1,6,-1
 -266 584 l 1,0,-1
EndSplineSet
EndChar

StartChar: uni036F
Encoding: 879 879 35
Width: 0
GlyphClass: 4
Flags: HW
LayerCount: 2
Fore
SplineSet
-256 689 m 1,0,-1
 -185 584 l 1,1,-1
 -223 584 l 1,2,-1
 -274 663 l 1,3,-1
 -327 584 l 1,4,-1
 -364 584 l 1,5,-1
 -291 688 l 1,6,-1
 -359 788 l 1,7,-1
 -323 788 l 1,8,-1
 -273 714 l 1,9,-1
 -224 788 l 1,10,-1
 -187 788 l 1,11,-1
 -256 689 l 1,0,-1
EndSplineSet
EndChar

StartChar: uni0374
Encoding: 884 884 36
Width: 203
GlyphClass: 2
Flags: HW
LayerCount: 2
Fore
SplineSet
160 733 m 1,0,-1
 51 594 l 1,1,-1
 40 659 l 1,2,-1
 108 799 l 1,3,-1
 160 733 l 1,0,-1
EndSplineSet
EndChar

StartChar: uni0375
Encoding: 885 885 37
Width: 203
GlyphClass: 2
Flags: HW
LayerCount: 2
Fore
SplineSet
23 -133 m 1,0,-1
 131 6 l 1,1,-1
 142 -59 l 1,2,-1
 75 -199 l 1,3,-1
 23 -133 l 1,0,-1
EndSplineSet
EndChar

StartChar: uni037A
Encoding: 890 890 38
Width: 339
GlyphClass: 2
Flags: HW
LayerCount: 2
Fore
SplineSet
237 -221 m 0,0,1
 256 -221 256 -221 259.5 -216 c 128,-1,2
 263 -211 263 -211 266 -197 c 1,3,-1
 292 -197 l 1,4,5
 292 -240 292 -240 275 -249.5 c 128,-1,6
 258 -259 258 -259 208 -259 c 0,7,8
 132 -259 132 -259 132 -178 c 2,9,-1
 132 -77 l 1,10,-1
 210 -77 l 1,11,-1
 210 -96 l 1,12,-1
 210 -147 l 2,13,14
 210 -188 210 -188 215.5 -204.5 c 128,-1,15
 221 -221 221 -221 237 -221 c 0,0,1
EndSplineSet
EndChar

StartChar: anoteleia
Encoding: 903 903 43
Width: 284
GlyphClass: 2
Flags: HW
LayerCount: 2
Fore
SplineSet
141.5 310 m 128,-1,1
 162 310 162 310 176.5 295 c 128,-1,2
 191 280 191 280 191 258 c 0,3,4
 191 235 191 235 176.5 220 c 128,-1,5
 162 205 162 205 141.5 205 c 128,-1,6
 121 205 121 205 106 220.5 c 128,-1,7
 91 236 91 236 91 258 c 0,8,9
 91 280 91 280 106 295 c 128,-1,0
 121 310 121 310 141.5 310 c 128,-1,1
EndSplineSet
EndChar

StartChar: Gamma
Encoding: 915 915 53
Width: 595
GlyphClass: 2
Flags: HW
LayerCount: 2
Fore
SplineSet
580 660 m 1,0,-1
 182 660 l 1,1,-1
 182 0 l 1,2,-1
 84 0 l 1,3,-1
 84 746 l 1,4,-1
 580 746 l 1,5,-1
 580 660 l 1,0,-1
EndSplineSet
EndChar

StartChar: uni0394
Encoding: 916 916 54
Width: 796
GlyphClass: 2
Flags: HW
LayerCount: 2
Fore
SplineSet
740 0 m 1,0,-1
 54 0 l 1,1,-1
 325 746 l 1,2,-1
 443 746 l 1,3,-1
 740 0 l 1,0,-1
191 86 m 1,4,-1
 599 86 l 1,5,6
 386 671 l 1,7,-1
 191 86 l 1,4,-1
EndSplineSet
EndChar

StartChar: Theta
Encoding: 920 920 58
Width: 796
GlyphClass: 2
Flags: HW
LayerCount: 2
Fore
SplineSet
566 328 m 1,0,-1
 222 328 l 1,1,-1
 222 412 l 1,2,-1
 566 412 l 1,3,-1
 566 328 l 1,0,-1
760 361 m 0,4,5
 760 195 760 195 661.5 85.5 c 128,-1,6
 563 -24 563 -24 399 -24 c 0,7,8
 237 -24 237 -24 138 84.5 c 128,-1,9
 39 193 39 193 39 368 c 128,-1,10
 39 543 39 543 138.5 651 c 128,-1,11
 238 759 238 759 398 759 c 0,12,13
 562 759 562 759 661 650 c 128,-1,14
 760 541 760 541 760 361 c 0,4,5
398 675 m 0,15,16
 279 675 279 675 206.5 590.5 c 128,-1,17
 134 506 134 506 134 367.5 c 128,-1,18
 134 229 134 229 207.5 144.5 c 128,-1,19
 281 60 281 60 399.5 60 c 128,-1,20
 518 60 518 60 591.5 144 c 128,-1,21
 665 228 665 228 665 364 c 0,22,23
 665 505 665 505 592 590 c 128,-1,24
 519 675 519 675 398 675 c 0,15,16
EndSplineSet
EndChar

StartChar: Lambda
Encoding: 923 923 61
Width: 683
GlyphClass: 2
Flags: HW
LayerCount: 2
Fore
SplineSet
119 0 m 1,0,-1
 17 0 l 1,1,-1
 284 746 l 1,2,-1
 407 746 l 1,3,-1
 669 0 l 1,4,-1
 562 0 l 1,5,-1
 344 644 l 1,6,-1
 119 0 l 1,0,-1
EndSplineSet
EndChar

StartChar: Xi
Encoding: 926 926 64
Width: 645
GlyphClass: 2
Flags: HW
LayerCount: 2
Fore
SplineSet
609 662 m 1,0,-1
 67 662 l 1,1,-1
 67 746 l 1,2,-1
 609 746 l 1,3,-1
 609 662 l 1,0,-1
551 340 m 1,4,-1
 132 340 l 1,5,-1
 132 425 l 1,6,-1
 551 425 l 1,7,-1
 551 340 l 1,4,-1
626 0 m 1,8,-1
 67 0 l 1,9,-1
 67 85 l 1,10,-1
 626 85 l 1,11,-1
 626 0 l 1,8,-1
EndSplineSet
EndChar

StartChar: Pi
Encoding: 928 928 66
Width: 739
GlyphClass: 2
Flags: HW
LayerCount: 2
Fore
SplineSet
655 0 m 1,0,-1
 559 0 l 1,1,-1
 559 663 l 1,2,-1
 178 663 l 1,3,-1
 178 0 l 1,4,-1
 82 0 l 1,5,-1
 82 746 l 1,6,-1
 655 746 l 1,7,-1
 655 0 l 1,0,-1
EndSplineSet
EndChar

StartChar: Sigma
Encoding: 931 931 68
Width: 643
GlyphClass: 2
Flags: HW
LayerCount: 2
Fore
SplineSet
621 0 m 1,0,-1
 41 0 l 1,1,-1
 41 87 l 1,2,-1
 283 385 l 1,3,-1
 76 663 l 1,4,-1
 76 746 l 1,5,-1
 600 746 l 1,6,-1
 600 663 l 1,7,-1
 195 663 l 1,8,9
 195 661 195 661 276.5 547.5 c 128,-1,10
 358 434 358 434 401 385 c 1,11,-1
 154 83 l 1,12,-1
 621 83 l 1,13,-1
 621 0 l 1,0,-1
EndSplineSet
EndChar

StartChar: Phi
Encoding: 934 934 71
Width: 734
GlyphClass: 2
Flags: HW
LayerCount: 2
Fore
SplineSet
325 97 m 1,0,1
 199 97 199 97 114.5 173.5 c 128,-1,2
 30 250 30 250 30 378 c 0,3,4
 30 502 30 502 114.5 583 c 128,-1,5
 199 664 199 664 326 664 c 1,6,-1
 326 746 l 1,7,-1
 409 746 l 1,8,-1
 409 664 l 1,9,10
 537 664 537 664 621 582.5 c 128,-1,11
 705 501 705 501 705 378 c 0,12,13
 705 251 705 251 620.5 174 c 128,-1,14
 536 97 536 97 410 97 c 1,15,-1
 410 0 l 1,16,-1
 325 0 l 1,17,-1
 325 97 l 1,0,1
611 383 m 0,18,19
 611 471 611 471 554.5 526 c 128,-1,20
 498 581 498 581 410 590 c 1,21,-1
 410 167 l 1,22,23
 499 176 499 176 555 234.5 c 128,-1,24
 611 293 611 293 611 383 c 0,18,19
325 167 m 1,25,-1
 325 590 l 1,26,27
 237 581 237 581 180 525.5 c 128,-1,28
 123 470 123 470 123 383 c 0,29,30
 123 292 123 292 179.5 234 c 128,-1,31
 236 176 236 176 325 167 c 1,25,-1
EndSplineSet
EndChar

StartChar: Psi
Encoding: 936 936 73
Width: 762
GlyphClass: 2
Flags: HW
LayerCount: 2
Fore
SplineSet
465 175 m 2,0,-1
 430 175 l 1,1,-1
 430 0 l 1,2,-1
 334 0 l 1,3,-1
 334 175 l 1,4,-1
 299 175 l 2,5,6
 174 175 174 175 113.5 230.5 c 128,-1,7
 53 286 53 286 53 385 c 2,8,-1
 53 746 l 1,9,-1
 145 726 l 1,10,-1
 145 408 l 2,11,12
 145 325 145 325 183.5 291.5 c 128,-1,13
 222 258 222 258 311 258 c 2,14,-1
 338 258 l 1,15,-1
 338 726 l 1,16,-1
 426 726 l 1,17,-1
 426 258 l 1,18,-1
 453 258 l 2,19,20
 542 258 542 258 580 291.5 c 128,-1,21
 618 325 618 325 618 408 c 2,22,-1
 618 726 l 1,23,-1
 711 746 l 1,24,-1
 711 385 l 2,25,26
 711 275 711 275 644.5 225 c 128,-1,27
 578 175 578 175 465 175 c 2,0,-1
EndSplineSet
EndChar

StartChar: uni03A9
Encoding: 937 937 74
Width: 796
GlyphClass: 2
Flags: HW
LayerCount: 2
Fore
SplineSet
454 78 m 1,0,1
 477 87 477 87 507 111 c 128,-1,2
 537 135 537 135 571.5 174.5 c 128,-1,3
 606 214 606 214 629.5 275 c 128,-1,4
 653 336 653 336 653 402 c 0,5,6
 653 518 653 518 580.5 597 c 128,-1,7
 508 676 508 676 392 676 c 0,8,9
 280 676 280 676 211 594 c 128,-1,10
 142 512 142 512 142 399 c 0,11,12
 142 298 142 298 196 206 c 128,-1,13
 250 114 250 114 329 78 c 1,14,-1
 329 0 l 1,15,-1
 58 0 l 1,16,-1
 58 74 l 1,17,-1
 226 74 l 1,18,19
 145 121 145 121 99 209 c 128,-1,20
 53 297 53 297 53 400 c 0,21,22
 53 541 53 541 149 646 c 128,-1,23
 245 751 245 751 390 751 c 0,24,25
 548 751 548 751 647 651.5 c 128,-1,26
 746 552 746 552 746 404 c 0,27,28
 746 296 746 296 693 207.5 c 128,-1,29
 640 119 640 119 554 74 c 1,30,-1
 734 74 l 1,31,-1
 734 0 l 1,32,-1
 454 0 l 1,33,-1
 454 78 l 1,0,1
EndSplineSet
EndChar

StartChar: alpha
Encoding: 945 945 82
Width: 610
GlyphClass: 2
Flags: HW
LayerCount: 2
Fore
SplineSet
49 268 m 0,0,1
 49 302 49 302 55 336.5 c 128,-1,2
 61 371 61 371 77.5 408.5 c 128,-1,3
 94 446 94 446 119 475.5 c 128,-1,4
 144 505 144 505 186.5 524 c 128,-1,5
 229 543 229 543 283 543 c 0,6,7
 397 541 397 541 449 469 c 1,8,-1
 457 453 l 1,9,-1
 457 537 l 1,10,-1
 530 537 l 1,11,-1
 530 101 l 2,12,13
 530 69 530 69 552 70 c 0,14,15
 563 70 563 70 575 79 c 1,16,-1
 597 8 l 1,17,18
 553 -14 553 -14 515 -13 c 0,19,20
 484 -13 484 -13 466.5 3 c 128,-1,21
 449 19 449 19 449 47 c 2,22,-1
 449 56 l 1,23,24
 448 61 448 61 447 67 c 1,25,26
 447 45 447 45 398.5 16.5 c 128,-1,27
 350 -12 350 -12 283 -12 c 0,28,29
 49 -13 49 -13 49 268 c 0,0,1
434 272 m 0,30,31
 434 352 434 352 392 408.5 c 128,-1,32
 350 465 350 465 283 465 c 0,33,34
 207 465 207 465 171 411 c 128,-1,35
 135 357 135 357 135 264 c 0,36,37
 135 67 135 67 281 68 c 0,38,39
 355 68 355 68 394.5 120 c 128,-1,40
 434 172 434 172 434 272 c 0,30,31
EndSplineSet
EndChar

StartChar: beta
Encoding: 946 946 83
Width: 528
GlyphClass: 2
Flags: HW
LayerCount: 2
Fore
SplineSet
51 502 m 2,0,1
 51 558 51 558 60.5 600 c 128,-1,2
 70 642 70 642 91.5 677.5 c 128,-1,3
 113 713 113 713 154.5 731.5 c 128,-1,4
 196 750 196 750 256 750 c 0,5,6
 353 750 353 750 407 698.5 c 128,-1,7
 461 647 461 647 461 557 c 0,8,9
 461 435 461 435 354 397 c 1,10,11
 516 366 516 366 516 205 c 0,12,13
 516 108 516 108 459 47 c 128,-1,14
 402 -14 402 -14 305 -14 c 0,15,16
 245 -14 245 -14 209 1 c 128,-1,17
 173 16 173 16 139 53 c 1,18,-1
 139 -203 l 1,19,-1
 51 -203 l 1,20,-1
 51 502 l 2,0,1
387 559 m 0,21,22
 387 611 387 611 355 643.5 c 128,-1,23
 323 676 323 676 269 676 c 0,24,25
 209 676 209 676 167 634 c 0,26,27
 139 606 139 606 139 498 c 2,28,-1
 139 147 l 1,29,30
 171 61 171 61 287 61 c 0,31,32
 354 61 354 61 389 99 c 128,-1,33
 424 137 424 137 424 207 c 0,34,35
 424 346 424 346 258 346 c 2,36,-1
 207 346 l 1,37,-1
 207 422 l 1,38,-1
 250 422 l 2,39,40
 315 422 315 422 351 459.5 c 128,-1,41
 387 497 387 497 387 559 c 0,21,22
EndSplineSet
EndChar

StartChar: gamma
Encoding: 947 947 84
Width: 543
GlyphClass: 2
Flags: HW
LayerCount: 2
Fore
SplineSet
536 537 m 1,0,-1
 343 39 l 1,1,-1
 343 -203 l 1,2,-1
 255 -203 l 1,3,-1
 255 39 l 1,4,-1
 84 457 l 2,5,6
 78 471 78 471 58 471 c 0,7,8
 45 471 45 471 32 465 c 1,9,-1
 26 537 l 2,10,11
 26 540 26 540 44 544.5 c 128,-1,12
 62 549 62 549 69 549 c 0,13,14
 116 549 116 549 136 531 c 128,-1,15
 156 513 156 513 177 457 c 2,16,-1
 298 145 l 1,17,-1
 445 537 l 1,18,-1
 536 537 l 1,0,-1
EndSplineSet
EndChar

StartChar: delta
Encoding: 948 948 85
Width: 569
GlyphClass: 2
Flags: HW
LayerCount: 2
Fore
SplineSet
38 248 m 0,0,1
 38 366 38 366 98.5 438.5 c 128,-1,2
 159 511 159 511 256 511 c 0,3,4
 266 511 266 511 291 507 c 1,5,-1
 75 673 l 1,6,-1
 75 746 l 1,7,-1
 482 746 l 1,8,-1
 482 673 l 1,9,-1
 207 673 l 1,10,-1
 386 531 l 2,11,12
 402 518 402 518 421.5 505.5 c 128,-1,13
 441 493 441 493 462.5 468.5 c 128,-1,14
 484 444 484 444 501.5 417.5 c 128,-1,15
 519 391 519 391 530.5 348.5 c 128,-1,16
 542 306 542 306 542 256 c 0,17,18
 542 116 542 116 480 50 c 128,-1,19
 418 -16 418 -16 282 -16 c 0,20,21
 249 -16 249 -16 217.5 -9 c 128,-1,22
 186 -2 186 -2 153 16.5 c 128,-1,23
 120 35 120 35 95 63.5 c 128,-1,24
 70 92 70 92 54 140 c 128,-1,25
 38 188 38 188 38 248 c 0,0,1
288 442 m 0,26,27
 216 442 216 442 174 389.5 c 128,-1,28
 132 337 132 337 130 256 c 1,29,30
 130 163 130 163 171 115.5 c 128,-1,31
 212 68 212 68 282 68 c 2,32,-1
 310 68 l 2,33,34
 358 68 358 68 381 84 c 0,35,36
 414 109 414 109 433 156.5 c 128,-1,37
 452 204 452 204 452 258 c 0,38,39
 452 342 452 342 410 392 c 128,-1,40
 368 442 368 442 288 442 c 0,26,27
EndSplineSet
EndChar

StartChar: epsilon
Encoding: 949 949 86
Width: 522
GlyphClass: 2
Flags: HW
LayerCount: 2
Fore
SplineSet
487 139 m 1,0,1
 476 57 476 57 420.5 23.5 c 128,-1,2
 365 -10 365 -10 259 -10 c 0,3,4
 40 -10 40 -10 40 139 c 0,5,6
 40 236 40 236 144 267 c 1,7,8
 40 297 40 297 40 395 c 0,9,10
 40 478 40 478 97.5 510.5 c 128,-1,11
 155 543 155 543 259 545 c 1,12,-1
 268 545 l 2,13,14
 369 545 369 545 422.5 510.5 c 128,-1,15
 476 476 476 476 487 395 c 1,16,-1
 410 395 l 1,17,18
 405 435 405 435 360.5 454 c 128,-1,19
 316 473 316 473 256 473 c 0,20,21
 124 473 124 473 124 386 c 0,22,23
 124 338 124 338 156.5 317.5 c 128,-1,24
 189 297 189 297 255 297 c 2,25,-1
 302 297 l 1,26,-1
 302 237 l 1,27,-1
 255 237 l 2,28,29
 190 237 190 237 157 216.5 c 128,-1,30
 124 196 124 196 124 147 c 0,31,32
 124 102 124 102 161 81.5 c 128,-1,33
 198 61 198 61 256 61 c 128,-1,34
 314 61 314 61 359 80 c 128,-1,35
 404 99 404 99 410 139 c 1,36,-1
 487 139 l 1,0,1
EndSplineSet
EndChar

StartChar: zeta
Encoding: 950 950 87
Width: 473
GlyphClass: 2
Flags: HW
LayerCount: 2
Fore
SplineSet
301 -4 m 0,0,1
 279 -4 279 -4 251 0.5 c 128,-1,2
 223 5 223 5 184 21 c 128,-1,3
 145 37 145 37 114 60.5 c 128,-1,4
 83 84 83 84 61 127 c 128,-1,5
 39 170 39 170 39 225 c 0,6,7
 39 366 39 366 109 480 c 128,-1,8
 179 594 179 594 285 662 c 1,9,-1
 55 662 l 1,10,-1
 55 735 l 1,11,-1
 420 735 l 1,12,-1
 420 674 l 1,13,14
 304 608 304 608 218.5 492.5 c 128,-1,15
 133 377 133 377 133 242 c 0,16,17
 133 97 133 97 310 76 c 1,18,19
 381 71 381 71 416 47.5 c 128,-1,20
 451 24 451 24 451 -43 c 0,21,22
 451 -99 451 -99 412 -199 c 1,23,-1
 334 -170 l 1,24,25
 369 -99 369 -99 369 -66 c 0,26,27
 369 -30 369 -30 354 -17 c 128,-1,28
 339 -4 339 -4 301 -4 c 0,0,1
EndSplineSet
EndChar

StartChar: eta
Encoding: 951 951 88
Width: 538
GlyphClass: 2
Flags: HW
LayerCount: 2
Fore
SplineSet
420 324 m 2,0,1
 420 395 420 395 396.5 430 c 128,-1,2
 373 465 373 465 309 465 c 0,3,4
 168 465 168 465 168 291 c 2,5,-1
 168 0 l 1,6,-1
 78 0 l 1,7,-1
 78 424 l 2,8,9
 78 462 78 462 55 462 c 0,10,11
 49 462 49 462 39 459 c 1,12,-1
 25 532 l 1,13,14
 56 543 56 543 87 544 c 0,15,16
 120 544 120 544 138.5 519 c 128,-1,17
 157 494 157 494 159 456 c 2,18,-1
 160 440 l 1,19,20
 229 542 229 542 328 543 c 0,21,22
 412 543 412 543 458.5 501.5 c 128,-1,23
 505 460 505 460 509 380 c 0,24,25
 510 373 510 373 510 328 c 2,26,-1
 510 -186 l 1,27,-1
 420 -162 l 1,28,-1
 420 324 l 2,0,1
EndSplineSet
EndChar

StartChar: theta
Encoding: 952 952 89
Width: 538
GlyphClass: 2
Flags: HW
LayerCount: 2
Fore
SplineSet
502 369 m 0,0,1
 502 277 502 277 491.5 211 c 128,-1,2
 481 145 481 145 456.5 92.5 c 128,-1,3
 432 40 432 40 386.5 14 c 128,-1,4
 341 -12 341 -12 274 -12 c 0,5,6
 179 -12 179 -12 130.5 40 c 128,-1,7
 82 92 82 92 61 188 c 0,8,9
 46 262 46 262 46 369 c 0,10,11
 46 748 46 748 274 748 c 0,12,13
 340 748 340 748 386.5 716 c 128,-1,14
 433 684 433 684 457 627.5 c 128,-1,15
 481 571 481 571 491.5 508.5 c 128,-1,16
 502 446 502 446 502 369 c 0,0,1
274 674 m 0,17,18
 134 674 134 674 134 412 c 1,19,-1
 416 412 l 1,20,21
 416 523 416 523 386 600 c 1,22,23
 356 674 356 674 274 674 c 0,17,18
416 338 m 1,24,-1
 134 338 l 1,25,26
 134 283 134 283 139 240.5 c 128,-1,27
 144 198 144 198 157.5 154.5 c 128,-1,28
 171 111 171 111 200.5 87 c 128,-1,29
 230 63 230 63 274 63 c 0,30,31
 341 63 341 63 378.5 123.5 c 128,-1,32
 416 184 416 184 416 338 c 1,24,-1
EndSplineSet
EndChar

StartChar: iota
Encoding: 953 953 90
Width: 292
GlyphClass: 2
Flags: HW
LayerCount: 2
Fore
SplineSet
147 139 m 2,0,1
 147 112 147 112 161 96.5 c 128,-1,2
 175 81 175 81 197 81 c 0,3,4
 213 81 213 81 246 96 c 1,5,-1
 276 13 l 1,6,7
 229 -9 229 -9 184 -8 c 0,8,9
 123 -8 123 -8 90 29 c 128,-1,10
 57 66 57 66 57 136 c 2,11,-1
 57 537 l 1,12,-1
 147 537 l 1,13,-1
 147 139 l 2,0,1
EndSplineSet
EndChar

StartChar: kappa
Encoding: 954 954 91
Width: 528
GlyphClass: 2
Flags: HW
LayerCount: 2
Fore
SplineSet
508 0 m 1,0,-1
 397 0 l 1,1,-1
 221 272 l 1,2,-1
 158 211 l 1,3,-1
 158 0 l 1,4,-1
 68 0 l 1,5,-1
 68 537 l 1,6,-1
 158 537 l 1,7,-1
 158 322 l 1,8,-1
 371 537 l 1,9,-1
 487 537 l 1,10,-1
 285 334 l 1,11,-1
 508 0 l 1,0,-1
EndSplineSet
EndChar

StartChar: lambda
Encoding: 955 955 92
Width: 573
GlyphClass: 2
Flags: HW
LayerCount: 2
Fore
SplineSet
233 532 m 1,0,1
 219 572 219 572 213 588 c 128,-1,2
 207 604 207 604 193.5 625 c 128,-1,3
 180 646 180 646 163.5 652.5 c 128,-1,4
 147 659 147 659 123 659 c 1,5,-1
 68 651 l 1,6,-1
 78 735 l 1,7,8
 112 747 112 747 135 748 c 0,9,10
 175 748 175 748 206.5 728.5 c 128,-1,11
 238 709 238 709 254.5 679 c 128,-1,12
 271 649 271 649 287.5 612 c 128,-1,13
 304 575 304 575 315 541 c 1,14,-1
 485 92 l 2,15,16
 493 73 493 73 514 73 c 0,17,18
 519 73 519 73 532.5 77 c 128,-1,19
 546 81 546 81 549 84 c 1,20,-1
 569 12 l 1,21,22
 520 -13 520 -13 486 -12 c 0,23,24
 460 -12 460 -12 443.5 0 c 128,-1,25
 427 12 427 12 420 26 c 128,-1,26
 413 40 413 40 403 68 c 2,27,-1
 279 430 l 1,28,-1
 129 0 l 1,29,-1
 31 0 l 1,30,-1
 233 532 l 1,0,1
EndSplineSet
EndChar

StartChar: uni03BC
Encoding: 956 956 93
Width: 587
GlyphClass: 2
Flags: HW
LayerCount: 2
Fore
SplineSet
295 -12 m 0,0,1
 251 -12 251 -12 223.5 3 c 128,-1,2
 196 18 196 18 170 53 c 1,3,-1
 170 -205 l 1,4,-1
 80 -205 l 1,5,-1
 80 530 l 1,6,-1
 170 530 l 1,7,-1
 170 307 l 2,8,9
 170 184 170 184 182 148 c 0,10,11
 193 112 193 112 222 91 c 128,-1,12
 251 70 251 70 293 70 c 0,13,14
 336 70 336 70 367 95 c 128,-1,15
 398 120 398 120 404 140 c 0,16,17
 421 196 421 196 422 305 c 2,18,-1
 422 530 l 1,19,-1
 510 530 l 1,20,-1
 510 0 l 1,21,-1
 428 0 l 1,22,-1
 428 63 l 1,23,24
 403 25 403 25 373 6.5 c 128,-1,25
 343 -12 343 -12 295 -12 c 0,0,1
EndSplineSet
EndChar

StartChar: xi
Encoding: 958 958 95
Width: 481
GlyphClass: 2
Flags: HW
LayerCount: 2
Fore
SplineSet
268 72 m 0,0,1
 377 72 377 72 414.5 50.5 c 128,-1,2
 452 29 452 29 452 -40 c 0,3,4
 452 -102 452 -102 412 -199 c 1,5,-1
 336 -170 l 1,6,7
 372 -82 372 -82 372 -47 c 0,8,9
 372 -18 372 -18 352.5 -9 c 128,-1,10
 333 0 333 0 275 0 c 2,11,-1
 256 0 l 2,12,13
 187 0 187 0 137.5 17 c 128,-1,14
 88 34 88 34 63 62 c 128,-1,15
 38 90 38 90 27 118.5 c 128,-1,16
 16 147 16 147 16 179 c 0,17,18
 16 226 16 226 30.5 263 c 128,-1,19
 45 300 45 300 65 321 c 128,-1,20
 85 342 85 342 111 357 c 128,-1,21
 137 372 137 372 154.5 377.5 c 128,-1,22
 172 383 172 383 188 385 c 1,23,24
 133 393 133 393 98 431.5 c 128,-1,25
 63 470 63 470 63 528 c 0,26,27
 63 572 63 572 86 609 c 128,-1,28
 109 646 109 646 141 664 c 1,29,-1
 39 664 l 1,30,-1
 39 735 l 1,31,-1
 420 735 l 1,32,-1
 420 664 l 1,33,-1
 250 664 l 2,34,35
 207 664 207 664 174 621 c 128,-1,36
 141 578 141 578 141 528 c 0,37,38
 141 484 141 484 180 449 c 128,-1,39
 219 414 219 414 309 414 c 2,40,-1
 393 414 l 1,41,-1
 393 348 l 1,42,-1
 281 348 l 2,43,44
 205 348 205 348 153.5 306 c 128,-1,45
 102 264 102 264 102 202.5 c 128,-1,46
 102 141 102 141 150 106.5 c 128,-1,47
 198 72 198 72 268 72 c 0,0,1
EndSplineSet
EndChar

StartChar: pi
Encoding: 960 960 97
Width: 676
GlyphClass: 2
Flags: HW
LayerCount: 2
Fore
SplineSet
585 66 m 0,0,1
 603 66 603 66 615 78 c 1,2,-1
 632 14 l 1,3,4
 583 -4 583 -4 556 -4 c 0,5,6
 509 -4 509 -4 486.5 20.5 c 128,-1,7
 464 45 464 45 464 117 c 2,8,-1
 464 465 l 1,9,-1
 222 465 l 1,10,-1
 222 0 l 1,11,-1
 126 0 l 1,12,-1
 127 465 l 1,13,-1
 54 465 l 1,14,-1
 54 537 l 1,15,-1
 620 537 l 1,16,-1
 620 465 l 1,17,-1
 554 465 l 1,18,-1
 554 119 l 2,19,20
 554 99 554 99 555 90 c 128,-1,21
 556 81 556 81 563.5 73.5 c 128,-1,22
 571 66 571 66 585 66 c 0,0,1
EndSplineSet
EndChar

StartChar: rho
Encoding: 961 961 98
Width: 579
GlyphClass: 2
Flags: HW
LayerCount: 2
Fore
SplineSet
58 276 m 2,0,1
 58 338 58 338 74 387 c 128,-1,2
 90 436 90 436 114.5 465 c 128,-1,3
 139 494 139 494 173 512.5 c 128,-1,4
 207 531 207 531 238.5 538 c 128,-1,5
 270 545 270 545 304 545 c 0,6,7
 421 545 421 545 487.5 471.5 c 128,-1,8
 554 398 554 398 554 276 c 0,9,10
 554 165 554 165 522 109.5 c 128,-1,11
 490 54 490 54 421 15 c 0,12,13
 377 -11 377 -11 304 -10 c 0,14,15
 203 -10 203 -10 148 62 c 1,16,-1
 148 -205 l 1,17,-1
 58 -205 l 1,18,-1
 58 276 l 2,0,1
304 66 m 0,19,20
 367 66 367 66 414.5 113 c 128,-1,21
 462 160 462 160 462 270 c 0,22,23
 462 327 462 327 446.5 369 c 128,-1,24
 431 411 431 411 406 432 c 128,-1,25
 381 453 381 453 356 462 c 128,-1,26
 331 471 331 471 304.5 471 c 128,-1,27
 278 471 278 471 252.5 462 c 128,-1,28
 227 453 227 453 202.5 431.5 c 128,-1,29
 178 410 178 410 163 368 c 128,-1,30
 148 326 148 326 148 268.5 c 128,-1,31
 148 211 148 211 162.5 169 c 128,-1,32
 177 127 177 127 201 105.5 c 128,-1,33
 225 84 225 84 250 75 c 128,-1,34
 275 66 275 66 304 66 c 0,19,20
EndSplineSet
EndChar

StartChar: sigma1
Encoding: 962 962 99
Width: 547
GlyphClass: 2
Flags: HW
LayerCount: 2
Fore
SplineSet
23 283 m 0,0,1
 23 404 23 404 94.5 476.5 c 128,-1,2
 166 549 166 549 285 549 c 0,3,4
 386 549 386 549 449.5 489 c 128,-1,5
 513 429 513 429 513 332 c 1,6,-1
 420 332 l 1,7,8
 420 398 420 398 382 433.5 c 128,-1,9
 344 469 344 469 276 469 c 0,10,11
 249 469 249 469 225 460.5 c 128,-1,12
 201 452 201 452 176 432 c 128,-1,13
 151 412 151 412 136 373 c 128,-1,14
 121 334 121 334 121 281 c 0,15,16
 121 234 121 234 135.5 200 c 128,-1,17
 150 166 150 166 170 147 c 128,-1,18
 190 128 190 128 227 115.5 c 128,-1,19
 264 103 264 103 294.5 98 c 128,-1,20
 325 93 325 93 373 89 c 1,21,22
 447 79 447 79 479.5 56 c 128,-1,23
 512 33 512 33 512 -29 c 0,24,25
 512 -74 512 -74 463 -186 c 1,26,-1
 371 -154 l 1,27,28
 382 -131 382 -131 397.5 -90 c 128,-1,29
 413 -49 413 -49 413 -35 c 0,30,31
 413 -17 413 -17 390 -10.5 c 128,-1,32
 367 -4 367 -4 326 -2 c 0,33,34
 254 1 254 1 216.5 13.5 c 128,-1,35
 179 26 179 26 128 63 c 1,36,37
 81 95 81 95 52 152.5 c 128,-1,38
 23 210 23 210 23 283 c 0,0,1
EndSplineSet
EndChar

StartChar: sigma
Encoding: 963 963 100
Width: 630
GlyphClass: 2
Flags: HW
LayerCount: 2
Fore
SplineSet
35 266 m 0,0,1
 35 345 35 345 57.5 402 c 128,-1,2
 80 459 80 459 118.5 488 c 128,-1,3
 157 517 157 517 197.5 530 c 128,-1,4
 238 543 238 543 283 543 c 0,5,6
 315 543 315 543 334 539 c 1,7,-1
 604 539 l 1,8,-1
 604 455 l 1,9,-1
 465 455 l 1,10,11
 531 371 531 371 530 266 c 0,12,13
 530 140 530 140 464 64 c 128,-1,14
 398 -12 398 -12 283 -12 c 0,15,16
 165 -12 165 -12 100 63.5 c 128,-1,17
 35 139 35 139 35 266 c 0,0,1
127 266 m 0,18,19
 127 156 127 156 173.5 109.5 c 128,-1,20
 220 63 220 63 283 63 c 0,21,22
 358 63 358 63 398 118.5 c 128,-1,23
 438 174 438 174 438 266 c 0,24,25
 438 354 438 354 399 411.5 c 128,-1,26
 360 469 360 469 282.5 469 c 128,-1,27
 205 469 205 469 166 410.5 c 128,-1,28
 127 352 127 352 127 266 c 0,18,19
EndSplineSet
EndChar

StartChar: tau
Encoding: 964 964 101
Width: 544
GlyphClass: 2
Flags: HW
LayerCount: 2
Fore
SplineSet
336 -4 m 0,0,1
 261 -4 261 -4 236 30.5 c 128,-1,2
 211 65 211 65 211 147 c 2,3,-1
 211 462 l 1,4,-1
 43 462 l 1,5,-1
 43 537 l 1,6,-1
 506 537 l 1,7,-1
 506 462 l 1,8,-1
 301 462 l 1,9,-1
 301 156 l 2,10,11
 301 112 301 112 309.5 97 c 128,-1,12
 318 82 318 82 352 82 c 0,13,14
 365 82 365 82 386 87 c 1,15,-1
 406 6 l 1,16,17
 370 -4 370 -4 336 -4 c 0,0,1
EndSplineSet
EndChar

StartChar: upsilon
Encoding: 965 965 102
Width: 527
GlyphClass: 2
Flags: HW
LayerCount: 2
Fore
SplineSet
131 238 m 2,0,1
 131 138 131 138 156 100.5 c 128,-1,2
 181 63 181 63 266 63 c 0,3,4
 327 63 327 63 364 91 c 1,5,6
 387 106 387 106 393 141 c 128,-1,7
 399 176 399 176 399 238 c 2,8,-1
 399 537 l 1,9,-1
 489 537 l 1,10,-1
 489 203 l 2,11,12
 489 74 489 74 435 30 c 128,-1,13
 381 -14 381 -14 268 -14 c 0,14,15
 197 -14 197 -14 151 -0.5 c 128,-1,16
 105 13 105 13 81.5 43 c 128,-1,17
 58 73 58 73 49.5 109.5 c 128,-1,18
 41 146 41 146 41 203 c 2,19,-1
 41 537 l 1,20,-1
 131 537 l 1,21,-1
 131 238 l 2,0,1
EndSplineSet
EndChar

StartChar: phi
Encoding: 966 966 103
Width: 758
GlyphClass: 2
Flags: HW
LayerCount: 2
Fore
SplineSet
318 -10 m 2,0,1
 194 -10 194 -10 120.5 66.5 c 128,-1,2
 47 143 47 143 47 256 c 0,3,4
 47 348 47 348 93 418.5 c 128,-1,5
 139 489 139 489 211 526 c 1,6,-1
 254 457 l 1,7,8
 202 423 202 423 167.5 372 c 128,-1,9
 133 321 133 321 133 260 c 0,10,11
 133 180 133 180 187 126.5 c 128,-1,12
 241 73 241 73 321 73 c 2,13,-1
 341 73 l 1,14,-1
 341 537 l 1,15,-1
 431 537 l 2,16,17
 555 537 555 537 634.5 459 c 128,-1,18
 714 381 714 381 714 256 c 0,19,20
 714 143 714 143 645.5 66.5 c 128,-1,21
 577 -10 577 -10 464 -10 c 2,22,-1
 431 -10 l 1,23,-1
 431 -205 l 1,24,-1
 341 -205 l 1,25,-1
 341 -10 l 1,26,-1
 318 -10 l 2,0,1
628 257 m 0,27,28
 628 338 628 338 580 391 c 128,-1,29
 532 444 532 444 452 444 c 2,30,-1
 431 444 l 1,31,-1
 431 73 l 1,32,-1
 456 73 l 2,33,34
 533 73 533 73 580.5 125 c 128,-1,35
 628 177 628 177 628 257 c 0,27,28
EndSplineSet
EndChar

StartChar: chi
Encoding: 967 967 104
Width: 585
GlyphClass: 2
Flags: HW
LayerCount: 2
Fore
SplineSet
587 -205 m 1,0,1
 561 -217 561 -217 535 -217 c 2,2,-1
 526 -217 l 2,3,4
 489 -217 489 -217 458 -191 c 128,-1,5
 427 -165 427 -165 409 -126 c 2,6,-1
 309 76 l 1,7,-1
 121 -205 l 1,8,-1
 14 -205 l 1,9,-1
 254 164 l 1,10,-1
 101 430 l 2,11,12
 89 453 89 453 78.5 461 c 128,-1,13
 68 469 68 469 42 469 c 1,14,15
 29 465 29 465 17 465 c 1,16,-1
 17 545 l 1,17,18
 42 551 42 551 75 551 c 0,19,20
 143 551 143 551 175 489 c 2,21,-1
 309 240 l 1,22,-1
 466 530 l 1,23,-1
 564 530 l 1,24,-1
 365 164 l 1,25,-1
 499 -93 l 1,26,27
 515 -130 515 -130 552 -130 c 0,28,29
 566 -130 566 -130 587 -124 c 1,30,-1
 587 -205 l 1,0,1
EndSplineSet
EndChar

StartChar: psi
Encoding: 968 968 105
Width: 677
GlyphClass: 2
Flags: HW
LayerCount: 2
Fore
SplineSet
635 219 m 2,0,1
 635 108 635 108 569 53 c 128,-1,2
 503 -2 503 -2 383 -2 c 1,3,-1
 383 -205 l 1,4,-1
 295 -205 l 1,5,-1
 295 -2 l 1,6,7
 176 -2 176 -2 109.5 52 c 128,-1,8
 43 106 43 106 43 219 c 2,9,-1
 43 537 l 1,10,-1
 135 537 l 1,11,-1
 135 248 l 2,12,13
 135 157 135 157 171.5 115.5 c 128,-1,14
 208 74 208 74 295 74 c 1,15,-1
 295 518 l 1,16,-1
 383 518 l 1,17,-1
 383 74 l 1,18,19
 470 74 470 74 506.5 115.5 c 128,-1,20
 543 157 543 157 543 248 c 2,21,-1
 543 537 l 1,22,-1
 635 537 l 1,23,-1
 635 219 l 2,0,1
EndSplineSet
EndChar

StartChar: omega
Encoding: 969 969 106
Width: 757
GlyphClass: 2
Flags: HW
LayerCount: 2
Fore
SplineSet
422 157 m 2,0,1
 422 122 422 122 445.5 95 c 128,-1,2
 469 68 469 68 522 65 c 1,3,4
 563 65 563 65 589.5 92 c 128,-1,5
 616 119 616 119 625.5 156 c 128,-1,6
 635 193 635 193 635 241 c 0,7,8
 635 393 635 393 524 512 c 1,9,-1
 606 539 l 1,10,11
 649 504 649 504 685 415.5 c 128,-1,12
 721 327 721 327 721 247 c 0,13,14
 721 175 721 175 702.5 122 c 128,-1,15
 684 69 684 69 653.5 42 c 128,-1,16
 623 15 623 15 591.5 3 c 128,-1,17
 560 -9 560 -9 526 -9 c 0,18,19
 428 -9 428 -9 379 83 c 1,20,21
 332 -9 332 -9 231 -9 c 0,22,23
 135 -9 135 -9 86 64.5 c 128,-1,24
 37 138 37 138 37 247 c 0,25,26
 37 308 37 308 67.5 402.5 c 128,-1,27
 98 497 98 497 152 539 c 1,28,-1
 233 512 l 1,29,30
 122 401 122 401 123 241 c 0,31,32
 123 166 123 166 149 115.5 c 128,-1,33
 175 65 175 65 234 65 c 1,34,35
 290 68 290 68 313 96 c 128,-1,36
 336 124 336 124 336 157 c 2,37,-1
 336 385 l 1,38,-1
 422 385 l 1,39,-1
 422 157 l 2,0,1
EndSplineSet
EndChar

StartChar: theta1
Encoding: 977 977 112
Width: 593
GlyphClass: 2
Flags: HW
LayerCount: 2
Fore
SplineSet
331 674 m 0,0,1
 301 674 301 674 283 659.5 c 128,-1,2
 265 645 265 645 256 608.5 c 128,-1,3
 247 572 247 572 244.5 529.5 c 128,-1,4
 242 487 242 487 242 412 c 1,5,-1
 416 412 l 1,6,7
 416 567 416 567 400.5 620.5 c 128,-1,8
 385 674 385 674 331 674 c 0,0,1
154 338 m 1,9,10
 154 517 154 517 168 586 c 0,11,12
 198 739 198 739 315 746 c 0,13,14
 323 747 323 747 331 748 c 0,15,16
 359 748 359 748 381 741.5 c 128,-1,17
 403 735 403 735 420 725.5 c 128,-1,18
 437 716 437 716 450 698.5 c 128,-1,19
 463 681 463 681 471.5 664.5 c 128,-1,20
 480 648 480 648 486 622 c 128,-1,21
 492 596 492 596 495 576 c 128,-1,22
 498 556 498 556 499.5 523 c 128,-1,23
 501 490 501 490 501.5 468.5 c 128,-1,24
 502 447 502 447 502 412 c 1,25,-1
 570 412 l 1,26,-1
 570 338 l 1,27,-1
 502 338 l 1,28,29
 500 271 500 271 493 219.5 c 128,-1,30
 486 168 486 168 470 123 c 128,-1,31
 454 78 454 78 428.5 49 c 128,-1,32
 403 20 403 20 364.5 4 c 128,-1,33
 326 -12 326 -12 274 -12 c 0,34,35
 221 -12 221 -12 181 7.5 c 128,-1,36
 141 27 141 27 118.5 55.5 c 128,-1,37
 96 84 96 84 82 126.5 c 128,-1,38
 68 169 68 169 62.5 205.5 c 128,-1,39
 57 242 57 242 55 286 c 1,40,-1
 137 286 l 1,41,42
 138 226 138 226 151.5 177.5 c 128,-1,43
 165 129 165 129 196.5 96 c 128,-1,44
 228 63 228 63 274 63 c 0,45,46
 341 63 341 63 378.5 123.5 c 128,-1,47
 416 184 416 184 416 338 c 1,48,-1
 154 338 l 1,9,10
EndSplineSet
EndChar

StartChar: Upsilon1
Encoding: 978 978 113
Width: 759
GlyphClass: 2
Flags: HW
LayerCount: 2
Fore
SplineSet
53 660 m 1,0,1
 53 759 l 1,2,3
 123 759 123 759 175 733 c 128,-1,4
 227 707 227 707 259 660.5 c 128,-1,5
 291 614 291 614 308 572.5 c 128,-1,6
 325 531 325 531 337 479 c 1,7,8
 355 575 355 575 431.5 667 c 128,-1,9
 508 759 508 759 590 759 c 0,10,11
 667 759 667 759 730 688 c 1,12,13
 719 674 719 674 702.5 655.5 c 128,-1,14
 686 637 686 637 675 623 c 1,15,16
 635 670 635 670 596 670 c 0,17,18
 582 670 582 670 562 663 c 128,-1,19
 542 656 542 656 509 627 c 128,-1,20
 476 598 476 598 450.5 551 c 128,-1,21
 425 504 425 504 405.5 410.5 c 128,-1,22
 386 317 386 317 386 195 c 2,23,-1
 386 0 l 1,24,-1
 288 0 l 1,25,-1
 288 195 l 2,26,27
 288 266 288 266 285.5 308.5 c 128,-1,28
 283 351 283 351 272.5 408.5 c 128,-1,29
 262 466 262 466 238.5 514.5 c 128,-1,30
 215 563 215 563 176 607 c 0,31,32
 130 660 130 660 53 660 c 1,0,1
EndSplineSet
EndChar

StartChar: phi1
Encoding: 981 981 114
Width: 758
GlyphClass: 2
Flags: HW
LayerCount: 2
Fore
SplineSet
58 268 m 0,0,1
 58 388 58 388 128 466.5 c 128,-1,2
 198 545 198 545 341 545 c 1,3,-1
 341 729 l 1,4,-1
 431 729 l 1,5,-1
 431 545 l 1,6,7
 556 545 556 545 635 467.5 c 128,-1,8
 714 390 714 390 714 266 c 0,9,10
 714 209 714 209 699 161 c 128,-1,11
 684 113 684 113 652 73.5 c 128,-1,12
 620 34 620 34 563.5 12 c 128,-1,13
 507 -10 507 -10 431 -10 c 1,14,-1
 431 -205 l 1,15,-1
 341 -205 l 1,16,-1
 341 -10 l 1,17,18
 216 -10 216 -10 137 67 c 128,-1,19
 58 144 58 144 58 268 c 0,0,1
144 267 m 0,20,21
 144 182 144 182 194 127.5 c 128,-1,22
 244 73 244 73 341 73 c 1,23,-1
 341 462 l 1,24,25
 241 462 241 462 192.5 405 c 128,-1,26
 144 348 144 348 144 267 c 0,20,21
628 267 m 0,27,28
 628 352 628 352 579 407 c 128,-1,29
 530 462 530 462 431 462 c 1,30,-1
 431 73 l 1,31,32
 534 73 534 73 581 126.5 c 128,-1,33
 628 180 628 180 628 267 c 0,27,28
EndSplineSet
EndChar

StartChar: pisymbolgreek
Encoding: 982 982 115
Width: 757
GlyphClass: 2
Flags: HW
LayerCount: 2
Fore
SplineSet
422 157 m 2,0,1
 422 122 422 122 445.5 95 c 128,-1,2
 469 68 469 68 522 65 c 1,3,4
 563 65 563 65 589.5 92 c 128,-1,5
 616 119 616 119 625.5 156 c 128,-1,6
 635 193 635 193 635 241 c 0,7,8
 635 372 635 372 555 475 c 1,9,-1
 202 475 l 1,10,11
 123 372 123 372 123 241 c 0,12,13
 123 166 123 166 149 115.5 c 128,-1,14
 175 65 175 65 234 65 c 1,15,16
 290 68 290 68 313 96 c 128,-1,17
 336 124 336 124 336 157 c 2,18,-1
 336 385 l 1,19,-1
 422 385 l 1,20,-1
 422 157 l 2,0,1
720 547 m 1,21,-1
 720 475 l 1,22,-1
 656 475 l 1,23,24
 685 426 685 426 703 364 c 128,-1,25
 721 302 721 302 721 247 c 0,26,27
 721 175 721 175 702.5 122 c 128,-1,28
 684 69 684 69 653.5 42 c 128,-1,29
 623 15 623 15 591.5 3 c 128,-1,30
 560 -9 560 -9 526 -9 c 0,31,32
 428 -9 428 -9 379 83 c 1,33,34
 332 -9 332 -9 231 -9 c 0,35,36
 135 -9 135 -9 86 64.5 c 128,-1,37
 37 138 37 138 37 247 c 0,38,39
 37 288 37 288 54 355.5 c 128,-1,40
 71 423 71 423 100 475 c 1,41,-1
 37 475 l 1,42,-1
 37 547 l 1,43,-1
 720 547 l 1,21,-1
EndSplineSet
EndChar

StartChar: uni03D7
Encoding: 983 983 116
Width: 569
GlyphClass: 2
Flags: HW
LayerCount: 2
Fore
SplineSet
10 537 m 1,0,1
 147 537 147 537 223 494 c 128,-1,2
 299 451 299 451 299 349 c 1,3,-1
 456 537 l 1,4,-1
 557 537 l 1,5,-1
 452 409 l 2,6,7
 343 277 343 277 343 197 c 0,8,9
 343 81 343 81 555 81 c 1,10,-1
 555 -110 l 2,11,12
 555 -222 555 -222 408 -221 c 0,13,14
 395 -221 395 -221 379 -218 c 1,15,-1
 379 -145 l 1,16,17
 396 -146 396 -146 399 -146 c 0,18,19
 438 -146 438 -146 453.5 -131 c 128,-1,20
 469 -116 469 -116 469 -76 c 2,21,-1
 469 5 l 1,22,23
 266 30 266 30 266 183 c 1,24,-1
 115 0 l 1,25,-1
 8 0 l 1,26,-1
 68 72 l 2,27,28
 220 255 220 255 219 356 c 0,29,30
 219 413 219 413 164.5 435 c 128,-1,31
 110 457 110 457 10 457 c 1,32,-1
 10 537 l 1,0,1
EndSplineSet
EndChar

StartChar: uni03F0
Encoding: 1008 1008 117
Width: 569
GlyphClass: 2
Flags: HW
LayerCount: 2
Fore
SplineSet
0 453 m 1,0,1
 15 494 15 494 61.5 523 c 128,-1,2
 108 552 108 552 158 552 c 0,3,4
 218 552 218 552 258.5 503.5 c 128,-1,5
 299 455 299 455 299 351 c 1,6,-1
 456 537 l 1,7,-1
 557 537 l 1,8,-1
 452 409 l 2,9,10
 343 277 343 277 343 197 c 0,11,12
 343 136 343 136 366 98.5 c 128,-1,13
 389 61 389 61 425 61 c 0,14,15
 473 61 473 61 518 126 c 1,16,-1
 573 74 l 1,17,18
 555 37 555 37 507.5 10 c 128,-1,19
 460 -17 460 -17 410 -17 c 0,20,21
 348 -17 348 -17 307 31 c 128,-1,22
 266 79 266 79 266 183 c 1,23,-1
 115 0 l 1,24,-1
 8 0 l 1,25,-1
 68 72 l 2,26,27
 220 255 220 255 219 356 c 0,28,29
 219 412 219 412 200 444 c 128,-1,30
 181 476 181 476 151 476 c 0,31,32
 104 476 104 476 59 404 c 1,33,-1
 0 453 l 1,0,1
EndSplineSet
EndChar

StartChar: rhosymbolgreek
Encoding: 1009 1009 118
Width: 579
GlyphClass: 2
Flags: HW
LayerCount: 2
Fore
SplineSet
58 276 m 2,0,1
 58 338 58 338 74 387 c 128,-1,2
 90 436 90 436 114.5 465 c 128,-1,3
 139 494 139 494 173 512.5 c 128,-1,4
 207 531 207 531 238.5 538 c 128,-1,5
 270 545 270 545 304 545 c 0,6,7
 421 545 421 545 487.5 471.5 c 128,-1,8
 554 398 554 398 554 276 c 0,9,10
 554 165 554 165 522 109.5 c 128,-1,11
 490 54 490 54 421 15 c 0,12,13
 377 -11 377 -11 304 -10 c 0,14,15
 203 -10 203 -10 148 62 c 1,16,-1
 148 -22 l 2,17,18
 148 -53 148 -53 175 -79 c 128,-1,19
 202 -105 202 -105 244 -105 c 0,20,21
 290 -105 290 -105 363 -94.5 c 128,-1,22
 436 -84 436 -84 486 -84 c 1,23,-1
 486 -168 l 1,24,25
 446 -168 446 -168 366 -179 c 128,-1,26
 286 -190 286 -190 240 -190 c 0,27,28
 170 -190 170 -190 114 -135 c 128,-1,29
 58 -80 58 -80 58 -28 c 2,30,-1
 58 276 l 2,0,1
304 66 m 0,31,32
 367 66 367 66 414.5 113 c 128,-1,33
 462 160 462 160 462 270 c 0,34,35
 462 327 462 327 446.5 369 c 128,-1,36
 431 411 431 411 406 432 c 128,-1,37
 381 453 381 453 356 462 c 128,-1,38
 331 471 331 471 304.5 471 c 128,-1,39
 278 471 278 471 252.5 462 c 128,-1,40
 227 453 227 453 202.5 431.5 c 128,-1,41
 178 410 178 410 163 368 c 128,-1,42
 148 326 148 326 148 268.5 c 128,-1,43
 148 211 148 211 162.5 169 c 128,-1,44
 177 127 177 127 201 105.5 c 128,-1,45
 225 84 225 84 250 75 c 128,-1,46
 275 66 275 66 304 66 c 0,31,32
EndSplineSet
EndChar

StartChar: uni03F5
Encoding: 1013 1013 119
Width: 335
GlyphClass: 2
Flags: HW
LayerCount: 2
Fore
SplineSet
283 68 m 1,0,-1
 283 -12 l 1,1,2
 50 -12 50 -12 49 268 c 0,3,4
 49 302 49 302 55 336.5 c 128,-1,5
 61 371 61 371 77.5 408.5 c 128,-1,6
 94 446 94 446 119 475.5 c 128,-1,7
 144 505 144 505 186.5 524 c 128,-1,8
 229 543 229 543 283 543 c 1,9,-1
 283 465 l 1,10,11
 214 465 214 465 178 421 c 128,-1,12
 142 377 142 377 136 299 c 1,13,-1
 283 299 l 1,14,-1
 283 231 l 1,15,-1
 136 231 l 1,16,17
 142 155 142 155 178 111.5 c 128,-1,18
 214 68 214 68 283 68 c 1,0,-1
EndSplineSet
EndChar

StartChar: afii10051
Encoding: 1026 1026 122
Width: 784
GlyphClass: 2
Flags: HW
LayerCount: 2
Fore
SplineSet
566 465 m 2,0,1
 642 465 642 465 688.5 420.5 c 128,-1,2
 735 376 735 376 735 305 c 2,3,-1
 735 0 l 2,4,5
 735 -45 735 -45 718.5 -77.5 c 128,-1,6
 702 -110 702 -110 675 -124.5 c 128,-1,7
 648 -139 648 -139 621.5 -145.5 c 128,-1,8
 595 -152 595 -152 564 -152 c 2,9,-1
 480 -152 l 1,10,-1
 480 -84 l 1,11,-1
 582 -84 l 2,12,13
 640 -84 640 -84 640 -16 c 2,14,-1
 640 323 l 2,15,16
 640 381 640 381 572 381 c 2,17,-1
 329 381 l 1,18,-1
 329 0 l 1,19,-1
 233 0 l 1,20,-1
 232 665 l 1,21,-1
 29 665 l 1,22,-1
 29 746 l 1,23,-1
 530 746 l 1,24,-1
 530 665 l 1,25,-1
 329 665 l 1,26,-1
 329 465 l 1,27,-1
 566 465 l 2,0,1
EndSplineSet
EndChar

StartChar: afii10053
Encoding: 1028 1028 124
Width: 739
GlyphClass: 2
Flags: HW
LayerCount: 2
Fore
SplineSet
581 515 m 1,0,1
 565 595 565 595 516.5 635 c 128,-1,2
 468 675 468 675 379 675 c 0,3,4
 283 675 283 675 221.5 608.5 c 128,-1,5
 160 542 160 542 147 424 c 1,6,-1
 520 424 l 1,7,-1
 520 340 l 1,8,-1
 145 340 l 1,9,10
 151 211 151 211 216.5 135.5 c 128,-1,11
 282 60 282 60 387 60 c 0,12,13
 479 60 479 60 528.5 112 c 128,-1,14
 578 164 578 164 595 272 c 1,15,-1
 693 272 l 1,16,17
 659 -24 659 -24 386 -24 c 0,18,19
 309 -24 309 -24 248 2.5 c 128,-1,20
 187 29 187 29 151 69 c 128,-1,21
 115 109 115 109 91 162.5 c 128,-1,22
 67 216 67 216 58 265 c 128,-1,23
 49 314 49 314 49 365 c 0,24,25
 49 416 49 416 58 466 c 128,-1,26
 67 516 67 516 91.5 570.5 c 128,-1,27
 116 625 116 625 152 665.5 c 128,-1,28
 188 706 188 706 250 732.5 c 128,-1,29
 312 759 312 759 390 759 c 0,30,31
 634 759 634 759 678 515 c 1,32,-1
 581 515 l 1,0,1
EndSplineSet
EndChar

StartChar: afii10058
Encoding: 1033 1033 129
Width: 1105
GlyphClass: 2
Flags: HW
LayerCount: 2
Fore
SplineSet
526 0 m 1,0,-1
 525 663 l 1,1,-1
 295 663 l 1,2,3
 296 537 l 0,4,5
 296 468 296 468 294 414.5 c 128,-1,6
 292 361 292 361 285 294.5 c 128,-1,7
 278 228 278 228 263.5 179.5 c 128,-1,8
 249 131 249 131 226.5 88 c 128,-1,9
 204 45 204 45 168 22.5 c 128,-1,10
 132 0 132 0 85 0 c 1,11,-1
 85 96 l 1,12,13
 116 96 116 96 137.5 123 c 128,-1,14
 159 150 159 150 170.5 190 c 128,-1,15
 182 230 182 230 189 298 c 128,-1,16
 196 366 196 366 197.5 426 c 128,-1,17
 199 486 199 486 199 574 c 2,18,-1
 199 746 l 1,19,-1
 622 746 l 1,20,-1
 622 425 l 1,21,-1
 772 425 l 2,22,23
 902 425 902 425 974.5 365.5 c 128,-1,24
 1047 306 1047 306 1047 215 c 2,25,-1
 1047 213 l 1,26,27
 1046 117 1046 117 986 58.5 c 128,-1,28
 926 0 926 0 826 0 c 2,29,-1
 526 0 l 1,0,-1
817 84 m 2,30,31
 867 84 867 84 899 106 c 128,-1,32
 931 128 931 128 941 154.5 c 128,-1,33
 951 181 951 181 951 212 c 0,34,35
 951 269 951 269 911.5 305 c 128,-1,36
 872 341 872 341 807 341 c 2,37,-1
 622 341 l 1,38,-1
 622 84 l 1,39,-1
 817 84 l 2,30,31
EndSplineSet
EndChar

StartChar: afii10059
Encoding: 1034 1034 130
Width: 1038
GlyphClass: 2
Flags: HW
LayerCount: 2
Fore
SplineSet
493 0 m 1,0,-1
 493 340 l 1,1,-1
 181 340 l 1,2,-1
 181 0 l 1,3,-1
 85 0 l 1,4,-1
 85 746 l 1,5,-1
 180 746 l 1,6,-1
 180 424 l 1,7,-1
 493 424 l 1,8,-1
 493 746 l 1,9,-1
 588 746 l 1,10,-1
 588 425 l 1,11,-1
 731 425 l 2,12,13
 858 425 858 425 926 365 c 128,-1,14
 994 305 994 305 995 213 c 1,15,-1
 995 211 l 2,16,17
 995 117 995 117 934 58.5 c 128,-1,18
 873 0 873 0 775 0 c 2,19,-1
 493 0 l 1,0,-1
766 84 m 2,20,21
 816 84 816 84 848 106 c 128,-1,22
 880 128 880 128 890 154.5 c 128,-1,23
 900 181 900 181 900 212 c 0,24,25
 900 269 900 269 860.5 305 c 128,-1,26
 821 341 821 341 756 341 c 2,27,-1
 588 341 l 1,28,-1
 588 84 l 1,29,-1
 766 84 l 2,20,21
EndSplineSet
EndChar

StartChar: afii10060
Encoding: 1035 1035 131
Width: 784
GlyphClass: 2
Flags: HW
LayerCount: 2
Fore
SplineSet
566 465 m 2,0,1
 642 465 642 465 688.5 420.5 c 128,-1,2
 735 376 735 376 735 305 c 2,3,-1
 735 0 l 1,4,-1
 640 0 l 1,5,-1
 640 323 l 2,6,7
 640 381 640 381 572 381 c 2,8,-1
 329 381 l 1,9,-1
 329 0 l 1,10,-1
 233 0 l 1,11,-1
 232 665 l 1,12,-1
 29 665 l 1,13,-1
 29 746 l 1,14,-1
 530 746 l 1,15,-1
 530 665 l 1,16,-1
 329 665 l 1,17,-1
 329 465 l 1,18,-1
 566 465 l 2,0,1
EndSplineSet
EndChar

StartChar: afii10145
Encoding: 1039 1039 135
Width: 739
GlyphClass: 2
Flags: HW
LayerCount: 2
Fore
SplineSet
414 0 m 1,0,-1
 414 -138 l 1,1,-1
 332 -138 l 1,2,-1
 332 0 l 1,3,-1
 85 0 l 1,4,-1
 85 746 l 1,5,-1
 181 746 l 1,6,-1
 181 84 l 1,7,-1
 564 84 l 1,8,-1
 564 746 l 1,9,-1
 660 746 l 1,10,-1
 660 0 l 1,11,-1
 414 0 l 1,0,-1
EndSplineSet
EndChar

StartChar: afii10018
Encoding: 1041 1041 137
Width: 683
GlyphClass: 2
Flags: HW
LayerCount: 2
Fore
SplineSet
638 223 m 2,0,1
 638 186 638 186 627.5 150.5 c 128,-1,2
 617 115 617 115 594 79.5 c 128,-1,3
 571 44 571 44 525.5 22 c 128,-1,4
 480 0 480 0 418 0 c 2,5,-1
 81 0 l 1,6,-1
 81 746 l 1,7,-1
 582 746 l 1,8,-1
 582 663 l 1,9,-1
 176 663 l 1,10,-1
 176 445 l 1,11,-1
 360 445 l 2,12,13
 638 445 638 445 638 225 c 2,14,-1
 638 223 l 2,0,1
543 222.5 m 128,-1,16
 543 246 543 246 537 267.5 c 128,-1,17
 531 289 531 289 518.5 311.5 c 128,-1,18
 506 334 506 334 477.5 347.5 c 128,-1,19
 449 361 449 361 409 361 c 2,20,-1
 176 361 l 1,21,-1
 176 84 l 1,22,-1
 409 84 l 2,23,24
 449 84 449 84 477.5 97.5 c 128,-1,25
 506 111 506 111 518.5 134 c 128,-1,26
 531 157 531 157 537 178 c 128,-1,15
 543 199 543 199 543 222.5 c 128,-1,16
EndSplineSet
EndChar

StartChar: afii10020
Encoding: 1043 1043 139
Width: 625
GlyphClass: 2
Flags: HW
LayerCount: 2
Fore
SplineSet
176 0 m 1,0,-1
 81 0 l 1,1,-1
 81 746 l 1,2,-1
 582 746 l 1,3,-1
 582 663 l 1,4,-1
 176 663 l 1,5,-1
 176 0 l 1,0,-1
EndSplineSet
EndChar

StartChar: afii10021
Encoding: 1044 1044 140
Width: 831
GlyphClass: 2
Flags: HW
LayerCount: 2
Fore
SplineSet
268 84 m 1,0,-1
 607 84 l 1,1,-1
 607 663 l 1,2,-1
 339 663 l 1,3,4
 339 641 339 641 339.5 588 c 128,-1,5
 340 535 340 535 340 505 c 0,6,7
 340 197 340 197 268 84 c 1,0,-1
129 76 m 1,8,9
 200 109 200 109 221.5 232 c 128,-1,10
 243 355 243 355 243 578 c 2,11,-1
 243 746 l 1,12,-1
 703 746 l 1,13,-1
 703 76 l 1,14,-1
 797 76 l 1,15,-1
 797 -138 l 1,16,-1
 715 -138 l 1,17,-1
 715 0 l 1,18,-1
 117 0 l 1,19,-1
 117 -138 l 1,20,-1
 35 -138 l 1,21,-1
 35 76 l 1,22,-1
 129 76 l 1,8,9
EndSplineSet
EndChar

StartChar: afii10024
Encoding: 1046 1046 142
Width: 1047
GlyphClass: 2
Flags: HW
LayerCount: 2
Fore
SplineSet
470 332 m 1,0,-1
 177 0 l 1,1,-1
 65 0 l 1,2,-1
 397 384 l 1,3,-1
 108 746 l 1,4,-1
 226 746 l 1,5,-1
 470 431 l 1,6,-1
 470 746 l 1,7,-1
 565 746 l 1,8,-1
 565 431 l 1,9,-1
 809 746 l 1,10,-1
 928 746 l 1,11,-1
 638 384 l 1,12,-1
 971 0 l 1,13,-1
 850 0 l 1,14,-1
 565 332 l 1,15,-1
 565 0 l 1,16,-1
 470 0 l 1,17,-1
 470 332 l 1,0,-1
EndSplineSet
EndChar

StartChar: afii10025
Encoding: 1047 1047 143
Width: 683
GlyphClass: 2
Flags: HW
LayerCount: 2
Fore
SplineSet
350 60 m 0,0,1
 407 60 407 60 447 73.5 c 128,-1,2
 487 87 487 87 506 108.5 c 128,-1,3
 525 130 525 130 533 151 c 128,-1,4
 541 172 541 172 541 196 c 0,5,6
 541 243 541 243 491.5 286 c 128,-1,7
 442 329 442 329 374 329 c 2,8,-1
 263 329 l 1,9,-1
 263 413 l 1,10,-1
 353 413 l 2,11,12
 418 413 418 413 466.5 459.5 c 128,-1,13
 515 506 515 506 515 553 c 0,14,15
 515 609 515 609 469.5 644 c 128,-1,16
 424 679 424 679 348 679 c 0,17,18
 259 679 259 679 211 639.5 c 128,-1,19
 163 600 163 600 162 527 c 1,20,-1
 72 527 l 1,21,22
 73 637 73 637 144.5 698 c 128,-1,23
 216 759 216 759 345 759 c 0,24,25
 468 759 468 759 539 700 c 128,-1,26
 610 641 610 641 610 540 c 0,27,28
 610 429 610 429 503 383 c 1,29,30
 636 333 636 333 636 205 c 0,31,32
 636 175 636 175 628.5 146 c 128,-1,33
 621 117 621 117 600.5 85.5 c 128,-1,34
 580 54 580 54 548 30.5 c 128,-1,35
 516 7 516 7 463.5 -8.5 c 128,-1,36
 411 -24 411 -24 344 -24 c 0,37,38
 302 -24 302 -24 263.5 -17 c 128,-1,39
 225 -10 225 -10 185 8 c 128,-1,40
 145 26 145 26 116.5 54 c 128,-1,41
 88 82 88 82 69 129 c 128,-1,42
 50 176 50 176 49 238 c 1,43,-1
 139 238 l 1,44,-1
 139 232 l 2,45,46
 139 200 139 200 149 172.5 c 128,-1,47
 159 145 159 145 181 118.5 c 128,-1,48
 203 92 203 92 246.5 76 c 128,-1,49
 290 60 290 60 350 60 c 0,0,1
EndSplineSet
EndChar

StartChar: afii10026
Encoding: 1048 1048 144
Width: 745
GlyphClass: 2
Flags: HW
LayerCount: 2
Fore
SplineSet
81 746 m 1,0,-1
 171 746 l 1,1,-1
 171 129 l 1,2,-1
 561 746 l 1,3,-1
 665 746 l 1,4,-1
 665 0 l 1,5,-1
 574 0 l 1,6,-1
 574 612 l 1,7,-1
 188 0 l 1,8,-1
 81 0 l 1,9,-1
 81 746 l 1,0,-1
EndSplineSet
EndChar

StartChar: afii10028
Encoding: 1050 1050 146
Width: 683
GlyphClass: 2
Flags: HW
LayerCount: 2
Fore
SplineSet
176 0 m 1,0,-1
 81 0 l 1,1,-1
 81 746 l 1,2,-1
 176 746 l 1,3,-1
 176 433 l 1,4,-1
 488 746 l 1,5,-1
 602 746 l 1,6,-1
 249 393 l 1,7,-1
 636 0 l 1,8,-1
 509 0 l 1,9,-1
 176 341 l 1,10,-1
 176 0 l 1,0,-1
EndSplineSet
EndChar

StartChar: afii10029
Encoding: 1051 1051 147
Width: 689
GlyphClass: 2
Flags: HW
LayerCount: 2
Fore
SplineSet
512 663 m 1,0,-1
 244 663 l 1,1,2
 244 645 244 645 244.5 602.5 c 128,-1,3
 245 560 245 560 245 537 c 0,4,5
 245 467 245 467 243 412.5 c 128,-1,6
 241 358 241 358 233.5 290.5 c 128,-1,7
 226 223 226 223 212 173.5 c 128,-1,8
 198 124 198 124 175.5 80 c 128,-1,9
 153 36 153 36 117 13 c 128,-1,10
 81 -10 81 -10 34 -10 c 1,11,-1
 34 86 l 1,12,13
 65 86 65 86 86.5 113.5 c 128,-1,14
 108 141 108 141 119.5 182.5 c 128,-1,15
 131 224 131 224 137.5 293 c 128,-1,16
 144 362 144 362 145.5 423 c 128,-1,17
 147 484 147 484 147 573 c 2,18,-1
 147 746 l 1,19,-1
 608 746 l 1,20,-1
 608 0 l 1,21,-1
 512 0 l 1,22,-1
 512 663 l 1,0,-1
EndSplineSet
EndChar

StartChar: afii10033
Encoding: 1055 1055 151
Width: 736
GlyphClass: 2
Flags: HW
LayerCount: 2
Fore
SplineSet
559 663 m 1,0,-1
 177 663 l 1,1,-1
 177 0 l 1,2,-1
 81 0 l 1,3,-1
 81 746 l 1,4,-1
 655 746 l 1,5,-1
 655 0 l 1,6,-1
 559 0 l 1,7,-1
 559 663 l 1,0,-1
EndSplineSet
EndChar

StartChar: afii10037
Encoding: 1059 1059 155
Width: 665
GlyphClass: 2
Flags: HW
LayerCount: 2
Fore
SplineSet
258 0 m 1,0,-1
 142 0 l 1,1,-1
 274 250 l 1,2,-1
 27 746 l 1,3,-1
 142 746 l 1,4,-1
 332 358 l 1,5,-1
 520 746 l 1,6,-1
 634 746 l 1,7,-1
 258 0 l 1,0,-1
EndSplineSet
EndChar

StartChar: afii10038
Encoding: 1060 1060 156
Width: 958
GlyphClass: 2
Flags: HW
LayerCount: 2
Fore
SplineSet
506 651 m 1,0,1
 516 651 l 0,2,3
 555 651 555 651 589.5 647.5 c 128,-1,4
 624 644 624 644 674.5 628 c 128,-1,5
 725 612 725 612 761 584 c 128,-1,6
 797 556 797 556 823 501.5 c 128,-1,7
 849 447 849 447 849 374 c 0,8,9
 849 319 849 319 835 274 c 128,-1,10
 821 229 821 229 801 200.5 c 128,-1,11
 781 172 781 172 749 151.5 c 128,-1,12
 717 131 717 131 689.5 121 c 128,-1,13
 662 111 662 111 623.5 104.5 c 128,-1,14
 585 98 585 98 561.5 97 c 128,-1,15
 538 96 538 96 506 96 c 1,16,-1
 506 0 l 1,17,-1
 409 0 l 1,18,-1
 409 96 l 1,19,20
 377 96 377 96 353.5 97 c 128,-1,21
 330 98 330 98 291.5 104.5 c 128,-1,22
 253 111 253 111 225.5 121 c 128,-1,23
 198 131 198 131 165.5 151.5 c 128,-1,24
 133 172 133 172 113 200.5 c 128,-1,25
 93 229 93 229 79.5 273.5 c 128,-1,26
 66 318 66 318 66 374 c 0,27,28
 66 448 66 448 92 502 c 128,-1,29
 118 556 118 556 153.5 584 c 128,-1,30
 189 612 189 612 240 628 c 128,-1,31
 291 644 291 644 325 647.5 c 128,-1,32
 359 651 359 651 398 651 c 2,33,-1
 409 651 l 1,34,-1
 409 746 l 1,35,-1
 506 746 l 1,36,-1
 506 651 l 1,0,1
506 180 m 1,37,38
 530 180 530 180 554.5 182.5 c 128,-1,39
 579 185 579 185 615.5 197 c 128,-1,40
 652 209 652 209 679.5 228 c 128,-1,41
 707 247 707 247 726.5 285 c 128,-1,42
 746 323 746 323 746 374 c 128,-1,43
 746 425 746 425 726.5 463 c 128,-1,44
 707 501 707 501 679.5 520 c 128,-1,45
 652 539 652 539 615.5 550.5 c 128,-1,46
 579 562 579 562 554 564.5 c 128,-1,47
 529 567 529 567 506 567 c 1,48,-1
 506 180 l 1,37,38
409 180 m 1,49,-1
 409 567 l 1,50,51
 385 567 385 567 360.5 564.5 c 128,-1,52
 336 562 336 562 299 550.5 c 128,-1,53
 262 539 262 539 235 520 c 128,-1,54
 208 501 208 501 188 463 c 128,-1,55
 168 425 168 425 168 374 c 128,-1,56
 168 323 168 323 188 285 c 128,-1,57
 208 247 208 247 235 228 c 128,-1,58
 262 209 262 209 299 197 c 128,-1,59
 336 185 336 185 360.5 182.5 c 128,-1,60
 385 180 385 180 409 180 c 1,49,-1
EndSplineSet
EndChar

StartChar: afii10040
Encoding: 1062 1062 158
Width: 758
GlyphClass: 2
Flags: HW
LayerCount: 2
Fore
SplineSet
559 84 m 1,0,-1
 559 746 l 1,1,-1
 655 746 l 1,2,-1
 655 76 l 1,3,-1
 724 76 l 1,4,-1
 724 -138 l 1,5,-1
 642 -138 l 1,6,-1
 642 0 l 1,7,-1
 81 0 l 1,8,-1
 81 746 l 1,9,-1
 177 746 l 1,10,-1
 177 84 l 1,11,-1
 559 84 l 1,0,-1
EndSplineSet
EndChar

StartChar: afii10041
Encoding: 1063 1063 159
Width: 663
GlyphClass: 2
Flags: HW
LayerCount: 2
Fore
SplineSet
487 282 m 1,0,-1
 250 282 l 2,1,2
 171 282 171 282 126 329 c 128,-1,3
 81 376 81 376 81 442 c 2,4,-1
 81 746 l 1,5,-1
 176 746 l 1,6,-1
 176 424 l 2,7,8
 176 366 176 366 254 366 c 2,9,-1
 487 366 l 1,10,-1
 487 746 l 1,11,-1
 583 746 l 1,12,-1
 583 0 l 1,13,-1
 487 0 l 1,14,-1
 487 282 l 1,0,-1
EndSplineSet
EndChar

StartChar: afii10042
Encoding: 1064 1064 160
Width: 847
GlyphClass: 2
Flags: HW
LayerCount: 2
Fore
SplineSet
472 84 m 1,0,-1
 671 84 l 1,1,-1
 671 746 l 1,2,-1
 767 746 l 1,3,-1
 767 0 l 1,4,-1
 81 0 l 1,5,-1
 81 746 l 1,6,-1
 177 746 l 1,7,-1
 177 84 l 1,8,-1
 376 84 l 1,9,-1
 376 746 l 1,10,-1
 472 746 l 1,11,-1
 472 84 l 1,0,-1
EndSplineSet
EndChar

StartChar: afii10043
Encoding: 1065 1065 161
Width: 870
GlyphClass: 2
Flags: HW
LayerCount: 2
Fore
SplineSet
754 0 m 1,0,-1
 81 0 l 1,1,-1
 81 746 l 1,2,-1
 177 746 l 1,3,-1
 177 84 l 1,4,-1
 376 84 l 1,5,-1
 376 746 l 1,6,-1
 472 746 l 1,7,-1
 472 84 l 1,8,-1
 671 84 l 1,9,-1
 671 746 l 1,10,-1
 767 746 l 1,11,-1
 767 76 l 1,12,-1
 836 76 l 1,13,-1
 836 -138 l 1,14,-1
 754 -138 l 1,15,-1
 754 0 l 1,0,-1
EndSplineSet
EndChar

StartChar: afii10044
Encoding: 1066 1066 162
Width: 918
GlyphClass: 2
Flags: HW
LayerCount: 2
Fore
SplineSet
319 0 m 1,0,-1
 319 663 l 1,1,-1
 83 663 l 1,2,-1
 83 746 l 1,3,-1
 415 746 l 1,4,-1
 415 462 l 1,5,-1
 584 462 l 2,6,7
 738 462 738 462 807.5 400.5 c 128,-1,8
 877 339 877 339 877 234 c 2,9,-1
 877 231 l 2,10,11
 877 130 877 130 810 65 c 128,-1,12
 743 0 743 0 641 0 c 2,13,-1
 319 0 l 1,0,-1
415 84 m 1,14,-1
 632 84 l 2,15,16
 698 84 698 84 739.5 126 c 128,-1,17
 781 168 781 168 781 230 c 0,18,19
 781 296 781 296 739.5 337 c 128,-1,20
 698 378 698 378 632 378 c 2,21,-1
 415 378 l 1,22,-1
 415 84 l 1,14,-1
EndSplineSet
EndChar

StartChar: afii10045
Encoding: 1067 1067 163
Width: 892
GlyphClass: 2
Flags: HW
LayerCount: 2
Fore
SplineSet
638 231 m 2,0,1
 638 130 638 130 571.5 65 c 128,-1,2
 505 0 505 0 402 0 c 2,3,-1
 81 0 l 1,4,-1
 81 746 l 1,5,-1
 176 746 l 1,6,-1
 176 462 l 1,7,-1
 345 462 l 2,8,9
 499 462 499 462 568.5 400.5 c 128,-1,10
 638 339 638 339 638 234 c 2,11,-1
 638 231 l 2,0,1
176 84 m 1,12,-1
 393 84 l 2,13,14
 459 84 459 84 501 126 c 128,-1,15
 543 168 543 168 543 230 c 0,16,17
 543 296 543 296 501.5 337 c 128,-1,18
 460 378 460 378 393 378 c 2,19,-1
 176 378 l 1,20,-1
 176 84 l 1,12,-1
812 746 m 1,21,-1
 812 0 l 1,22,-1
 716 0 l 1,23,-1
 716 746 l 1,24,-1
 812 746 l 1,21,-1
EndSplineSet
EndChar

StartChar: afii10046
Encoding: 1068 1068 164
Width: 683
GlyphClass: 2
Flags: HW
LayerCount: 2
Fore
SplineSet
638 231 m 2,0,1
 638 130 638 130 571.5 65 c 128,-1,2
 505 0 505 0 402 0 c 2,3,-1
 81 0 l 1,4,-1
 81 746 l 1,5,-1
 176 746 l 1,6,-1
 176 462 l 1,7,-1
 345 462 l 2,8,9
 499 462 499 462 568.5 400.5 c 128,-1,10
 638 339 638 339 638 234 c 2,11,-1
 638 231 l 2,0,1
176 84 m 1,12,-1
 393 84 l 2,13,14
 459 84 459 84 501 126 c 128,-1,15
 543 168 543 168 543 230 c 0,16,17
 543 296 543 296 501.5 337 c 128,-1,18
 460 378 460 378 393 378 c 2,19,-1
 176 378 l 1,20,-1
 176 84 l 1,12,-1
EndSplineSet
EndChar

StartChar: afii10047
Encoding: 1069 1069 165
Width: 739
GlyphClass: 2
Flags: HW
LayerCount: 2
Fore
SplineSet
147 272 m 1,0,1
 164 163 164 163 213.5 111.5 c 128,-1,2
 263 60 263 60 355 60 c 0,3,4
 460 60 460 60 525.5 135.5 c 128,-1,5
 591 211 591 211 598 340 c 1,6,-1
 222 340 l 1,7,-1
 222 424 l 1,8,-1
 595 424 l 1,9,10
 583 542 583 542 521.5 608.5 c 128,-1,11
 460 675 460 675 364 675 c 0,12,13
 275 675 275 675 226.5 635.5 c 128,-1,14
 178 596 178 596 162 515 c 1,15,-1
 65 515 l 1,16,17
 109 759 109 759 352 759 c 0,18,19
 430 759 430 759 492 732.5 c 128,-1,20
 554 706 554 706 590.5 665.5 c 128,-1,21
 627 625 627 625 651.5 570.5 c 128,-1,22
 676 516 676 516 684.5 466 c 128,-1,23
 693 416 693 416 693 365 c 0,24,25
 693 315 693 315 684.5 265.5 c 128,-1,26
 676 216 676 216 652 162.5 c 128,-1,27
 628 109 628 109 591.5 69 c 128,-1,28
 555 29 555 29 494 2.5 c 128,-1,29
 433 -24 433 -24 356 -24 c 0,30,31
 83 -24 83 -24 49 272 c 1,32,-1
 147 272 l 1,0,1
EndSplineSet
EndChar

StartChar: afii10048
Encoding: 1070 1070 166
Width: 1056
GlyphClass: 2
Flags: HW
LayerCount: 2
Fore
SplineSet
981 361 m 0,0,1
 981 199 981 199 885.5 87.5 c 128,-1,2
 790 -24 790 -24 644 -24 c 0,3,4
 491 -24 491 -24 400.5 75 c 128,-1,5
 310 174 310 174 302 340 c 1,6,-1
 181 340 l 1,7,-1
 181 0 l 1,8,-1
 85 0 l 1,9,-1
 85 746 l 1,10,-1
 180 746 l 1,11,-1
 180 424 l 1,12,-1
 304 424 l 1,13,14
 320 579 320 579 408 669 c 128,-1,15
 496 759 496 759 640 759 c 0,16,17
 802 759 802 759 891.5 651.5 c 128,-1,18
 981 544 981 544 981 361 c 0,0,1
640 675 m 0,19,20
 524 675 524 675 460 592 c 128,-1,21
 396 509 396 509 396 367.5 c 128,-1,22
 396 226 396 226 460 143 c 128,-1,23
 524 60 524 60 641 60 c 0,24,25
 757 60 757 60 821.5 142.5 c 128,-1,26
 886 225 886 225 886 364 c 0,27,28
 886 508 886 508 822.5 591.5 c 128,-1,29
 759 675 759 675 640 675 c 0,19,20
EndSplineSet
EndChar

StartChar: afii10049
Encoding: 1071 1071 167
Width: 718
GlyphClass: 2
Flags: HW
LayerCount: 2
Fore
SplineSet
81 534 m 1,0,1
 81 630 81 630 141.5 688 c 128,-1,2
 202 746 202 746 301 746 c 2,3,-1
 638 746 l 1,4,-1
 638 0 l 1,5,-1
 543 0 l 1,6,-1
 543 322 l 1,7,-1
 429 322 l 1,8,-1
 145 0 l 1,9,-1
 33 0 l 1,10,-1
 312 322 l 1,11,12
 209 322 209 322 151 379.5 c 128,-1,13
 93 437 93 437 81 534 c 1,0,1
176 533.5 m 128,-1,15
 176 483 176 483 207 444.5 c 128,-1,16
 238 406 238 406 310 406 c 2,17,-1
 543 406 l 1,18,-1
 543 663 l 1,19,-1
 310 663 l 2,20,21
 237 663 237 663 206.5 623.5 c 128,-1,14
 176 584 176 584 176 533.5 c 128,-1,15
EndSplineSet
EndChar

StartChar: afii10066
Encoding: 1073 1073 169
Width: 569
GlyphClass: 2
Flags: HW
LayerCount: 2
Fore
SplineSet
120 480 m 1,0,1
 165 552 165 552 279 552 c 0,2,3
 395 552 395 552 458.5 475.5 c 128,-1,4
 522 399 522 399 522 260 c 0,5,6
 522 128 522 128 457 52 c 128,-1,7
 392 -24 392 -24 280 -24 c 0,8,9
 165 -24 165 -24 101 52.5 c 128,-1,10
 37 129 37 129 37 264 c 0,11,12
 37 342 37 342 44.5 409.5 c 128,-1,13
 52 477 52 477 70.5 542.5 c 128,-1,14
 89 608 89 608 125 651.5 c 128,-1,15
 161 695 161 695 212 707 c 0,16,17
 226 710 226 710 258.5 715 c 128,-1,18
 291 720 291 720 312 724.5 c 128,-1,19
 333 729 333 729 357 737 c 128,-1,20
 381 745 381 745 393.5 759.5 c 128,-1,21
 406 774 406 774 406 794 c 1,22,-1
 481 794 l 1,23,24
 481 727 481 727 458.5 699 c 128,-1,25
 436 671 436 671 380.5 659 c 128,-1,26
 325 647 325 647 229 626 c 0,27,28
 188 616 188 616 158.5 575.5 c 128,-1,29
 129 535 129 535 120 480 c 1,0,1
280 473 m 0,30,31
 208 473 208 473 167 417 c 128,-1,32
 126 361 126 361 126 264 c 128,-1,33
 126 167 126 167 167 111 c 128,-1,34
 208 55 208 55 280 55 c 0,35,36
 351 55 351 55 392 111 c 128,-1,37
 433 167 433 167 433 261 c 0,38,39
 433 360 433 360 393 416.5 c 128,-1,40
 353 473 353 473 280 473 c 0,30,31
EndSplineSet
EndChar

StartChar: afii10067
Encoding: 1074 1074 170
Width: 534
GlyphClass: 2
Flags: HW
LayerCount: 2
Fore
SplineSet
296 537 m 2,0,1
 380 537 380 537 416 496 c 128,-1,2
 452 455 452 455 452 401 c 0,3,4
 452 318 452 318 381 284 c 1,5,6
 432 264 432 264 455.5 233 c 128,-1,7
 479 202 479 202 479 154 c 0,8,9
 479 87 479 87 436 43.5 c 128,-1,10
 393 0 393 0 321 0 c 2,11,-1
 72 0 l 1,12,-1
 72 537 l 1,13,-1
 296 537 l 2,0,1
366 385 m 0,14,15
 366 415 366 415 342 437.5 c 128,-1,16
 318 460 318 460 258 460 c 2,17,-1
 158 460 l 1,18,-1
 158 314 l 1,19,-1
 258 314 l 2,20,21
 318 314 318 314 342 335 c 128,-1,22
 366 356 366 356 366 385 c 0,14,15
386 165 m 2,23,24
 386 237 386 237 293 237 c 2,25,-1
 158 237 l 1,26,-1
 158 78 l 1,27,-1
 293 78 l 2,28,29
 336 78 336 78 361 100 c 128,-1,30
 386 122 386 122 386 159 c 2,31,-1
 386 165 l 2,23,24
EndSplineSet
EndChar

StartChar: afii10068
Encoding: 1075 1075 171
Width: 440
GlyphClass: 2
Flags: HW
LayerCount: 2
Fore
SplineSet
72 537 m 1,0,-1
 389 537 l 1,1,-1
 389 459 l 1,2,-1
 158 459 l 1,3,-1
 158 0 l 1,4,-1
 72 0 l 1,5,-1
 72 537 l 1,0,-1
EndSplineSet
EndChar

StartChar: afii10069
Encoding: 1076 1076 172
Width: 616
GlyphClass: 2
Flags: HW
LayerCount: 2
Fore
SplineSet
89 66 m 1,0,1
 138 71 138 71 155.5 197.5 c 128,-1,2
 173 324 173 324 173 537 c 1,3,-1
 520 537 l 1,4,-1
 520 66 l 1,5,-1
 586 66 l 1,6,-1
 586 -123 l 1,7,-1
 514 -123 l 1,8,-1
 514 0 l 1,9,-1
 102 0 l 1,10,-1
 102 -123 l 1,11,-1
 31 -123 l 1,12,-1
 31 66 l 1,13,-1
 89 66 l 1,0,1
208 78 m 1,14,-1
 434 78 l 1,15,-1
 434 459 l 1,16,-1
 258 459 l 1,17,-1
 258 398 l 2,18,19
 258 169 258 169 208 78 c 1,14,-1
EndSplineSet
EndChar

StartChar: afii10072
Encoding: 1078 1078 174
Width: 857
GlyphClass: 2
Flags: HW
LayerCount: 2
Fore
SplineSet
469 537 m 1,0,-1
 469 331 l 1,1,-1
 666 537 l 1,2,-1
 775 537 l 1,3,-1
 527 281 l 1,4,-1
 808 0 l 1,5,-1
 699 0 l 1,6,-1
 469 231 l 1,7,-1
 469 0 l 1,8,-1
 384 0 l 1,9,-1
 384 231 l 1,10,-1
 154 0 l 1,11,-1
 45 0 l 1,12,-1
 326 281 l 1,13,-1
 78 537 l 1,14,-1
 187 537 l 1,15,-1
 384 331 l 1,16,-1
 384 537 l 1,17,-1
 469 537 l 1,0,-1
EndSplineSet
EndChar

StartChar: afii10073
Encoding: 1079 1079 175
Width: 512
GlyphClass: 2
Flags: HW
LayerCount: 2
Fore
SplineSet
125 160 m 1,0,1
 131 112 131 112 158 83.5 c 128,-1,2
 185 55 185 55 256 55 c 0,3,4
 311 55 311 55 344 78 c 128,-1,5
 377 101 377 101 377 139 c 0,6,7
 377 171 377 171 346.5 198.5 c 128,-1,8
 316 226 316 226 272 226 c 2,9,-1
 197 226 l 1,10,-1
 197 304 l 1,11,-1
 260 304 l 2,12,13
 309 304 309 304 334 331 c 128,-1,14
 359 358 359 358 359 392 c 0,15,16
 359 429 359 429 328.5 451 c 128,-1,17
 298 473 298 473 246 473 c 0,18,19
 142 473 142 473 138 387 c 1,20,-1
 48 387 l 1,21,22
 49 466 49 466 99.5 509 c 128,-1,23
 150 552 150 552 243 552 c 128,-1,24
 336 552 336 552 392.5 507.5 c 128,-1,25
 449 463 449 463 449 388 c 0,26,27
 449 311 449 311 382 273 c 1,28,29
 470 234 470 234 470 146 c 0,30,31
 470 68 470 68 410 22 c 128,-1,32
 350 -24 350 -24 249 -24 c 0,33,34
 41 -24 41 -24 35 160 c 1,35,-1
 125 160 l 1,0,1
EndSplineSet
EndChar

StartChar: afii10074
Encoding: 1080 1080 176
Width: 580
GlyphClass: 2
Flags: HW
LayerCount: 2
Fore
SplineSet
72 537 m 1,0,-1
 158 537 l 1,1,-1
 158 114 l 1,2,-1
 398 537 l 1,3,-1
 509 537 l 1,4,-1
 509 0 l 1,5,-1
 424 0 l 1,6,-1
 424 423 l 1,7,-1
 183 0 l 1,8,-1
 72 0 l 1,9,-1
 72 537 l 1,0,-1
EndSplineSet
EndChar

StartChar: afii10076
Encoding: 1082 1082 178
Width: 522
GlyphClass: 2
Flags: HW
LayerCount: 2
Fore
SplineSet
157 537 m 1,0,-1
 157 319 l 1,1,-1
 374 537 l 1,2,-1
 472 537 l 1,3,-1
 215 281 l 1,4,-1
 496 0 l 1,5,-1
 387 0 l 1,6,-1
 157 231 l 1,7,-1
 157 0 l 1,8,-1
 72 0 l 1,9,-1
 72 537 l 1,10,-1
 157 537 l 1,0,-1
EndSplineSet
EndChar

StartChar: afii10077
Encoding: 1083 1083 179
Width: 570
GlyphClass: 2
Flags: HW
LayerCount: 2
Fore
SplineSet
152 537 m 1,0,-1
 499 537 l 1,1,-1
 499 0 l 1,2,-1
 413 0 l 1,3,-1
 413 459 l 1,4,-1
 237 459 l 1,5,6
 237 358 l 0,7,8
 237 320 237 320 235.5 289.5 c 128,-1,9
 234 259 234 259 230 219 c 128,-1,10
 226 179 226 179 219.5 149 c 128,-1,11
 213 119 213 119 200.5 87.5 c 128,-1,12
 188 56 188 56 171.5 35.5 c 128,-1,13
 155 15 155 15 129 2.5 c 128,-1,14
 103 -10 103 -10 72 -10 c 1,15,-1
 72 72 l 1,16,17
 90 72 90 72 104.5 84.5 c 128,-1,18
 119 97 119 97 127 126 c 128,-1,19
 135 155 135 155 140.5 184 c 128,-1,20
 146 213 146 213 148.5 263.5 c 128,-1,21
 151 314 151 314 151.5 351 c 128,-1,22
 152 388 152 388 152 452 c 2,23,-1
 152 537 l 1,0,-1
EndSplineSet
EndChar

StartChar: afii10078
Encoding: 1084 1084 180
Width: 632
GlyphClass: 2
Flags: HW
LayerCount: 2
Fore
SplineSet
72 537 m 1,0,-1
 178 537 l 1,1,-1
 316 203 l 1,2,-1
 455 537 l 1,3,-1
 561 537 l 1,4,-1
 561 0 l 1,5,-1
 475 0 l 1,6,-1
 475 372 l 1,7,-1
 342 41 l 1,8,-1
 291 41 l 1,9,-1
 158 372 l 1,10,-1
 158 0 l 1,11,-1
 72 0 l 1,12,-1
 72 537 l 1,0,-1
EndSplineSet
EndChar

StartChar: afii10079
Encoding: 1085 1085 181
Width: 571
GlyphClass: 2
Flags: HW
LayerCount: 2
Fore
SplineSet
72 537 m 1,0,-1
 158 537 l 1,1,-1
 158 316 l 1,2,-1
 414 316 l 1,3,-1
 414 537 l 1,4,-1
 500 537 l 1,5,-1
 500 0 l 1,6,-1
 414 0 l 1,7,-1
 414 239 l 1,8,-1
 158 239 l 1,9,-1
 158 0 l 1,10,-1
 72 0 l 1,11,-1
 72 537 l 1,0,-1
EndSplineSet
EndChar

StartChar: afii10081
Encoding: 1087 1087 183
Width: 570
GlyphClass: 2
Flags: HW
LayerCount: 2
Fore
SplineSet
72 537 m 1,0,-1
 499 537 l 1,1,-1
 499 0 l 1,2,-1
 413 0 l 1,3,-1
 413 459 l 1,4,-1
 158 459 l 1,5,-1
 158 0 l 1,6,-1
 72 0 l 1,7,-1
 72 537 l 1,0,-1
EndSplineSet
EndChar

StartChar: afii10084
Encoding: 1090 1090 186
Width: 507
GlyphClass: 2
Flags: HW
LayerCount: 2
Fore
SplineSet
61 537 m 1,0,-1
 442 537 l 1,1,-1
 442 459 l 1,2,-1
 295 459 l 1,3,-1
 295 0 l 1,4,-1
 209 0 l 1,5,-1
 209 459 l 1,6,-1
 61 459 l 1,7,-1
 61 537 l 1,0,-1
EndSplineSet
EndChar

StartChar: afii10086
Encoding: 1092 1092 188
Width: 933
GlyphClass: 2
Flags: HW
LayerCount: 2
Fore
SplineSet
507 456 m 1,0,1
 553 552 553 552 655 552 c 0,2,3
 759 552 759 552 814.5 474 c 128,-1,4
 870 396 870 396 870 259 c 0,5,6
 870 129 870 129 814.5 52.5 c 128,-1,7
 759 -24 759 -24 656 -24 c 0,8,9
 606 -24 606 -24 574.5 -6 c 128,-1,10
 543 12 543 12 507 56 c 1,11,-1
 507 -223 l 1,12,-1
 422 -223 l 1,13,-1
 422 61 l 1,14,15
 390 15 390 15 358 -4.5 c 128,-1,16
 326 -24 326 -24 271 -24 c 0,17,18
 168 -24 168 -24 115 50 c 128,-1,19
 62 124 62 124 62 258 c 0,20,21
 62 395 62 395 117 473.5 c 128,-1,22
 172 552 172 552 275 552 c 0,23,24
 371 552 371 552 422 456 c 1,25,-1
 422 690 l 1,26,-1
 507 690 l 1,27,-1
 507 456 l 1,0,1
641 472 m 0,28,29
 575 472 575 472 541 416.5 c 128,-1,30
 507 361 507 361 507 264 c 128,-1,31
 507 167 507 167 541 111.5 c 128,-1,32
 575 56 575 56 641 56 c 0,33,34
 710 56 710 56 745.5 111.5 c 128,-1,35
 781 167 781 167 781 261 c 0,36,37
 781 359 781 359 745.5 415.5 c 128,-1,38
 710 472 710 472 641 472 c 0,28,29
288 472 m 0,39,40
 219 472 219 472 185.5 416 c 128,-1,41
 152 360 152 360 152 264 c 0,42,43
 152 167 152 167 185.5 111.5 c 128,-1,44
 219 56 219 56 288 56 c 0,45,46
 354 56 354 56 388 111 c 128,-1,47
 422 166 422 166 422 261 c 0,48,49
 422 360 422 360 388.5 416 c 128,-1,50
 355 472 355 472 288 472 c 0,39,40
EndSplineSet
EndChar

StartChar: afii10088
Encoding: 1094 1094 190
Width: 591
GlyphClass: 2
Flags: HW
LayerCount: 2
Fore
SplineSet
72 0 m 1,0,-1
 72 537 l 1,1,-1
 158 537 l 1,2,-1
 158 78 l 1,3,-1
 413 78 l 1,4,-1
 413 537 l 1,5,-1
 499 537 l 1,6,-1
 499 66 l 1,7,-1
 561 66 l 1,8,-1
 561 -123 l 1,9,-1
 489 -123 l 1,10,-1
 489 0 l 1,11,-1
 72 0 l 1,0,-1
EndSplineSet
EndChar

StartChar: afii10089
Encoding: 1095 1095 191
Width: 532
GlyphClass: 2
Flags: HW
LayerCount: 2
Fore
SplineSet
72 537 m 1,0,-1
 158 537 l 1,1,-1
 158 335 l 2,2,3
 158 309 158 309 175.5 296.5 c 128,-1,4
 193 284 193 284 217 284 c 2,5,-1
 375 284 l 1,6,-1
 375 537 l 1,7,-1
 461 537 l 1,8,-1
 461 0 l 1,9,-1
 375 0 l 1,10,-1
 375 206 l 1,11,-1
 220 206 l 2,12,13
 160 206 160 206 116 239.5 c 128,-1,14
 72 273 72 273 72 332 c 2,15,-1
 72 537 l 1,0,-1
EndSplineSet
EndChar

StartChar: afii10090
Encoding: 1096 1096 192
Width: 708
GlyphClass: 2
Flags: HW
LayerCount: 2
Fore
SplineSet
397 78 m 1,0,-1
 551 78 l 1,1,-1
 551 537 l 1,2,-1
 637 537 l 1,3,-1
 637 0 l 1,4,-1
 72 0 l 1,5,-1
 72 537 l 1,6,-1
 158 537 l 1,7,-1
 158 78 l 1,8,-1
 311 78 l 1,9,-1
 311 537 l 1,10,-1
 397 537 l 1,11,-1
 397 78 l 1,0,-1
EndSplineSet
EndChar

StartChar: afii10091
Encoding: 1097 1097 193
Width: 729
GlyphClass: 2
Flags: HW
LayerCount: 2
Fore
SplineSet
627 0 m 1,0,-1
 72 0 l 1,1,-1
 72 537 l 1,2,-1
 158 537 l 1,3,-1
 158 78 l 1,4,-1
 311 78 l 1,5,-1
 311 537 l 1,6,-1
 397 537 l 1,7,-1
 397 78 l 1,8,-1
 551 78 l 1,9,-1
 551 537 l 1,10,-1
 637 537 l 1,11,-1
 637 66 l 1,12,-1
 698 66 l 1,13,-1
 698 -123 l 1,14,-1
 627 -123 l 1,15,-1
 627 0 l 1,0,-1
EndSplineSet
EndChar

StartChar: afii10092
Encoding: 1098 1098 194
Width: 751
GlyphClass: 2
Flags: HW
LayerCount: 2
Fore
SplineSet
246 0 m 1,0,-1
 246 459 l 1,1,-1
 58 459 l 1,2,-1
 58 537 l 1,3,-1
 332 537 l 1,4,-1
 332 349 l 1,5,-1
 447 349 l 1,6,-1
 451 349 l 2,7,8
 562 349 562 349 615.5 302.5 c 128,-1,9
 669 256 669 256 669 171 c 0,10,11
 669 96 669 96 620.5 48 c 128,-1,12
 572 0 572 0 498 0 c 2,13,-1
 246 0 l 1,0,-1
332 78 m 1,14,-1
 459 78 l 2,15,16
 527 78 527 78 551 102 c 128,-1,17
 575 126 575 126 575 168 c 0,18,19
 575 222 575 222 546.5 246.5 c 128,-1,20
 518 271 518 271 459 271 c 2,21,-1
 332 271 l 1,22,-1
 332 78 l 1,14,-1
EndSplineSet
EndChar

StartChar: afii10093
Encoding: 1099 1099 195
Width: 706
GlyphClass: 2
Flags: HW
LayerCount: 2
Fore
SplineSet
158 537 m 1,0,-1
 158 349 l 1,1,-1
 273 349 l 1,2,-1
 276 349 l 2,3,4
 387 349 387 349 441 302.5 c 128,-1,5
 495 256 495 256 495 171 c 0,6,7
 495 96 495 96 446.5 48 c 128,-1,8
 398 0 398 0 324 0 c 2,9,-1
 72 0 l 1,10,-1
 72 537 l 1,11,-1
 158 537 l 1,0,-1
158 78 m 1,12,-1
 285 78 l 2,13,14
 353 78 353 78 377 102 c 128,-1,15
 401 126 401 126 401 168 c 0,16,17
 401 222 401 222 372.5 246.5 c 128,-1,18
 344 271 344 271 285 271 c 2,19,-1
 158 271 l 1,20,-1
 158 78 l 1,12,-1
635 537 m 1,21,-1
 635 0 l 1,22,-1
 550 0 l 1,23,-1
 550 537 l 1,24,-1
 635 537 l 1,21,-1
EndSplineSet
EndChar

StartChar: afii10094
Encoding: 1100 1100 196
Width: 565
GlyphClass: 2
Flags: HW
LayerCount: 2
Fore
SplineSet
158 537 m 1,0,-1
 158 349 l 1,1,-1
 273 349 l 1,2,-1
 276 349 l 2,3,4
 387 349 387 349 441 302.5 c 128,-1,5
 495 256 495 256 495 171 c 0,6,7
 495 96 495 96 446.5 48 c 128,-1,8
 398 0 398 0 324 0 c 2,9,-1
 72 0 l 1,10,-1
 72 537 l 1,11,-1
 158 537 l 1,0,-1
158 78 m 1,12,-1
 285 78 l 2,13,14
 353 78 353 78 377 102 c 128,-1,15
 401 126 401 126 401 168 c 0,16,17
 401 222 401 222 372.5 246.5 c 128,-1,18
 344 271 344 271 285 271 c 2,19,-1
 158 271 l 1,20,-1
 158 78 l 1,12,-1
EndSplineSet
EndChar

StartChar: afii10095
Encoding: 1101 1101 197
Width: 512
GlyphClass: 2
Flags: HW
LayerCount: 2
Fore
SplineSet
38 356 m 1,0,1
 45 450 45 450 101 501 c 128,-1,2
 157 552 157 552 250 552 c 0,3,4
 359 552 359 552 423.5 472 c 128,-1,5
 488 392 488 392 488 259 c 0,6,7
 488 129 488 129 424 52.5 c 128,-1,8
 360 -24 360 -24 251 -24 c 0,9,10
 155 -24 155 -24 97.5 31 c 128,-1,11
 40 86 40 86 32 184 c 1,12,-1
 118 184 l 1,13,14
 140 55 140 55 249 55 c 0,15,16
 316 55 316 55 355 103.5 c 128,-1,17
 394 152 394 152 399 238 c 1,18,-1
 167 238 l 1,19,-1
 167 316 l 1,20,-1
 396 316 l 1,21,22
 385 391 385 391 347.5 432 c 128,-1,23
 310 473 310 473 251 473 c 0,24,25
 198 473 198 473 165 443 c 128,-1,26
 132 413 132 413 124 356 c 1,27,-1
 38 356 l 1,0,1
EndSplineSet
EndChar

StartChar: afii10096
Encoding: 1102 1102 198
Width: 776
GlyphClass: 2
Flags: HW
LayerCount: 2
Fore
SplineSet
256 316 m 1,0,1
 256 334 256 334 261 359.5 c 128,-1,2
 266 385 266 385 282.5 420 c 128,-1,3
 299 455 299 455 324 483.5 c 128,-1,4
 349 512 349 512 393.5 532 c 128,-1,5
 438 552 438 552 495 552 c 0,6,7
 611 552 611 552 674.5 475.5 c 128,-1,8
 738 399 738 399 738 260 c 0,9,10
 738 128 738 128 673 52 c 128,-1,11
 608 -24 608 -24 496 -24 c 0,12,13
 440 -24 440 -24 395 -4.5 c 128,-1,14
 350 15 350 15 324.5 44 c 128,-1,15
 299 73 299 73 282 109.5 c 128,-1,16
 265 146 265 146 259.5 178 c 128,-1,17
 254 210 254 210 254 239 c 1,18,-1
 158 239 l 1,19,-1
 158 0 l 1,20,-1
 72 0 l 1,21,-1
 72 537 l 1,22,-1
 158 537 l 1,23,-1
 158 316 l 1,24,-1
 256 316 l 1,0,1
496 473 m 0,25,26
 424 473 424 473 383 417 c 128,-1,27
 342 361 342 361 342 264 c 128,-1,28
 342 167 342 167 383 111 c 128,-1,29
 424 55 424 55 496 55 c 0,30,31
 567 55 567 55 608 111 c 128,-1,32
 649 167 649 167 649 261 c 0,33,34
 649 360 649 360 609 416.5 c 128,-1,35
 569 473 569 473 496 473 c 0,25,26
EndSplineSet
EndChar

StartChar: afii10097
Encoding: 1103 1103 199
Width: 556
GlyphClass: 2
Flags: HW
LayerCount: 2
Fore
SplineSet
72 384 m 0,0,1
 72 409 72 409 79 433 c 128,-1,2
 86 457 86 457 103 481.5 c 128,-1,3
 120 506 120 506 152.5 521.5 c 128,-1,4
 185 537 185 537 230 537 c 2,5,-1
 484 537 l 1,6,-1
 484 0 l 1,7,-1
 398 0 l 1,8,-1
 398 223 l 1,9,-1
 328 223 l 1,10,-1
 120 0 l 1,11,-1
 14 0 l 1,12,-1
 224 226 l 1,13,14
 155 232 155 232 113.5 271 c 128,-1,15
 72 310 72 310 72 384 c 0,0,1
165 373 m 2,16,17
 165 301 165 301 258 301 c 2,18,-1
 398 301 l 1,19,-1
 398 460 l 1,20,-1
 258 460 l 2,21,22
 215 460 215 460 190 438 c 128,-1,23
 165 416 165 416 165 379 c 2,24,-1
 165 373 l 2,16,17
EndSplineSet
EndChar

StartChar: afii10099
Encoding: 1106 1106 202
Width: 581
GlyphClass: 2
Flags: HW
LayerCount: 2
Fore
SplineSet
444 356 m 2,0,1
 444 412 444 412 410.5 437 c 128,-1,2
 377 462 377 462 334 462 c 0,3,4
 266 462 266 462 227.5 411.5 c 128,-1,5
 189 361 189 361 189 282 c 2,6,-1
 189 0 l 1,7,-1
 104 0 l 1,8,-1
 104 610 l 1,9,-1
 18 610 l 1,10,-1
 18 676 l 1,11,-1
 104 676 l 1,12,-1
 104 746 l 1,13,-1
 189 746 l 1,14,-1
 189 676 l 1,15,-1
 365 676 l 1,16,-1
 365 610 l 1,17,-1
 189 610 l 1,18,-1
 189 447 l 1,19,20
 202 463 202 463 211.5 473.5 c 128,-1,21
 221 484 221 484 242.5 501 c 128,-1,22
 264 518 264 518 294.5 527.5 c 128,-1,23
 325 537 325 537 360 537 c 0,24,25
 437 537 437 537 483 499 c 128,-1,26
 529 461 529 461 529 391 c 2,27,-1
 529 109 l 2,28,29
 529 44 529 44 501 -11 c 128,-1,30
 473 -66 473 -66 432 -98.5 c 128,-1,31
 391 -131 391 -131 350 -149 c 128,-1,32
 309 -167 309 -167 279 -167 c 0,33,34
 269 -167 269 -167 264 -166 c 1,35,-1
 264 -125 l 1,36,37
 318 -123 318 -123 381 -59.5 c 128,-1,38
 444 4 444 4 444 98 c 2,39,-1
 444 356 l 2,0,1
EndSplineSet
EndChar

StartChar: afii10101
Encoding: 1108 1108 204
Width: 512
GlyphClass: 2
Flags: HW
LayerCount: 2
Fore
SplineSet
352 238 m 1,0,-1
 121 238 l 1,1,2
 126 152 126 152 165.5 103.5 c 128,-1,3
 205 55 205 55 271 55 c 0,4,5
 381 55 381 55 402 184 c 1,6,-1
 488 184 l 1,7,8
 480 86 480 86 423 31 c 128,-1,9
 366 -24 366 -24 269 -24 c 0,10,11
 159 -24 159 -24 95.5 52.5 c 128,-1,12
 32 129 32 129 32 259 c 0,13,14
 32 392 32 392 97 472 c 128,-1,15
 162 552 162 552 270 552 c 0,16,17
 363 552 363 552 419 502 c 128,-1,18
 475 452 475 452 482 356 c 1,19,-1
 396 356 l 1,20,21
 388 412 388 412 355.5 442.5 c 128,-1,22
 323 473 323 473 269 473 c 0,23,24
 210 473 210 473 172.5 432 c 128,-1,25
 135 391 135 391 124 316 c 1,26,-1
 352 316 l 1,27,-1
 352 238 l 1,0,-1
EndSplineSet
EndChar

StartChar: afii10106
Encoding: 1113 1113 209
Width: 860
GlyphClass: 2
Flags: HW
LayerCount: 2
Fore
SplineSet
72 82 m 1,0,1
 104 82 104 82 119.5 104.5 c 128,-1,2
 135 127 135 127 143.5 198 c 128,-1,3
 152 269 152 269 152 413 c 2,4,-1
 152 537 l 1,5,-1
 499 537 l 1,6,-1
 499 317 l 1,7,-1
 614 317 l 2,8,9
 726 317 726 317 781 283 c 128,-1,10
 836 249 836 249 836 159 c 0,11,12
 836 88 836 88 786 44 c 128,-1,13
 736 0 736 0 665 0 c 2,14,-1
 413 0 l 1,15,-1
 413 459 l 1,16,-1
 237 459 l 1,17,-1
 237 359 l 2,18,19
 237 216 237 216 217 135.5 c 128,-1,20
 197 55 197 55 163 27.5 c 128,-1,21
 129 0 129 0 72 0 c 1,22,-1
 72 82 l 1,0,1
626 240 m 2,23,-1
 499 240 l 1,24,-1
 499 78 l 1,25,-1
 626 78 l 2,26,27
 685 78 685 78 713.5 94 c 128,-1,28
 742 110 742 110 742 155 c 0,29,30
 742 199 742 199 717.5 219.5 c 128,-1,31
 693 240 693 240 626 240 c 2,23,-1
EndSplineSet
EndChar

StartChar: afii10107
Encoding: 1114 1114 210
Width: 870
GlyphClass: 2
Flags: HW
LayerCount: 2
Fore
SplineSet
666 0 m 2,0,-1
 414 0 l 1,1,-1
 414 239 l 1,2,-1
 158 239 l 1,3,-1
 158 0 l 1,4,-1
 72 0 l 1,5,-1
 72 537 l 1,6,-1
 158 537 l 1,7,-1
 158 316 l 1,8,-1
 414 316 l 1,9,-1
 414 537 l 1,10,-1
 500 537 l 1,11,-1
 500 317 l 1,12,-1
 615 317 l 2,13,14
 727 317 727 317 782 283.5 c 128,-1,15
 837 250 837 250 837 160 c 0,16,17
 837 89 837 89 787 44.5 c 128,-1,18
 737 0 737 0 666 0 c 2,0,-1
627 240 m 2,19,-1
 500 240 l 1,20,-1
 500 78 l 1,21,-1
 627 78 l 2,22,23
 687 78 687 78 715 93.5 c 128,-1,24
 743 109 743 109 743 156 c 0,25,26
 743 198 743 198 718 219 c 128,-1,27
 693 240 693 240 627 240 c 2,19,-1
EndSplineSet
EndChar

StartChar: afii10108
Encoding: 1115 1115 211
Width: 581
GlyphClass: 2
Flags: HW
LayerCount: 2
Fore
SplineSet
444 356 m 2,0,1
 444 412 444 412 410.5 437 c 128,-1,2
 377 462 377 462 334 462 c 0,3,4
 266 462 266 462 227.5 411.5 c 128,-1,5
 189 361 189 361 189 282 c 2,6,-1
 189 0 l 1,7,-1
 104 0 l 1,8,-1
 104 610 l 1,9,-1
 18 610 l 1,10,-1
 18 676 l 1,11,-1
 104 676 l 1,12,-1
 104 746 l 1,13,-1
 189 746 l 1,14,-1
 189 676 l 1,15,-1
 365 676 l 1,16,-1
 365 610 l 1,17,-1
 189 610 l 1,18,-1
 189 447 l 1,19,20
 202 463 202 463 211.5 473.5 c 128,-1,21
 221 484 221 484 242.5 501 c 128,-1,22
 264 518 264 518 294.5 527.5 c 128,-1,23
 325 537 325 537 360 537 c 0,24,25
 437 537 437 537 483 499 c 128,-1,26
 529 461 529 461 529 391 c 2,27,-1
 529 0 l 1,28,-1
 444 0 l 1,29,-1
 444 356 l 2,0,1
EndSplineSet
EndChar

StartChar: afii10193
Encoding: 1119 1119 215
Width: 569
GlyphClass: 2
Flags: HW
LayerCount: 2
Fore
SplineSet
322 0 m 1,0,-1
 322 -123 l 1,1,-1
 250 -123 l 1,2,-1
 250 0 l 1,3,-1
 72 0 l 1,4,-1
 72 537 l 1,5,-1
 158 537 l 1,6,-1
 158 78 l 1,7,-1
 414 78 l 1,8,-1
 414 537 l 1,9,-1
 500 537 l 1,10,-1
 500 0 l 1,11,-1
 322 0 l 1,0,-1
EndSplineSet
EndChar

StartChar: afii10195
Encoding: 1139 1139 217
Width: 569
GlyphClass: 2
Flags: HW
LayerCount: 2
Fore
SplineSet
279 552 m 0,0,1
 395 552 395 552 458.5 475.5 c 128,-1,2
 522 399 522 399 522 260 c 0,3,4
 522 128 522 128 457 52 c 128,-1,5
 392 -24 392 -24 280 -24 c 0,6,7
 165 -24 165 -24 101 52.5 c 128,-1,8
 37 129 37 129 37 264 c 128,-1,9
 37 399 37 399 101.5 475.5 c 128,-1,10
 166 552 166 552 279 552 c 0,0,1
280 473 m 0,11,12
 208 473 208 473 167 417 c 128,-1,13
 126 361 126 361 126 264 c 128,-1,14
 126 167 126 167 167 111 c 128,-1,15
 208 55 208 55 280 55 c 0,16,17
 351 55 351 55 392 111 c 128,-1,18
 433 167 433 167 433 261 c 0,19,20
 433 360 433 360 393 416.5 c 128,-1,21
 353 473 353 473 280 473 c 0,11,12
214 309 m 0,22,23
 238 309 238 309 278 291.5 c 128,-1,24
 318 274 318 274 337 274 c 0,25,26
 360 274 360 274 371 309 c 1,27,-1
 424 309 l 1,28,29
 411 213 411 213 342 213 c 0,30,31
 325 213 325 213 278 230.5 c 128,-1,32
 231 248 231 248 219 248 c 0,33,34
 197 248 197 248 188 214 c 1,35,-1
 135 214 l 1,36,37
 142 260 142 260 162.5 284.5 c 128,-1,38
 183 309 183 309 214 309 c 0,22,23
EndSplineSet
EndChar

StartChar: uni048C
Encoding: 1164 1164 218
Width: 683
GlyphClass: 2
Flags: HW
LayerCount: 2
Fore
SplineSet
543 212 m 0,0,1
 543 262 543 262 512 301.5 c 128,-1,2
 481 341 481 341 409 341 c 2,3,-1
 176 341 l 1,4,-1
 176 84 l 1,5,-1
 409 84 l 2,6,7
 459 84 459 84 490.5 106 c 128,-1,8
 522 128 522 128 532.5 154.5 c 128,-1,9
 543 181 543 181 543 212 c 0,0,1
638 213 m 1,10,11
 638 117 638 117 577.5 58.5 c 128,-1,12
 517 0 517 0 418 0 c 2,13,-1
 81 0 l 1,14,-1
 81 552 l 1,15,-1
 -10 552 l 1,16,-1
 -10 624 l 1,17,-1
 81 624 l 1,18,-1
 81 746 l 1,19,-1
 176 746 l 1,20,-1
 176 624 l 1,21,-1
 270 624 l 1,22,-1
 270 552 l 1,23,-1
 176 552 l 1,24,-1
 176 425 l 1,25,-1
 360 425 l 2,26,27
 612 425 612 425 638 213 c 1,10,11
EndSplineSet
EndChar

StartChar: uni048D
Encoding: 1165 1165 219
Width: 565
GlyphClass: 2
Flags: HW
LayerCount: 2
Fore
SplineSet
407 157 m 2,0,1
 407 237 407 237 313 237 c 2,2,-1
 158 237 l 1,3,-1
 158 78 l 1,4,-1
 313 78 l 2,5,6
 364 78 364 78 385.5 104 c 128,-1,7
 407 130 407 130 407 151 c 2,8,-1
 407 157 l 2,0,1
500 154 m 0,9,10
 500 85 500 85 456.5 42.5 c 128,-1,11
 413 0 413 0 341 0 c 2,12,-1
 72 0 l 1,13,-1
 72 391 l 1,14,-1
 8 391 l 1,15,-1
 8 463 l 1,16,-1
 72 463 l 1,17,-1
 72 537 l 1,18,-1
 158 537 l 1,19,-1
 158 463 l 1,20,-1
 231 463 l 1,21,-1
 231 391 l 1,22,-1
 158 391 l 1,23,-1
 158 314 l 1,24,-1
 279 314 l 2,25,26
 394 314 394 314 447 275.5 c 128,-1,27
 500 237 500 237 500 154 c 0,9,10
EndSplineSet
EndChar

StartChar: uni048E
Encoding: 1166 1166 220
Width: 683
GlyphClass: 2
Flags: HW
LayerCount: 2
Fore
SplineSet
501 442 m 1,0,1
 533 476 533 476 532 531 c 0,2,3
 532 592 532 592 494 627.5 c 128,-1,4
 456 663 456 663 387 663 c 2,5,-1
 188 663 l 1,6,-1
 188 400 l 1,7,-1
 387 400 l 2,8,9
 412 400 412 400 435 406 c 1,10,-1
 380 461 l 1,11,-1
 431 512 l 1,12,-1
 501 442 l 1,0,1
509 333 m 1,13,14
 472 317 472 317 423 316 c 2,15,-1
 188 316 l 1,16,-1
 188 0 l 1,17,-1
 93 0 l 1,18,-1
 93 746 l 1,19,-1
 401 746 l 2,20,21
 512 746 512 746 572 689.5 c 128,-1,22
 632 633 632 633 632 527 c 0,23,24
 632 430 632 430 570 373 c 1,25,-1
 630 313 l 1,26,-1
 579 262 l 1,27,-1
 509 333 l 1,13,14
EndSplineSet
EndChar

StartChar: uni048F
Encoding: 1167 1167 221
Width: 569
GlyphClass: 2
Flags: HW
LayerCount: 2
Fore
SplineSet
408 118 m 1,0,1
 447 174 447 174 446 261 c 0,2,3
 446 357 446 357 403.5 414.5 c 128,-1,4
 361 472 361 472 291 472 c 0,5,6
 223 472 223 472 182 415 c 128,-1,7
 141 358 141 358 141 264 c 128,-1,8
 141 170 141 170 182 113 c 128,-1,9
 223 56 223 56 291 56 c 0,10,11
 325 56 325 56 353 71 c 1,12,-1
 288 136 l 1,13,-1
 338 187 l 1,14,-1
 408 118 l 1,0,1
472 53 m 1,15,-1
 537 -11 l 1,16,-1
 486 -62 l 1,17,-1
 418 6 l 1,18,19
 370 -24 370 -24 306 -24 c 0,20,21
 207 -24 207 -24 141 56 c 1,22,-1
 141 -223 l 1,23,-1
 55 -223 l 1,24,-1
 55 537 l 1,25,-1
 134 537 l 1,26,-1
 134 456 l 1,27,28
 194 552 194 552 305 552 c 0,29,30
 411 552 411 552 473.5 473 c 128,-1,31
 536 394 536 394 536 259 c 0,32,33
 535 129 535 129 472 53 c 1,15,-1
EndSplineSet
EndChar

StartChar: afii10050
Encoding: 1168 1168 222
Width: 625
GlyphClass: 2
Flags: HW
LayerCount: 2
Fore
SplineSet
187 0 m 1,0,-1
 92 0 l 1,1,-1
 92 746 l 1,2,-1
 498 746 l 1,3,-1
 498 845 l 1,4,-1
 593 845 l 1,5,-1
 593 663 l 1,6,-1
 187 663 l 1,7,-1
 187 0 l 1,0,-1
EndSplineSet
EndChar

StartChar: afii10098
Encoding: 1169 1169 223
Width: 440
GlyphClass: 2
Flags: HW
LayerCount: 2
Fore
SplineSet
72 537 m 1,0,-1
 288 537 l 1,1,-1
 288 644 l 1,2,-1
 374 644 l 1,3,-1
 374 459 l 1,4,-1
 158 459 l 1,5,-1
 158 0 l 1,6,-1
 72 0 l 1,7,-1
 72 537 l 1,0,-1
EndSplineSet
EndChar

StartChar: uni0492
Encoding: 1170 1170 224
Width: 625
GlyphClass: 2
Flags: HW
LayerCount: 2
Fore
SplineSet
176 505 m 1,0,-1
 285 505 l 1,1,-1
 285 433 l 1,2,-1
 176 433 l 1,3,-1
 176 0 l 1,4,-1
 81 0 l 1,5,-1
 81 433 l 1,6,-1
 4 433 l 1,7,-1
 4 505 l 1,8,-1
 81 505 l 1,9,-1
 81 746 l 1,10,-1
 582 746 l 1,11,-1
 582 663 l 1,12,-1
 176 663 l 1,13,-1
 176 505 l 1,0,-1
EndSplineSet
EndChar

StartChar: uni0493
Encoding: 1171 1171 225
Width: 440
GlyphClass: 2
Flags: HW
LayerCount: 2
Fore
SplineSet
72 336 m 1,0,-1
 72 537 l 1,1,-1
 389 537 l 1,2,-1
 389 459 l 1,3,-1
 158 459 l 1,4,-1
 158 336 l 1,5,-1
 227 336 l 1,6,-1
 227 264 l 1,7,-1
 158 264 l 1,8,-1
 158 0 l 1,9,-1
 72 0 l 1,10,-1
 72 264 l 1,11,-1
 8 264 l 1,12,-1
 8 336 l 1,13,-1
 72 336 l 1,0,-1
EndSplineSet
EndChar

StartChar: uni0494
Encoding: 1172 1172 226
Width: 625
GlyphClass: 2
Flags: HW
LayerCount: 2
Fore
SplineSet
187 0 m 1,0,-1
 92 0 l 1,1,-1
 92 746 l 1,2,-1
 593 746 l 1,3,-1
 593 663 l 1,4,-1
 187 663 l 1,5,-1
 187 480 l 1,6,-1
 364 480 l 2,7,8
 458 480 458 480 505.5 428 c 128,-1,9
 553 376 553 376 553 284 c 2,10,-1
 553 18 l 2,11,12
 553 -74 553 -74 505.5 -126 c 128,-1,13
 458 -178 458 -178 364 -178 c 2,14,-1
 310 -178 l 1,15,-1
 310 -94 l 1,16,-1
 359 -94 l 2,17,18
 403 -94 403 -94 430.5 -70 c 128,-1,19
 458 -46 458 -46 458 0 c 2,20,-1
 458 302 l 2,21,22
 458 348 458 348 430.5 372 c 128,-1,23
 403 396 403 396 359 396 c 2,24,-1
 187 396 l 1,25,-1
 187 0 l 1,0,-1
EndSplineSet
EndChar

StartChar: uni0495
Encoding: 1173 1173 227
Width: 501
GlyphClass: 2
Flags: HW
LayerCount: 2
Fore
SplineSet
242 -72 m 1,0,1
 284 -72 284 -72 318 -47.5 c 128,-1,2
 352 -23 352 -23 352 34 c 2,3,-1
 352 178 l 2,4,5
 352 236 352 236 333.5 260 c 128,-1,6
 315 284 315 284 272 284 c 0,7,8
 210 284 210 284 184 237 c 128,-1,9
 158 190 158 190 158 102 c 2,10,-1
 158 0 l 1,11,-1
 72 0 l 1,12,-1
 72 537 l 1,13,-1
 374 537 l 1,14,-1
 374 459 l 1,15,-1
 158 459 l 1,16,-1
 158 269 l 1,17,18
 174 318 174 318 207.5 338 c 128,-1,19
 241 358 241 358 299 358 c 0,20,21
 374 358 374 358 405.5 321 c 128,-1,22
 437 284 437 284 437 212 c 2,23,-1
 437 0 l 2,24,25
 437 -68 437 -68 391.5 -107 c 128,-1,26
 346 -146 346 -146 268 -146 c 2,27,-1
 242 -146 l 1,28,-1
 242 -72 l 1,0,1
EndSplineSet
EndChar

StartChar: uni0496
Encoding: 1174 1174 228
Width: 1047
GlyphClass: 2
Flags: HW
LayerCount: 2
Fore
SplineSet
905 76 m 1,0,-1
 971 76 l 1,1,-1
 971 -138 l 1,2,-1
 889 -138 l 1,3,-1
 889 0 l 1,4,-1
 858 0 l 1,5,-1
 565 332 l 1,6,-1
 565 0 l 1,7,-1
 470 0 l 1,8,-1
 470 332 l 1,9,-1
 177 0 l 1,10,-1
 65 0 l 1,11,-1
 397 384 l 1,12,-1
 103 746 l 1,13,-1
 226 746 l 1,14,-1
 470 431 l 1,15,-1
 470 746 l 1,16,-1
 565 746 l 1,17,-1
 565 431 l 1,18,-1
 809 746 l 1,19,-1
 932 746 l 1,20,-1
 638 384 l 1,21,-1
 905 76 l 1,0,-1
EndSplineSet
EndChar

StartChar: uni0497
Encoding: 1175 1175 229
Width: 857
GlyphClass: 2
Flags: HW
LayerCount: 2
Fore
SplineSet
763 66 m 1,0,-1
 839 66 l 1,1,-1
 839 -123 l 1,2,-1
 767 -123 l 1,3,-1
 767 0 l 1,4,-1
 733 0 l 1,5,-1
 469 221 l 1,6,-1
 469 0 l 1,7,-1
 384 0 l 1,8,-1
 384 221 l 1,9,-1
 120 0 l 1,10,-1
 14 0 l 1,11,-1
 326 270 l 1,12,-1
 47 537 l 1,13,-1
 157 537 l 1,14,-1
 384 309 l 1,15,-1
 384 537 l 1,16,-1
 469 537 l 1,17,-1
 469 309 l 1,18,-1
 696 537 l 1,19,-1
 806 537 l 1,20,-1
 527 270 l 1,21,-1
 763 66 l 1,0,-1
EndSplineSet
EndChar

StartChar: uni0498
Encoding: 1176 1176 230
Width: 683
GlyphClass: 2
Flags: HW
LayerCount: 2
Fore
SplineSet
636 205 m 0,0,1
 636 111 636 111 570.5 49.5 c 128,-1,2
 505 -12 505 -12 384 -23 c 1,3,4
 439 -58 439 -58 439 -114 c 0,5,6
 439 -157 439 -157 400 -183.5 c 128,-1,7
 361 -210 361 -210 304 -210 c 0,8,9
 275 -210 275 -210 226 -200 c 1,10,-1
 226 -154 l 1,11,12
 253 -164 253 -164 291 -164 c 0,13,14
 365 -164 365 -164 365 -109 c 0,15,16
 365 -82 365 -82 352 -63 c 128,-1,17
 339 -44 339 -44 305 -23 c 1,18,19
 185 -13 185 -13 117.5 53 c 128,-1,20
 50 119 50 119 49 238 c 1,21,-1
 139 238 l 1,22,-1
 139 232 l 2,23,24
 139 200 139 200 149 172.5 c 128,-1,25
 159 145 159 145 181 118.5 c 128,-1,26
 203 92 203 92 246.5 76 c 128,-1,27
 290 60 290 60 350 60 c 0,28,29
 407 60 407 60 447 73.5 c 128,-1,30
 487 87 487 87 506 108.5 c 128,-1,31
 525 130 525 130 533 151 c 128,-1,32
 541 172 541 172 541 196 c 0,33,34
 541 243 541 243 491.5 286 c 128,-1,35
 442 329 442 329 374 329 c 2,36,-1
 263 329 l 1,37,-1
 263 413 l 1,38,-1
 353 413 l 2,39,40
 418 413 418 413 466.5 459.5 c 128,-1,41
 515 506 515 506 515 553 c 0,42,43
 515 609 515 609 469.5 644 c 128,-1,44
 424 679 424 679 348 679 c 0,45,46
 259 679 259 679 211 639.5 c 128,-1,47
 163 600 163 600 162 527 c 1,48,-1
 72 527 l 1,49,50
 73 637 73 637 144.5 698 c 128,-1,51
 216 759 216 759 345 759 c 0,52,53
 468 759 468 759 539 700 c 128,-1,54
 610 641 610 641 610 540 c 0,55,56
 610 429 610 429 503 383 c 1,57,58
 636 333 636 333 636 205 c 0,0,1
EndSplineSet
EndChar

StartChar: uni0499
Encoding: 1177 1177 231
Width: 512
GlyphClass: 2
Flags: HW
LayerCount: 2
Fore
SplineSet
125 160 m 1,0,1
 131 112 131 112 158 83.5 c 128,-1,2
 185 55 185 55 256 55 c 0,3,4
 311 55 311 55 344 78 c 128,-1,5
 377 101 377 101 377 139 c 0,6,7
 377 171 377 171 346.5 198.5 c 128,-1,8
 316 226 316 226 272 226 c 2,9,-1
 197 226 l 1,10,-1
 197 304 l 1,11,-1
 260 304 l 2,12,13
 309 304 309 304 334 331 c 128,-1,14
 359 358 359 358 359 392 c 0,15,16
 359 429 359 429 328.5 451 c 128,-1,17
 298 473 298 473 246 473 c 0,18,19
 142 473 142 473 138 387 c 1,20,-1
 48 387 l 1,21,22
 49 466 49 466 99.5 509 c 128,-1,23
 150 552 150 552 243 552 c 128,-1,24
 336 552 336 552 392.5 507.5 c 128,-1,25
 449 463 449 463 449 388 c 0,26,27
 449 311 449 311 382 273 c 1,28,29
 470 234 470 234 470 146 c 0,30,31
 470 76 470 76 421.5 31.5 c 128,-1,32
 373 -13 373 -13 288 -22 c 1,33,34
 343 -60 343 -60 343 -114 c 0,35,36
 343 -157 343 -157 304 -183.5 c 128,-1,37
 265 -210 265 -210 208 -210 c 0,38,39
 179 -210 179 -210 130 -200 c 1,40,-1
 130 -154 l 1,41,42
 157 -164 157 -164 195 -164 c 0,43,44
 269 -164 269 -164 268 -109 c 0,45,46
 268 -82 268 -82 255 -62.5 c 128,-1,47
 242 -43 242 -43 208 -22 c 1,48,49
 41 -7 41 -7 35 160 c 1,50,-1
 125 160 l 1,0,1
EndSplineSet
EndChar

StartChar: uni049A
Encoding: 1178 1178 232
Width: 683
GlyphClass: 2
Flags: HW
LayerCount: 2
Fore
SplineSet
561 76 m 1,0,-1
 636 76 l 1,1,-1
 636 -138 l 1,2,-1
 554 -138 l 1,3,-1
 554 0 l 1,4,-1
 509 0 l 1,5,-1
 176 341 l 1,6,-1
 176 0 l 1,7,-1
 81 0 l 1,8,-1
 81 746 l 1,9,-1
 176 746 l 1,10,-1
 176 433 l 1,11,-1
 488 746 l 1,12,-1
 602 746 l 1,13,-1
 249 393 l 1,14,-1
 561 76 l 1,0,-1
EndSplineSet
EndChar

StartChar: uni049B
Encoding: 1179 1179 233
Width: 522
GlyphClass: 2
Flags: HW
LayerCount: 2
Fore
SplineSet
430 66 m 1,0,-1
 496 66 l 1,1,-1
 496 -123 l 1,2,-1
 424 -123 l 1,3,-1
 424 0 l 1,4,-1
 387 0 l 1,5,-1
 157 231 l 1,6,-1
 157 0 l 1,7,-1
 72 0 l 1,8,-1
 72 537 l 1,9,-1
 157 537 l 1,10,-1
 157 319 l 1,11,-1
 374 537 l 1,12,-1
 472 537 l 1,13,-1
 215 281 l 1,14,-1
 430 66 l 1,0,-1
EndSplineSet
EndChar

StartChar: uni049C
Encoding: 1180 1180 234
Width: 683
GlyphClass: 2
Flags: HW
LayerCount: 2
Fore
SplineSet
225 290 m 1,0,-1
 176 332 l 1,1,-1
 176 0 l 1,2,-1
 81 0 l 1,3,-1
 81 746 l 1,4,-1
 176 746 l 1,5,-1
 176 424 l 1,6,-1
 225 467 l 1,7,-1
 225 607 l 1,8,-1
 297 607 l 1,9,-1
 297 528 l 1,10,-1
 548 746 l 1,11,-1
 671 746 l 1,12,-1
 297 425 l 1,13,-1
 297 341 l 1,14,-1
 680 0 l 1,15,-1
 561 0 l 1,16,-1
 297 227 l 1,17,-1
 297 163 l 1,18,-1
 225 163 l 1,19,-1
 225 290 l 1,0,-1
EndSplineSet
EndChar

StartChar: uni049D
Encoding: 1181 1181 235
Width: 512
GlyphClass: 2
Flags: HW
LayerCount: 2
Fore
SplineSet
195 179 m 1,0,-1
 144 221 l 1,1,-1
 144 0 l 1,2,-1
 59 0 l 1,3,-1
 59 537 l 1,4,-1
 144 537 l 1,5,-1
 144 309 l 1,6,-1
 195 359 l 1,7,-1
 195 469 l 1,8,-1
 266 469 l 1,9,-1
 266 431 l 1,10,-1
 372 537 l 1,11,-1
 481 537 l 1,12,-1
 266 331 l 1,13,-1
 266 215 l 1,14,-1
 514 0 l 1,15,-1
 409 0 l 1,16,-1
 266 119 l 1,17,-1
 266 76 l 1,18,-1
 195 76 l 1,19,-1
 195 179 l 1,0,-1
EndSplineSet
EndChar

StartChar: uni049E
Encoding: 1182 1182 236
Width: 683
GlyphClass: 2
Flags: HW
LayerCount: 2
Fore
SplineSet
176 638 m 1,0,-1
 274 638 l 1,1,-1
 274 566 l 1,2,-1
 176 566 l 1,3,-1
 176 424 l 1,4,-1
 548 746 l 1,5,-1
 671 746 l 1,6,-1
 249 384 l 1,7,-1
 674 0 l 1,8,-1
 561 0 l 1,9,-1
 176 332 l 1,10,-1
 176 0 l 1,11,-1
 81 0 l 1,12,-1
 81 566 l 1,13,-1
 -6 566 l 1,14,-1
 -6 638 l 1,15,-1
 81 638 l 1,16,-1
 81 746 l 1,17,-1
 176 746 l 1,18,-1
 176 638 l 1,0,-1
EndSplineSet
EndChar

StartChar: uni049F
Encoding: 1183 1183 237
Width: 512
GlyphClass: 2
Flags: HW
LayerCount: 2
Fore
SplineSet
59 489 m 1,0,-1
 59 537 l 1,1,-1
 144 537 l 1,2,-1
 144 489 l 1,3,-1
 217 489 l 1,4,-1
 217 418 l 1,5,-1
 144 418 l 1,6,-1
 144 309 l 1,7,-1
 372 537 l 1,8,-1
 481 537 l 1,9,-1
 203 270 l 1,10,-1
 514 0 l 1,11,-1
 409 0 l 1,12,-1
 144 221 l 1,13,-1
 144 0 l 1,14,-1
 59 0 l 1,15,-1
 59 418 l 1,16,-1
 -2 418 l 1,17,-1
 -2 489 l 1,18,-1
 59 489 l 1,0,-1
EndSplineSet
EndChar

StartChar: uni04A0
Encoding: 1184 1184 238
Width: 921
GlyphClass: 2
Flags: HW
LayerCount: 2
Fore
SplineSet
319 663 m 1,0,-1
 83 663 l 1,1,-1
 83 746 l 1,2,-1
 415 746 l 1,3,-1
 415 424 l 1,4,-1
 786 746 l 1,5,-1
 909 746 l 1,6,-1
 487 384 l 1,7,-1
 912 0 l 1,8,-1
 800 0 l 1,9,-1
 415 332 l 1,10,-1
 415 0 l 1,11,-1
 319 0 l 1,12,-1
 319 663 l 1,0,-1
EndSplineSet
EndChar

StartChar: uni04A1
Encoding: 1185 1185 239
Width: 699
GlyphClass: 2
Flags: HW
LayerCount: 2
Fore
SplineSet
247 459 m 1,0,-1
 58 459 l 1,1,-1
 58 537 l 1,2,-1
 332 537 l 1,3,-1
 332 309 l 1,4,-1
 559 537 l 1,5,-1
 669 537 l 1,6,-1
 390 270 l 1,7,-1
 701 0 l 1,8,-1
 596 0 l 1,9,-1
 332 221 l 1,10,-1
 332 0 l 1,11,-1
 247 0 l 1,12,-1
 247 459 l 1,0,-1
EndSplineSet
EndChar

StartChar: uni04A2
Encoding: 1186 1186 240
Width: 739
GlyphClass: 2
Flags: HW
LayerCount: 2
Fore
SplineSet
659 76 m 1,0,-1
 728 76 l 1,1,-1
 728 -138 l 1,2,-1
 646 -138 l 1,3,-1
 646 0 l 1,4,-1
 563 0 l 1,5,-1
 563 340 l 1,6,-1
 181 340 l 1,7,-1
 181 0 l 1,8,-1
 85 0 l 1,9,-1
 85 746 l 1,10,-1
 180 746 l 1,11,-1
 180 424 l 1,12,-1
 563 424 l 1,13,-1
 563 746 l 1,14,-1
 659 746 l 1,15,-1
 659 76 l 1,0,-1
EndSplineSet
EndChar

StartChar: uni04A3
Encoding: 1187 1187 241
Width: 569
GlyphClass: 2
Flags: HW
LayerCount: 2
Fore
SplineSet
500 66 m 1,0,-1
 561 66 l 1,1,-1
 561 -123 l 1,2,-1
 489 -123 l 1,3,-1
 489 0 l 1,4,-1
 414 0 l 1,5,-1
 414 239 l 1,6,-1
 158 239 l 1,7,-1
 158 0 l 1,8,-1
 72 0 l 1,9,-1
 72 537 l 1,10,-1
 158 537 l 1,11,-1
 158 316 l 1,12,-1
 414 316 l 1,13,-1
 414 537 l 1,14,-1
 500 537 l 1,15,-1
 500 66 l 1,0,-1
EndSplineSet
EndChar

StartChar: uni04A4
Encoding: 1188 1188 242
Width: 1024
GlyphClass: 2
Flags: HW
LayerCount: 2
Fore
SplineSet
659 0 m 1,0,-1
 563 0 l 1,1,-1
 563 340 l 1,2,-1
 181 340 l 1,3,-1
 181 0 l 1,4,-1
 85 0 l 1,5,-1
 85 746 l 1,6,-1
 180 746 l 1,7,-1
 180 424 l 1,8,-1
 563 424 l 1,9,-1
 563 746 l 1,10,-1
 991 746 l 1,11,-1
 991 663 l 1,12,-1
 659 663 l 1,13,-1
 659 0 l 1,0,-1
EndSplineSet
EndChar

StartChar: uni04A5
Encoding: 1189 1189 243
Width: 782
GlyphClass: 2
Flags: HW
LayerCount: 2
Fore
SplineSet
500 0 m 1,0,-1
 414 0 l 1,1,-1
 414 239 l 1,2,-1
 158 239 l 1,3,-1
 158 0 l 1,4,-1
 72 0 l 1,5,-1
 72 537 l 1,6,-1
 158 537 l 1,7,-1
 158 316 l 1,8,-1
 414 316 l 1,9,-1
 414 537 l 1,10,-1
 716 537 l 1,11,-1
 716 459 l 1,12,-1
 500 459 l 1,13,-1
 500 0 l 1,0,-1
EndSplineSet
EndChar

StartChar: uni04A6
Encoding: 1190 1190 244
Width: 1086
GlyphClass: 2
Flags: HW
LayerCount: 2
Fore
SplineSet
659 746 m 1,0,-1
 659 480 l 1,1,-1
 836 480 l 2,2,3
 930 480 930 480 977.5 428 c 128,-1,4
 1025 376 1025 376 1025 284 c 2,5,-1
 1025 18 l 2,6,7
 1025 -74 1025 -74 977.5 -126 c 128,-1,8
 930 -178 930 -178 836 -178 c 2,9,-1
 782 -178 l 1,10,-1
 782 -94 l 1,11,-1
 831 -94 l 2,12,13
 875 -94 875 -94 902.5 -70 c 128,-1,14
 930 -46 930 -46 930 0 c 2,15,-1
 930 302 l 2,16,17
 930 348 930 348 903 372 c 128,-1,18
 876 396 876 396 831 396 c 2,19,-1
 659 396 l 1,20,-1
 659 0 l 1,21,-1
 563 0 l 1,22,-1
 563 663 l 1,23,-1
 181 663 l 1,24,-1
 181 0 l 1,25,-1
 85 0 l 1,26,-1
 85 746 l 1,27,-1
 659 746 l 1,0,-1
EndSplineSet
EndChar

StartChar: uni04A7
Encoding: 1191 1191 245
Width: 845
GlyphClass: 2
Flags: HW
LayerCount: 2
Fore
SplineSet
583 -72 m 1,0,1
 625 -72 625 -72 659 -47.5 c 128,-1,2
 693 -23 693 -23 693 34 c 2,3,-1
 693 178 l 2,4,5
 693 236 693 236 674.5 260 c 128,-1,6
 656 284 656 284 613 284 c 0,7,8
 551 284 551 284 525 237 c 128,-1,9
 499 190 499 190 499 102 c 2,10,-1
 499 0 l 1,11,-1
 413 0 l 1,12,-1
 413 459 l 1,13,-1
 158 459 l 1,14,-1
 158 0 l 1,15,-1
 72 0 l 1,16,-1
 72 537 l 1,17,-1
 499 537 l 1,18,-1
 499 269 l 1,19,20
 515 318 515 318 548.5 338 c 128,-1,21
 582 358 582 358 640 358 c 0,22,23
 715 358 715 358 746.5 321 c 128,-1,24
 778 284 778 284 778 212 c 2,25,-1
 778 0 l 2,26,27
 778 -68 778 -68 732.5 -107 c 128,-1,28
 687 -146 687 -146 609 -146 c 2,29,-1
 583 -146 l 1,30,-1
 583 -72 l 1,0,1
EndSplineSet
EndChar

StartChar: uni04AA
Encoding: 1194 1194 246
Width: 739
GlyphClass: 2
Flags: HW
LayerCount: 2
Fore
SplineSet
476 -114 m 0,0,1
 476 -157 476 -157 437 -183.5 c 128,-1,2
 398 -210 398 -210 341 -210 c 0,3,4
 312 -210 312 -210 263 -200 c 1,5,-1
 263 -154 l 1,6,7
 290 -164 290 -164 328 -164 c 0,8,9
 402 -164 402 -164 401 -109 c 0,10,11
 401 -82 401 -82 388 -62.5 c 128,-1,12
 375 -43 375 -43 341 -22 c 1,13,14
 267 -15 267 -15 211.5 19.5 c 128,-1,15
 156 54 156 54 126 97.5 c 128,-1,16
 96 141 96 141 77.5 196.5 c 128,-1,17
 59 252 59 252 54 291 c 128,-1,18
 49 330 49 330 49 365 c 0,19,20
 49 416 49 416 58 466 c 128,-1,21
 67 516 67 516 91.5 570.5 c 128,-1,22
 116 625 116 625 152 665.5 c 128,-1,23
 188 706 188 706 250 732.5 c 128,-1,24
 312 759 312 759 390 759 c 0,25,26
 634 759 634 759 678 515 c 1,27,-1
 581 515 l 1,28,29
 565 595 565 595 516.5 635 c 128,-1,30
 468 675 468 675 379 675 c 0,31,32
 270 675 270 675 207 592 c 128,-1,33
 144 509 144 509 144 366 c 0,34,35
 144 226 144 226 209.5 143 c 128,-1,36
 275 60 275 60 387 60 c 0,37,38
 479 60 479 60 528.5 112 c 128,-1,39
 578 164 578 164 595 272 c 1,40,-1
 693 272 l 1,41,42
 660 -4 660 -4 422 -23 c 1,43,44
 476 -60 476 -60 476 -114 c 0,0,1
EndSplineSet
EndChar

StartChar: uni04AB
Encoding: 1195 1195 247
Width: 512
GlyphClass: 2
Flags: HW
LayerCount: 2
Fore
SplineSet
364 -114 m 0,0,1
 364 -157 364 -157 325 -183.5 c 128,-1,2
 286 -210 286 -210 228 -210 c 0,3,4
 199 -210 199 -210 151 -200 c 1,5,-1
 151 -154 l 1,6,7
 178 -164 178 -164 215 -164 c 0,8,9
 289 -164 289 -164 289 -109 c 0,10,11
 289 -81 289 -81 275.5 -61.5 c 128,-1,12
 262 -42 262 -42 226 -20 c 1,13,14
 136 -5 136 -5 84 69 c 128,-1,15
 32 143 32 143 32 259 c 0,16,17
 32 392 32 392 97 472 c 128,-1,18
 162 552 162 552 270 552 c 0,19,20
 363 552 363 552 419 502 c 128,-1,21
 475 452 475 452 482 356 c 1,22,-1
 396 356 l 1,23,24
 388 412 388 412 355.5 442.5 c 128,-1,25
 323 473 323 473 269 473 c 0,26,27
 199 473 199 473 160 416 c 128,-1,28
 121 359 121 359 121 259 c 0,29,30
 121 164 121 164 161 109.5 c 128,-1,31
 201 55 201 55 271 55 c 0,32,33
 381 55 381 55 402 184 c 1,34,-1
 488 184 l 1,35,36
 481 96 481 96 434 43 c 128,-1,37
 387 -10 387 -10 307 -22 c 1,38,39
 364 -59 364 -59 364 -114 c 0,0,1
EndSplineSet
EndChar

StartChar: uni04AC
Encoding: 1196 1196 248
Width: 625
GlyphClass: 2
Flags: HW
LayerCount: 2
Fore
SplineSet
362 76 m 1,0,-1
 431 76 l 1,1,-1
 431 -138 l 1,2,-1
 349 -138 l 1,3,-1
 349 0 l 1,4,-1
 267 0 l 1,5,-1
 267 663 l 1,6,-1
 22 663 l 1,7,-1
 22 746 l 1,8,-1
 607 746 l 1,9,-1
 607 663 l 1,10,-1
 362 663 l 1,11,-1
 362 76 l 1,0,-1
EndSplineSet
EndChar

StartChar: uni04AD
Encoding: 1197 1197 249
Width: 507
GlyphClass: 2
Flags: HW
LayerCount: 2
Fore
SplineSet
295 66 m 1,0,-1
 356 66 l 1,1,-1
 356 -123 l 1,2,-1
 285 -123 l 1,3,-1
 285 0 l 1,4,-1
 209 0 l 1,5,-1
 209 459 l 1,6,-1
 61 459 l 1,7,-1
 61 537 l 1,8,-1
 442 537 l 1,9,-1
 442 459 l 1,10,-1
 295 459 l 1,11,-1
 295 66 l 1,0,-1
EndSplineSet
EndChar

StartChar: uni04AE
Encoding: 1198 1198 250
Width: 683
GlyphClass: 2
Flags: HW
LayerCount: 2
Fore
SplineSet
396 293 m 1,0,-1
 396 0 l 1,1,-1
 301 0 l 1,2,-1
 301 293 l 1,3,-1
 13 746 l 1,4,-1
 131 746 l 1,5,-1
 350 383 l 1,6,-1
 563 746 l 1,7,-1
 677 746 l 1,8,-1
 396 293 l 1,0,-1
EndSplineSet
EndChar

StartChar: uni04AF
Encoding: 1199 1199 251
Width: 683
GlyphClass: 2
Flags: HW
LayerCount: 2
Fore
SplineSet
396 88 m 1,0,-1
 396 -205 l 1,1,-1
 301 -205 l 1,2,-1
 301 88 l 1,3,-1
 54 537 l 1,4,-1
 172 537 l 1,5,-1
 350 178 l 1,6,-1
 522 537 l 1,7,-1
 636 537 l 1,8,-1
 396 88 l 1,0,-1
EndSplineSet
EndChar

StartChar: uni04B0
Encoding: 1200 1200 252
Width: 683
GlyphClass: 2
Flags: HW
LayerCount: 2
Fore
SplineSet
301 195 m 1,0,-1
 76 195 l 1,1,-1
 76 266 l 1,2,-1
 301 266 l 1,3,-1
 301 293 l 1,4,-1
 13 746 l 1,5,-1
 131 746 l 1,6,-1
 350 383 l 1,7,-1
 563 746 l 1,8,-1
 677 746 l 1,9,-1
 396 293 l 1,10,-1
 396 266 l 1,11,-1
 622 266 l 1,12,-1
 622 195 l 1,13,-1
 396 195 l 1,14,-1
 396 0 l 1,15,-1
 301 0 l 1,16,-1
 301 195 l 1,0,-1
EndSplineSet
EndChar

StartChar: uni04B1
Encoding: 1201 1201 253
Width: 683
GlyphClass: 2
Flags: HW
LayerCount: 2
Fore
SplineSet
396 88 m 1,0,-1
 622 88 l 1,1,-1
 622 16 l 1,2,-1
 396 16 l 1,3,-1
 396 -205 l 1,4,-1
 301 -205 l 1,5,-1
 301 16 l 1,6,-1
 76 16 l 1,7,-1
 76 88 l 1,8,-1
 301 88 l 1,9,-1
 54 537 l 1,10,-1
 172 537 l 1,11,-1
 350 178 l 1,12,-1
 522 537 l 1,13,-1
 636 537 l 1,14,-1
 396 88 l 1,0,-1
EndSplineSet
EndChar

StartChar: uni04B2
Encoding: 1202 1202 254
Width: 683
GlyphClass: 2
Flags: HW
LayerCount: 2
Fore
SplineSet
612 76 m 1,0,-1
 665 76 l 1,1,-1
 665 -138 l 1,2,-1
 583 -138 l 1,3,-1
 583 0 l 1,4,-1
 547 0 l 1,5,-1
 343 311 l 1,6,-1
 138 0 l 1,7,-1
 23 0 l 1,8,-1
 287 383 l 1,9,-1
 39 746 l 1,10,-1
 155 746 l 1,11,-1
 346 454 l 1,12,-1
 539 746 l 1,13,-1
 652 746 l 1,14,-1
 400 383 l 1,15,-1
 612 76 l 1,0,-1
EndSplineSet
EndChar

StartChar: uni04B3
Encoding: 1203 1203 255
Width: 512
GlyphClass: 2
Flags: HW
LayerCount: 2
Fore
SplineSet
440 66 m 1,0,-1
 484 66 l 1,1,-1
 484 -123 l 1,2,-1
 413 -123 l 1,3,-1
 413 0 l 1,4,-1
 385 0 l 1,5,-1
 251 206 l 1,6,-1
 115 0 l 1,7,-1
 17 0 l 1,8,-1
 207 273 l 1,9,-1
 28 537 l 1,10,-1
 125 537 l 1,11,-1
 254 342 l 1,12,-1
 383 537 l 1,13,-1
 479 537 l 1,14,-1
 299 278 l 1,15,-1
 440 66 l 1,0,-1
EndSplineSet
EndChar

StartChar: uni04B4
Encoding: 1204 1204 256
Width: 964
GlyphClass: 2
Flags: HW
LayerCount: 2
Fore
SplineSet
353 663 m 1,0,-1
 353 84 l 1,1,-1
 735 84 l 1,2,-1
 735 746 l 1,3,-1
 831 746 l 1,4,-1
 831 76 l 1,5,-1
 926 76 l 1,6,-1
 926 -138 l 1,7,-1
 844 -138 l 1,8,-1
 844 0 l 1,9,-1
 257 0 l 1,10,-1
 257 663 l 1,11,-1
 22 663 l 1,12,-1
 22 746 l 1,13,-1
 586 746 l 1,14,-1
 586 663 l 1,15,-1
 353 663 l 1,0,-1
EndSplineSet
EndChar

StartChar: uni04B5
Encoding: 1205 1205 257
Width: 749
GlyphClass: 2
Flags: HW
LayerCount: 2
Fore
SplineSet
199 459 m 1,0,-1
 61 459 l 1,1,-1
 61 537 l 1,2,-1
 422 537 l 1,3,-1
 422 459 l 1,4,-1
 285 459 l 1,5,-1
 285 78 l 1,6,-1
 540 78 l 1,7,-1
 540 537 l 1,8,-1
 626 537 l 1,9,-1
 626 66 l 1,10,-1
 709 66 l 1,11,-1
 709 -123 l 1,12,-1
 637 -123 l 1,13,-1
 637 0 l 1,14,-1
 199 0 l 1,15,-1
 199 459 l 1,0,-1
EndSplineSet
EndChar

StartChar: uni04B6
Encoding: 1206 1206 258
Width: 663
GlyphClass: 2
Flags: HW
LayerCount: 2
Fore
SplineSet
583 76 m 1,0,-1
 651 76 l 1,1,-1
 651 -138 l 1,2,-1
 569 -138 l 1,3,-1
 569 0 l 1,4,-1
 487 0 l 1,5,-1
 487 266 l 1,6,-1
 270 266 l 2,7,8
 176 266 176 266 128.5 318.5 c 128,-1,9
 81 371 81 371 81 463 c 2,10,-1
 81 746 l 1,11,-1
 176 746 l 1,12,-1
 176 444 l 2,13,14
 176 398 176 398 203 374 c 128,-1,15
 230 350 230 350 274 350 c 2,16,-1
 487 350 l 1,17,-1
 487 746 l 1,18,-1
 583 746 l 1,19,-1
 583 76 l 1,0,-1
EndSplineSet
EndChar

StartChar: uni04B7
Encoding: 1207 1207 259
Width: 532
GlyphClass: 2
Flags: HW
LayerCount: 2
Fore
SplineSet
452 0 m 1,0,-1
 375 0 l 1,1,-1
 375 196 l 1,2,-1
 230 196 l 2,3,4
 163 196 163 196 117.5 234.5 c 128,-1,5
 72 273 72 273 72 342 c 2,6,-1
 72 537 l 1,7,-1
 158 537 l 1,8,-1
 158 345 l 2,9,10
 158 273 158 273 227 273 c 2,11,-1
 375 273 l 1,12,-1
 375 537 l 1,13,-1
 461 537 l 1,14,-1
 461 66 l 1,15,-1
 523 66 l 1,16,-1
 523 -123 l 1,17,-1
 452 -123 l 1,18,-1
 452 0 l 1,0,-1
EndSplineSet
EndChar

StartChar: uni04B8
Encoding: 1208 1208 260
Width: 663
GlyphClass: 2
Flags: HW
LayerCount: 2
Fore
SplineSet
302 350 m 1,0,-1
 302 490 l 1,1,-1
 374 490 l 1,2,-1
 374 350 l 1,3,-1
 487 350 l 1,4,-1
 487 746 l 1,5,-1
 583 746 l 1,6,-1
 583 0 l 1,7,-1
 487 0 l 1,8,-1
 487 266 l 1,9,-1
 374 266 l 1,10,-1
 374 138 l 1,11,-1
 302 138 l 1,12,-1
 302 266 l 1,13,-1
 270 266 l 2,14,15
 176 266 176 266 128.5 318.5 c 128,-1,16
 81 371 81 371 81 463 c 2,17,-1
 81 746 l 1,18,-1
 176 746 l 1,19,-1
 176 444 l 2,20,21
 176 398 176 398 203 374 c 128,-1,22
 230 350 230 350 274 350 c 2,23,-1
 302 350 l 1,0,-1
EndSplineSet
EndChar

StartChar: uni04B9
Encoding: 1209 1209 261
Width: 532
GlyphClass: 2
Flags: HW
LayerCount: 2
Fore
SplineSet
236 196 m 1,0,-1
 230 196 l 2,1,2
 163 196 163 196 117.5 234.5 c 128,-1,3
 72 273 72 273 72 342 c 2,4,-1
 72 537 l 1,5,-1
 158 537 l 1,6,-1
 158 345 l 2,7,8
 158 273 158 273 227 273 c 2,9,-1
 236 273 l 1,10,-1
 236 379 l 1,11,-1
 307 379 l 1,12,-1
 307 273 l 1,13,-1
 375 273 l 1,14,-1
 375 537 l 1,15,-1
 461 537 l 1,16,-1
 461 0 l 1,17,-1
 375 0 l 1,18,-1
 375 196 l 1,19,-1
 307 196 l 1,20,-1
 307 100 l 1,21,-1
 236 100 l 1,22,-1
 236 196 l 1,0,-1
EndSplineSet
EndChar

StartChar: uni04BA
Encoding: 1210 1210 262
Width: 663
GlyphClass: 2
Flags: HW
LayerCount: 2
Fore
SplineSet
176 480 m 1,0,-1
 393 480 l 2,1,2
 487 480 487 480 535 428 c 128,-1,3
 583 376 583 376 583 284 c 2,4,-1
 583 0 l 1,5,-1
 487 0 l 1,6,-1
 487 302 l 2,7,8
 487 348 487 348 460 372 c 128,-1,9
 433 396 433 396 389 396 c 2,10,-1
 176 396 l 1,11,-1
 176 0 l 1,12,-1
 81 0 l 1,13,-1
 81 746 l 1,14,-1
 176 746 l 1,15,-1
 176 480 l 1,0,-1
EndSplineSet
EndChar

StartChar: uni04BB
Encoding: 1211 1211 263
Width: 532
GlyphClass: 2
Flags: HW
LayerCount: 2
Fore
SplineSet
461 0 m 1,0,-1
 375 0 l 1,1,-1
 375 191 l 2,2,3
 375 263 375 263 305 263 c 2,4,-1
 158 263 l 1,5,-1
 158 0 l 1,6,-1
 72 0 l 1,7,-1
 72 537 l 1,8,-1
 158 537 l 1,9,-1
 158 341 l 1,10,-1
 302 341 l 2,11,12
 369 341 369 341 415 302 c 128,-1,13
 461 263 461 263 461 195 c 2,14,-1
 461 0 l 1,0,-1
EndSplineSet
EndChar

StartChar: uni04BC
Encoding: 1212 1212 264
Width: 949
GlyphClass: 2
Flags: HW
LayerCount: 2
Fore
SplineSet
793 477 m 1,0,1
 788 511 788 511 782.5 534 c 128,-1,2
 777 557 777 557 763.5 586 c 128,-1,3
 750 615 750 615 730.5 632.5 c 128,-1,4
 711 650 711 650 676.5 662.5 c 128,-1,5
 642 675 642 675 596 675 c 0,6,7
 508 675 508 675 448 622.5 c 128,-1,8
 388 570 388 570 366 477 c 1,9,-1
 793 477 l 1,0,1
599 -24 m 0,10,11
 521 -24 521 -24 459 3 c 128,-1,12
 397 30 397 30 361 70.5 c 128,-1,13
 325 111 325 111 300 165 c 128,-1,14
 275 219 275 219 266.5 269 c 128,-1,15
 258 319 258 319 258 371 c 2,16,-1
 258 393 l 1,17,18
 154 395 154 395 101 455 c 128,-1,19
 48 515 48 515 48 600 c 0,20,21
 48 680 48 680 87.5 727.5 c 128,-1,22
 127 775 127 775 191 775 c 0,23,24
 247 775 247 775 280.5 745 c 128,-1,25
 314 715 314 715 318 658 c 1,26,-1
 267 658 l 1,27,28
 258 728 258 728 191 728 c 0,29,30
 149 728 149 728 125.5 694 c 128,-1,31
 102 660 102 660 102 600 c 0,32,33
 102 543 102 543 126.5 510 c 128,-1,34
 151 477 151 477 193 477 c 2,35,-1
 268 477 l 1,36,37
 292 596 292 596 367 672 c 1,38,39
 451 759 451 759 595 759 c 0,40,41
 902 759 902 759 903 393 c 1,42,-1
 354 393 l 1,43,44
 353 385 353 385 353 370 c 0,45,46
 353 227 353 227 416 143.5 c 128,-1,47
 479 60 479 60 588 60 c 0,48,49
 677 60 677 60 725 99.5 c 128,-1,50
 773 139 773 139 790 220 c 1,51,-1
 887 220 l 1,52,53
 843 -24 843 -24 599 -24 c 0,10,11
EndSplineSet
EndChar

StartChar: uni04BD
Encoding: 1213 1213 265
Width: 733
GlyphClass: 2
Flags: HW
LayerCount: 2
Fore
SplineSet
296 309 m 1,0,-1
 597 309 l 1,1,2
 598 311 598 311 598 315 c 0,3,4
 598 382 598 382 555 427.5 c 128,-1,5
 512 473 512 473 450 473 c 0,6,7
 385 473 385 473 343 428.5 c 128,-1,8
 301 384 301 384 296 309 c 1,0,-1
294 240 m 1,9,10
 295 187 295 187 310.5 148.5 c 128,-1,11
 326 110 326 110 350.5 91 c 128,-1,12
 375 72 375 72 400 63.5 c 128,-1,13
 425 55 425 55 452 55 c 0,14,15
 556 55 556 55 592 163 c 1,16,-1
 678 163 l 1,17,18
 662 75 662 75 601.5 25.5 c 128,-1,19
 541 -24 541 -24 449 -24 c 0,20,21
 340 -24 340 -24 275.5 46.5 c 128,-1,22
 211 117 211 117 205 240 c 1,23,24
 124 241 124 241 83.5 286.5 c 128,-1,25
 43 332 43 332 43 391 c 0,26,27
 43 444 43 444 69 476 c 128,-1,28
 95 508 95 508 138 508 c 0,29,30
 216 508 216 508 223 430 c 1,31,-1
 188 430 l 1,32,33
 182 477 182 477 138 477 c 0,34,35
 109 477 109 477 94 454 c 128,-1,36
 79 431 79 431 79 391 c 0,37,38
 79 353 79 353 95 331 c 128,-1,39
 111 309 111 309 138 309 c 2,40,-1
 207 309 l 1,41,42
 219 421 219 421 284 486.5 c 128,-1,43
 349 552 349 552 451 552 c 0,44,45
 527 552 527 552 584.5 514 c 128,-1,46
 642 476 642 476 668 411 c 0,47,48
 690 355 690 355 689 240 c 1,49,-1
 294 240 l 1,9,10
EndSplineSet
EndChar

StartChar: uni04BE
Encoding: 1214 1214 266
Width: 949
GlyphClass: 2
Flags: HW
LayerCount: 2
Fore
SplineSet
793 477 m 1,0,1
 788 511 788 511 782.5 534 c 128,-1,2
 777 557 777 557 763.5 586 c 128,-1,3
 750 615 750 615 730.5 632.5 c 128,-1,4
 711 650 711 650 676.5 662.5 c 128,-1,5
 642 675 642 675 596 675 c 0,6,7
 508 675 508 675 448 622.5 c 128,-1,8
 388 570 388 570 366 477 c 1,9,-1
 793 477 l 1,0,1
690 -114 m 0,10,11
 690 -157 690 -157 651 -183.5 c 128,-1,12
 612 -210 612 -210 555 -210 c 0,13,14
 526 -210 526 -210 477 -200 c 1,15,-1
 477 -154 l 1,16,17
 504 -164 504 -164 542 -164 c 0,18,19
 616 -164 616 -164 615 -109 c 0,20,21
 615 -82 615 -82 602 -62.5 c 128,-1,22
 589 -43 589 -43 555 -22 c 1,23,24
 492 -16 492 -16 441 9.5 c 128,-1,25
 390 35 390 35 359 72.5 c 128,-1,26
 328 110 328 110 306.5 149.5 c 128,-1,27
 285 189 285 189 275 234.5 c 128,-1,28
 265 280 265 280 261.5 311 c 128,-1,29
 258 342 258 342 258 371 c 2,30,-1
 258 393 l 1,31,32
 154 395 154 395 101 455 c 128,-1,33
 48 515 48 515 48 600 c 0,34,35
 48 680 48 680 87.5 727.5 c 128,-1,36
 127 775 127 775 191 775 c 0,37,38
 247 775 247 775 280.5 745 c 128,-1,39
 314 715 314 715 318 658 c 1,40,-1
 267 658 l 1,41,42
 258 728 258 728 191 728 c 0,43,44
 149 728 149 728 125.5 694 c 128,-1,45
 102 660 102 660 102 600 c 0,46,47
 102 543 102 543 126.5 510 c 128,-1,48
 151 477 151 477 193 477 c 2,49,-1
 268 477 l 1,50,51
 292 596 292 596 367 672 c 1,52,53
 451 759 451 759 595 759 c 0,54,55
 902 759 902 759 903 393 c 1,56,-1
 354 393 l 1,57,58
 353 385 353 385 353 370 c 0,59,60
 353 227 353 227 416 143.5 c 128,-1,61
 479 60 479 60 588 60 c 0,62,63
 677 60 677 60 725 99.5 c 128,-1,64
 773 139 773 139 790 220 c 1,65,-1
 887 220 l 1,66,67
 846 -6 846 -6 636 -23 c 1,68,69
 690 -60 690 -60 690 -114 c 0,10,11
EndSplineSet
EndChar

StartChar: uni04BF
Encoding: 1215 1215 267
Width: 733
GlyphClass: 2
Flags: HW
LayerCount: 2
Fore
SplineSet
296 309 m 1,0,-1
 597 309 l 1,1,2
 598 311 598 311 598 315 c 0,3,4
 598 382 598 382 555 427.5 c 128,-1,5
 512 473 512 473 450 473 c 0,6,7
 385 473 385 473 343 428.5 c 128,-1,8
 301 384 301 384 296 309 c 1,0,-1
538 -114 m 0,9,10
 538 -157 538 -157 499 -183.5 c 128,-1,11
 460 -210 460 -210 402 -210 c 0,12,13
 373 -210 373 -210 325 -200 c 1,14,-1
 325 -154 l 1,15,16
 352 -164 352 -164 389 -164 c 0,17,18
 463 -164 463 -164 463 -109 c 0,19,20
 463 -82 463 -82 449 -62 c 128,-1,21
 435 -42 435 -42 399 -19 c 1,22,23
 312 -4 312 -4 261 63.5 c 128,-1,24
 210 131 210 131 205 240 c 1,25,26
 124 241 124 241 83.5 286.5 c 128,-1,27
 43 332 43 332 43 391 c 0,28,29
 43 444 43 444 69 476 c 128,-1,30
 95 508 95 508 138 508 c 0,31,32
 216 508 216 508 223 430 c 1,33,-1
 188 430 l 1,34,35
 182 477 182 477 138 477 c 0,36,37
 109 477 109 477 94 454 c 128,-1,38
 79 431 79 431 79 391 c 0,39,40
 79 353 79 353 95 331 c 128,-1,41
 111 309 111 309 138 309 c 2,42,-1
 207 309 l 1,43,44
 219 421 219 421 284 486.5 c 128,-1,45
 349 552 349 552 451 552 c 0,46,47
 527 552 527 552 584.5 514 c 128,-1,48
 642 476 642 476 668 411 c 0,49,50
 690 355 690 355 689 240 c 1,51,-1
 294 240 l 1,52,53
 295 187 295 187 310.5 148.5 c 128,-1,54
 326 110 326 110 350.5 91 c 128,-1,55
 375 72 375 72 400 63.5 c 128,-1,56
 425 55 425 55 452 55 c 0,57,58
 556 55 556 55 592 163 c 1,59,-1
 678 163 l 1,60,61
 664 84 664 84 612 35.5 c 128,-1,62
 560 -13 560 -13 482 -22 c 1,63,64
 538 -58 538 -58 538 -114 c 0,9,10
EndSplineSet
EndChar

StartChar: uni04C0
Encoding: 1216 1216 268
Width: 284
GlyphClass: 2
Flags: HW
LayerCount: 2
Fore
SplineSet
199 746 m 1,0,-1
 199 0 l 1,1,-1
 102 0 l 1,2,-1
 102 746 l 1,3,-1
 199 746 l 1,0,-1
EndSplineSet
EndChar

StartChar: uni04C3
Encoding: 1219 1219 271
Width: 683
GlyphClass: 2
Flags: HW
LayerCount: 2
Fore
SplineSet
436 384 m 2,0,1
 530 384 530 384 578 332 c 128,-1,2
 626 280 626 280 626 187 c 2,3,-1
 626 18 l 2,4,5
 626 -74 626 -74 578 -126 c 128,-1,6
 530 -178 530 -178 436 -178 c 2,7,-1
 383 -178 l 1,8,-1
 383 -94 l 1,9,-1
 432 -94 l 2,10,11
 476 -94 476 -94 503 -70 c 128,-1,12
 530 -46 530 -46 530 0 c 2,13,-1
 530 206 l 2,14,15
 530 252 530 252 503 276 c 128,-1,16
 476 300 476 300 432 300 c 2,17,-1
 176 300 l 1,18,-1
 176 0 l 1,19,-1
 81 0 l 1,20,-1
 81 746 l 1,21,-1
 176 746 l 1,22,-1
 176 424 l 1,23,-1
 548 746 l 1,24,-1
 671 746 l 1,25,-1
 249 384 l 1,26,-1
 436 384 l 2,0,1
EndSplineSet
EndChar

StartChar: uni04C4
Encoding: 1220 1220 272
Width: 512
GlyphClass: 2
Flags: HW
LayerCount: 2
Fore
SplineSet
366 91 m 2,0,1
 366 147 366 147 331.5 172 c 128,-1,2
 297 197 297 197 255 197 c 2,3,-1
 144 197 l 1,4,-1
 144 0 l 1,5,-1
 59 0 l 1,6,-1
 59 537 l 1,7,-1
 144 537 l 1,8,-1
 144 309 l 1,9,-1
 372 537 l 1,10,-1
 481 537 l 1,11,-1
 203 270 l 1,12,-1
 282 271 l 2,13,14
 360 271 360 271 405.5 232 c 128,-1,15
 451 193 451 193 451 125 c 2,16,-1
 451 0 l 2,17,18
 451 -68 451 -68 405 -107 c 128,-1,19
 359 -146 359 -146 282 -146 c 2,20,-1
 255 -146 l 1,21,-1
 255 -72 l 1,22,23
 297 -72 297 -72 331.5 -47.5 c 128,-1,24
 366 -23 366 -23 366 34 c 2,25,-1
 366 91 l 2,0,1
EndSplineSet
EndChar

StartChar: uni04C5
Encoding: 1221 1221 273
Width: 689
GlyphClass: 2
Flags: HW
LayerCount: 2
Fore
SplineSet
512 663 m 1,0,-1
 244 663 l 1,1,2
 244 645 244 645 244.5 602.5 c 128,-1,3
 245 560 245 560 245 537 c 0,4,5
 245 467 245 467 243 412.5 c 128,-1,6
 241 358 241 358 233.5 290.5 c 128,-1,7
 226 223 226 223 212 173.5 c 128,-1,8
 198 124 198 124 175.5 80 c 128,-1,9
 153 36 153 36 117 13 c 128,-1,10
 81 -10 81 -10 34 -10 c 1,11,-1
 34 86 l 1,12,13
 65 86 65 86 86.5 113.5 c 128,-1,14
 108 141 108 141 119.5 182.5 c 128,-1,15
 131 224 131 224 137.5 293 c 128,-1,16
 144 362 144 362 145.5 423 c 128,-1,17
 147 484 147 484 147 573 c 2,18,-1
 147 746 l 1,19,-1
 608 746 l 1,20,-1
 608 76 l 1,21,-1
 681 76 l 1,22,-1
 681 -138 l 1,23,-1
 599 -138 l 1,24,-1
 599 0 l 1,25,-1
 512 0 l 1,26,-1
 512 663 l 1,0,-1
EndSplineSet
EndChar

StartChar: uni04C6
Encoding: 1222 1222 274
Width: 570
GlyphClass: 2
Flags: HW
LayerCount: 2
Fore
SplineSet
152 537 m 1,0,-1
 499 537 l 1,1,-1
 499 66 l 1,2,-1
 561 66 l 1,3,-1
 561 -123 l 1,4,-1
 489 -123 l 1,5,-1
 489 0 l 1,6,-1
 413 0 l 1,7,-1
 413 459 l 1,8,-1
 237 459 l 1,9,10
 237 410 l 0,11,12
 237 368 237 368 235.5 333.5 c 128,-1,13
 234 299 234 299 230 254 c 128,-1,14
 226 209 226 209 219.5 174 c 128,-1,15
 213 139 213 139 200.5 103 c 128,-1,16
 188 67 188 67 171.5 43 c 128,-1,17
 155 19 155 19 129 4.5 c 128,-1,18
 103 -10 103 -10 72 -10 c 1,19,-1
 72 72 l 1,20,21
 90 72 90 72 104.5 86.5 c 128,-1,22
 119 101 119 101 127 134.5 c 128,-1,23
 135 168 135 168 140.5 201 c 128,-1,24
 146 234 146 234 148.5 292 c 128,-1,25
 151 350 151 350 151.5 391.5 c 128,-1,26
 152 433 152 433 152 503 c 2,27,-1
 152 537 l 1,0,-1
EndSplineSet
EndChar

StartChar: uni04C7
Encoding: 1223 1223 275
Width: 739
GlyphClass: 2
Flags: HW
LayerCount: 2
Fore
SplineSet
563 0 m 2,0,-1
 563 340 l 1,1,-1
 181 340 l 1,2,-1
 181 0 l 1,3,-1
 85 0 l 1,4,-1
 85 746 l 1,5,-1
 180 746 l 1,6,-1
 180 424 l 1,7,-1
 563 424 l 1,8,-1
 563 746 l 1,9,-1
 659 746 l 1,10,-1
 659 18 l 2,11,12
 659 -74 659 -74 611 -126 c 128,-1,13
 563 -178 563 -178 469 -178 c 2,14,-1
 416 -178 l 1,15,-1
 416 -94 l 1,16,-1
 465 -94 l 2,17,18
 509 -94 509 -94 536 -70 c 128,-1,19
 563 -46 563 -46 563 0 c 2,0,-1
EndSplineSet
EndChar

StartChar: uni04C8
Encoding: 1224 1224 276
Width: 569
GlyphClass: 2
Flags: HW
LayerCount: 2
Fore
SplineSet
304 -72 m 1,0,1
 347 -72 347 -72 380.5 -47.5 c 128,-1,2
 414 -23 414 -23 414 34 c 2,3,-1
 414 239 l 1,4,-1
 158 239 l 1,5,-1
 158 0 l 1,6,-1
 72 0 l 1,7,-1
 72 537 l 1,8,-1
 158 537 l 1,9,-1
 158 316 l 1,10,-1
 414 316 l 1,11,-1
 414 537 l 1,12,-1
 500 537 l 1,13,-1
 500 0 l 2,14,15
 500 -68 500 -68 454.5 -107 c 128,-1,16
 409 -146 409 -146 331 -146 c 2,17,-1
 304 -146 l 1,18,-1
 304 -72 l 1,0,1
EndSplineSet
EndChar

StartChar: uni04C9
Encoding: 1225 1225 277
Width: 739
GlyphClass: 2
Flags: HW
LayerCount: 2
Fore
SplineSet
564 340 m 1,0,-1
 181 340 l 1,1,-1
 181 0 l 1,2,-1
 85 0 l 1,3,-1
 85 746 l 1,4,-1
 180 746 l 1,5,-1
 180 424 l 1,6,-1
 564 424 l 1,7,-1
 564 746 l 1,8,-1
 659 746 l 1,9,-1
 659 76 l 1,10,-1
 732 76 l 1,11,-1
 732 -138 l 1,12,-1
 650 -138 l 1,13,-1
 650 0 l 1,14,-1
 564 0 l 1,15,-1
 564 340 l 1,0,-1
EndSplineSet
EndChar

StartChar: uni04CA
Encoding: 1226 1226 278
Width: 571
GlyphClass: 2
Flags: HW
LayerCount: 2
Fore
SplineSet
72 537 m 1,0,-1
 158 537 l 1,1,-1
 158 316 l 1,2,-1
 414 316 l 1,3,-1
 414 537 l 1,4,-1
 500 537 l 1,5,-1
 500 66 l 1,6,-1
 562 66 l 1,7,-1
 562 -123 l 1,8,-1
 490 -123 l 1,9,-1
 490 0 l 1,10,-1
 414 0 l 1,11,-1
 414 239 l 1,12,-1
 158 239 l 1,13,-1
 158 0 l 1,14,-1
 72 0 l 1,15,-1
 72 537 l 1,0,-1
EndSplineSet
EndChar

StartChar: uni04CB
Encoding: 1227 1227 279
Width: 663
GlyphClass: 2
Flags: HW
LayerCount: 2
Fore
SplineSet
501 0 m 1,0,-1
 501 -138 l 1,1,-1
 419 -138 l 1,2,-1
 419 76 l 1,3,-1
 487 76 l 1,4,-1
 487 266 l 1,5,-1
 270 266 l 2,6,7
 176 266 176 266 128.5 318.5 c 128,-1,8
 81 371 81 371 81 463 c 2,9,-1
 81 746 l 1,10,-1
 176 746 l 1,11,-1
 176 444 l 2,12,13
 176 398 176 398 203 374 c 128,-1,14
 230 350 230 350 274 350 c 2,15,-1
 487 350 l 1,16,-1
 487 746 l 1,17,-1
 583 746 l 1,18,-1
 583 0 l 1,19,-1
 501 0 l 1,0,-1
EndSplineSet
EndChar

StartChar: uni04CC
Encoding: 1228 1228 280
Width: 532
GlyphClass: 2
Flags: HW
LayerCount: 2
Fore
SplineSet
384 0 m 1,0,-1
 384 -123 l 1,1,-1
 312 -123 l 1,2,-1
 312 66 l 1,3,-1
 375 66 l 1,4,-1
 375 196 l 1,5,-1
 230 196 l 2,6,7
 163 196 163 196 117.5 234.5 c 128,-1,8
 72 273 72 273 72 342 c 2,9,-1
 72 537 l 1,10,-1
 158 537 l 1,11,-1
 158 345 l 2,12,13
 158 273 158 273 227 273 c 2,14,-1
 375 273 l 1,15,-1
 375 537 l 1,16,-1
 461 537 l 1,17,-1
 461 0 l 1,18,-1
 384 0 l 1,0,-1
EndSplineSet
EndChar

StartChar: uni04CD
Encoding: 1229 1229 281
Width: 852
GlyphClass: 2
Flags: HW
LayerCount: 2
Fore
SplineSet
479 0 m 1,0,-1
 379 0 l 1,1,-1
 167 626 l 1,2,-1
 167 0 l 1,3,-1
 77 0 l 1,4,-1
 77 746 l 1,5,-1
 209 746 l 1,6,-1
 430 96 l 1,7,-1
 647 746 l 1,8,-1
 779 746 l 1,9,-1
 779 76 l 1,10,-1
 852 76 l 1,11,-1
 852 -138 l 1,12,-1
 770 -138 l 1,13,-1
 770 0 l 1,14,-1
 689 0 l 1,15,-1
 689 626 l 1,16,-1
 479 0 l 1,0,-1
EndSplineSet
EndChar

StartChar: uni04CE
Encoding: 1230 1230 282
Width: 632
GlyphClass: 2
Flags: HW
LayerCount: 2
Fore
SplineSet
72 537 m 1,0,-1
 178 537 l 1,1,-1
 316 203 l 1,2,-1
 455 537 l 1,3,-1
 561 537 l 1,4,-1
 561 66 l 1,5,-1
 624 66 l 1,6,-1
 624 -123 l 1,7,-1
 552 -123 l 1,8,-1
 552 0 l 1,9,-1
 475 0 l 1,10,-1
 475 372 l 1,11,-1
 342 41 l 1,12,-1
 291 41 l 1,13,-1
 158 372 l 1,14,-1
 158 0 l 1,15,-1
 72 0 l 1,16,-1
 72 537 l 1,0,-1
EndSplineSet
EndChar

StartChar: uni04D4
Encoding: 1236 1236 287
Width: 1024
GlyphClass: 2
Flags: HW
LayerCount: 2
Fore
SplineSet
479 219 m 1,0,-1
 204 219 l 1,1,-1
 117 0 l 1,2,-1
 11 0 l 1,3,-1
 317 746 l 1,4,-1
 954 746 l 1,5,-1
 954 663 l 1,6,-1
 574 663 l 1,7,-1
 574 424 l 1,8,-1
 935 424 l 1,9,-1
 935 340 l 1,10,-1
 574 340 l 1,11,-1
 574 84 l 1,12,-1
 973 84 l 1,13,-1
 973 0 l 1,14,-1
 479 0 l 1,15,-1
 479 219 l 1,0,-1
479 303 m 1,16,-1
 479 663 l 1,17,-1
 377 663 l 1,18,-1
 236 303 l 1,19,-1
 479 303 l 1,16,-1
EndSplineSet
EndChar

StartChar: uni04D5
Encoding: 1237 1237 288
Width: 910
GlyphClass: 2
Flags: HW
LayerCount: 2
Fore
SplineSet
470 240 m 1,0,1
 471 187 471 187 486.5 148.5 c 128,-1,2
 502 110 502 110 526.5 91 c 128,-1,3
 551 72 551 72 576 63.5 c 128,-1,4
 601 55 601 55 628 55 c 0,5,6
 731 55 731 55 769 163 c 1,7,-1
 855 163 l 1,8,9
 839 76 839 76 778.5 26 c 128,-1,10
 718 -24 718 -24 627 -24 c 0,11,12
 568 -24 568 -24 519.5 -1 c 128,-1,13
 471 22 471 22 444 61 c 0,14,15
 440 67 440 67 428 89 c 1,16,17
 371 30 371 30 319 3 c 128,-1,18
 267 -24 267 -24 207 -24 c 0,19,20
 129 -24 129 -24 82 19 c 128,-1,21
 35 62 35 62 35 135 c 0,22,23
 35 218 35 218 94 258 c 128,-1,24
 153 298 153 298 301 310 c 0,25,26
 353 314 353 314 371.5 327.5 c 128,-1,27
 390 341 390 341 390 371 c 2,28,-1
 390 393 l 2,29,30
 390 473 390 473 269 473 c 0,31,32
 154 473 154 473 144 378 c 1,33,-1
 58 378 l 1,34,35
 64 552 64 552 271 552 c 0,36,37
 402 552 402 552 451 468 c 1,38,39
 479 507 479 507 525.5 529.5 c 128,-1,40
 572 552 572 552 628 552 c 0,41,42
 703 552 703 552 760 514 c 128,-1,43
 817 476 817 476 844 411 c 1,44,45
 866 355 866 355 865 240 c 1,46,-1
 470 240 l 1,0,1
226 51 m 0,47,48
 298 51 298 51 344 92.5 c 128,-1,49
 390 134 390 134 390 161 c 2,50,-1
 390 264 l 1,51,52
 359 251 359 251 306.5 242 c 128,-1,53
 254 233 254 233 217.5 228 c 128,-1,54
 181 223 181 223 152.5 200.5 c 128,-1,55
 124 178 124 178 124 137 c 0,56,57
 124 97 124 97 151.5 74 c 128,-1,58
 179 51 179 51 226 51 c 0,47,48
472 309 m 1,59,-1
 773 309 l 1,60,61
 773 382 773 382 732 427.5 c 128,-1,62
 691 473 691 473 626 473 c 0,63,64
 561 473 561 473 519 428.5 c 128,-1,65
 477 384 477 384 472 309 c 1,59,-1
EndSplineSet
EndChar

StartChar: uni04D8
Encoding: 1240 1240 291
Width: 739
GlyphClass: 2
Flags: HW
LayerCount: 2
Fore
SplineSet
159 258 m 1,0,1
 164 224 164 224 169 201 c 128,-1,2
 174 178 174 178 188 149 c 128,-1,3
 202 120 202 120 221.5 102.5 c 128,-1,4
 241 85 241 85 275 72.5 c 128,-1,5
 309 60 309 60 355 60 c 0,6,7
 443 60 443 60 503 112.5 c 128,-1,8
 563 165 563 165 586 258 c 1,9,-1
 159 258 l 1,0,1
693 365 m 0,10,11
 693 315 693 315 684.5 265.5 c 128,-1,12
 676 216 676 216 652 162.5 c 128,-1,13
 628 109 628 109 591.5 69 c 128,-1,14
 555 29 555 29 494 2.5 c 128,-1,15
 433 -24 433 -24 356 -24 c 0,16,17
 49 -24 49 -24 48 342 c 1,18,-1
 597 342 l 1,19,20
 598 350 598 350 598 366 c 0,21,22
 598 509 598 509 535 592 c 128,-1,23
 472 675 472 675 364 675 c 0,24,25
 275 675 275 675 226.5 635.5 c 128,-1,26
 178 596 178 596 162 515 c 1,27,-1
 65 515 l 1,28,29
 109 759 109 759 352 759 c 0,30,31
 430 759 430 759 492 732.5 c 128,-1,32
 554 706 554 706 590.5 665.5 c 128,-1,33
 627 625 627 625 651.5 570.5 c 128,-1,34
 676 516 676 516 684.5 466 c 128,-1,35
 693 416 693 416 693 365 c 0,10,11
EndSplineSet
EndChar

StartChar: afii10846
Encoding: 1241 1241 292
Width: 569
GlyphClass: 2
Flags: HW
LayerCount: 2
Fore
SplineSet
436 289 m 1,0,1
 435 342 435 342 419.5 380.5 c 128,-1,2
 404 419 404 419 379.5 438 c 128,-1,3
 355 457 355 457 330 465 c 128,-1,4
 305 473 305 473 279 473 c 0,5,6
 175 473 175 473 138 366 c 1,7,-1
 52 366 l 1,8,9
 68 454 68 454 128.5 503 c 128,-1,10
 189 552 189 552 282 552 c 0,11,12
 395 552 395 552 460 475.5 c 128,-1,13
 525 399 525 399 525 267 c 128,-1,14
 525 135 525 135 458 55.5 c 128,-1,15
 391 -24 391 -24 280 -24 c 0,16,17
 204 -24 204 -24 146 14 c 128,-1,18
 88 52 88 52 62 118 c 0,19,20
 40 174 40 174 41 289 c 1,21,-1
 436 289 l 1,0,1
434 219 m 1,22,-1
 133 219 l 1,23,24
 132 217 132 217 132 213 c 0,25,26
 132 146 132 146 175 100.5 c 128,-1,27
 218 55 218 55 281 55 c 0,28,29
 346 55 346 55 387.5 99.5 c 128,-1,30
 429 144 429 144 434 219 c 1,22,-1
EndSplineSet
EndChar

StartChar: uni04E8
Encoding: 1256 1256 307
Width: 796
GlyphClass: 2
Flags: HW
LayerCount: 2
Fore
SplineSet
760 361 m 0,0,1
 760 195 760 195 661.5 85.5 c 128,-1,2
 563 -24 563 -24 399 -24 c 0,3,4
 237 -24 237 -24 138 84.5 c 128,-1,5
 39 193 39 193 39 368 c 128,-1,6
 39 543 39 543 138.5 651 c 128,-1,7
 238 759 238 759 398 759 c 0,8,9
 562 759 562 759 661 650 c 128,-1,10
 760 541 760 541 760 361 c 0,0,1
664 394 m 1,11,12
 656 522 656 522 584.5 598.5 c 128,-1,13
 513 675 513 675 398 675 c 0,14,15
 286 675 286 675 214 598 c 128,-1,16
 142 521 142 521 135 394 c 1,17,-1
 664 394 l 1,11,12
663 323 m 1,18,-1
 136 323 l 1,19,20
 148 203 148 203 219.5 131.5 c 128,-1,21
 291 60 291 60 399.5 60 c 128,-1,22
 508 60 508 60 580 132 c 128,-1,23
 652 204 652 204 663 323 c 1,18,-1
EndSplineSet
EndChar

StartChar: uni04E9
Encoding: 1257 1257 308
Width: 569
GlyphClass: 2
Flags: HW
LayerCount: 2
Fore
SplineSet
279 552 m 0,0,1
 395 552 395 552 458.5 475.5 c 128,-1,2
 522 399 522 399 522 260 c 0,3,4
 522 128 522 128 457 52 c 128,-1,5
 392 -24 392 -24 280 -24 c 0,6,7
 165 -24 165 -24 101 52.5 c 128,-1,8
 37 129 37 129 37 264 c 128,-1,9
 37 399 37 399 101.5 475.5 c 128,-1,10
 166 552 166 552 279 552 c 0,0,1
432 297 m 1,11,12
 424 381 424 381 384.5 427 c 128,-1,13
 345 473 345 473 279.5 473 c 128,-1,14
 214 473 214 473 174 426.5 c 128,-1,15
 134 380 134 380 127 297 c 1,16,-1
 432 297 l 1,11,12
431 225 m 1,17,-1
 128 225 l 1,18,19
 136 145 136 145 176 100 c 128,-1,20
 216 55 216 55 279.5 55 c 128,-1,21
 343 55 343 55 383 100 c 128,-1,22
 423 145 423 145 431 225 c 1,17,-1
EndSplineSet
EndChar

StartChar: uni0531
Encoding: 1329 1329 323
Width: 739
GlyphClass: 2
Flags: HW
LayerCount: 2
Fore
SplineSet
362 75 m 1,0,1
 479 75 479 75 519.5 132 c 128,-1,2
 560 189 560 189 560 310 c 2,3,-1
 560 733 l 1,4,-1
 657 733 l 1,5,-1
 657 123 l 1,6,-1
 746 28 l 1,7,-1
 686 -42 l 1,8,-1
 593 61 l 1,9,10
 560 24 560 24 490.5 6 c 128,-1,11
 421 -12 421 -12 371 -12 c 0,12,13
 206 -12 206 -12 143.5 67.5 c 128,-1,14
 81 147 81 147 81 309 c 2,15,-1
 81 733 l 1,16,-1
 177 733 l 1,17,-1
 177 310 l 2,18,19
 177 216 177 216 193 171.5 c 128,-1,20
 209 127 209 127 257 100 c 0,21,22
 301 77 301 77 362 75 c 1,0,1
EndSplineSet
EndChar

StartChar: uni0532
Encoding: 1330 1330 324
Width: 721
GlyphClass: 2
Flags: HW
LayerCount: 2
Fore
SplineSet
371 743 m 0,0,1
 455 743 455 743 512 720 c 128,-1,2
 569 697 569 697 600.5 652 c 128,-1,3
 632 607 632 607 644.5 552 c 128,-1,4
 657 497 657 497 657 422 c 2,5,-1
 657 338 l 1,6,-1
 560 338 l 1,7,-1
 560 421 l 2,8,9
 560 480 560 480 553 518.5 c 128,-1,10
 546 557 546 557 526 590.5 c 128,-1,11
 506 624 506 624 465.5 639.5 c 128,-1,12
 425 655 425 655 362 656 c 1,13,14
 232 656 232 656 195 562 c 1,15,16
 177 512 177 512 176 381 c 0,17,18
 176 357 176 357 177 312 c 128,-1,19
 178 267 178 267 178 249 c 1,20,-1
 654 249 l 1,21,-1
 654 154 l 1,22,-1
 178 154 l 1,23,-1
 177 -2 l 1,24,-1
 81 -2 l 1,25,-1
 81 422 l 2,26,27
 81 482 81 482 88 528 c 128,-1,28
 95 574 95 574 114.5 616 c 128,-1,29
 134 658 134 658 166 685 c 128,-1,30
 198 712 198 712 249.5 727.5 c 128,-1,31
 301 743 301 743 371 743 c 0,0,1
EndSplineSet
EndChar

StartChar: uni0533
Encoding: 1331 1331 325
Width: 792
GlyphClass: 2
Flags: HW
LayerCount: 2
Fore
SplineSet
761 137 m 1,0,-1
 651 137 l 1,1,-1
 651 -1 l 1,2,-1
 554 -1 l 1,3,-1
 554 137 l 1,4,-1
 334 137 l 2,5,6
 253 137 253 137 188.5 183.5 c 128,-1,7
 124 230 124 230 94 330 c 1,8,-1
 85 422 l 1,9,10
 85 536 85 536 109.5 599 c 128,-1,11
 134 662 134 662 200 702 c 0,12,13
 267 743 267 743 372 743 c 0,14,15
 572 743 572 743 634 605 c 0,16,17
 647 576 647 576 647 495 c 2,18,-1
 647 464 l 2,19,20
 647 455 647 455 646.5 434.5 c 128,-1,21
 646 414 646 414 646 404 c 0,22,23
 646 376 646 376 647 320 c 128,-1,24
 648 264 648 264 648 236 c 1,25,-1
 761 236 l 1,26,-1
 761 137 l 1,0,-1
554 519 m 2,27,28
 554 579 554 579 505.5 616.5 c 128,-1,29
 457 654 457 654 380 656 c 1,30,31
 304 656 304 656 249.5 627.5 c 128,-1,32
 195 599 195 599 184 545 c 0,33,34
 179 520 179 520 177 458 c 1,35,36
 177 390 177 390 194.5 343.5 c 128,-1,37
 212 297 212 297 242 274.5 c 128,-1,38
 272 252 272 252 302.5 243 c 128,-1,39
 333 234 333 234 369 234 c 2,40,-1
 553 236 l 1,41,-1
 553 348 l 1,42,-1
 555 346 l 1,43,-1
 555 479 l 2,44,45
 555 488 555 488 554 498 c 1,46,-1
 554 519 l 2,27,28
EndSplineSet
EndChar

StartChar: uni0534
Encoding: 1332 1332 326
Width: 772
GlyphClass: 2
Flags: HW
LayerCount: 2
Fore
SplineSet
371 746 m 0,0,1
 456 746 456 746 513.5 724 c 128,-1,2
 571 702 571 702 602.5 658 c 128,-1,3
 634 614 634 614 647 558.5 c 128,-1,4
 660 503 660 503 660 425 c 2,5,-1
 660 245 l 1,6,-1
 744 245 l 1,7,-1
 744 148 l 1,8,-1
 660 148 l 1,9,-1
 660 1 l 1,10,-1
 563 1 l 1,11,-1
 563 424 l 2,12,13
 563 481 563 481 557 518 c 128,-1,14
 551 555 551 555 533 589.5 c 128,-1,15
 515 624 515 624 476.5 641 c 128,-1,16
 438 658 438 658 379 659 c 1,17,18
 262 659 262 659 221.5 602 c 128,-1,19
 181 545 181 545 181 424 c 2,20,-1
 181 341 l 1,21,-1
 84 341 l 1,22,-1
 84 425 l 2,23,24
 84 539 84 539 108.5 602 c 128,-1,25
 133 665 133 665 199 705 c 1,26,27
 265 746 265 746 371 746 c 0,0,1
EndSplineSet
EndChar

StartChar: uni0535
Encoding: 1333 1333 327
Width: 739
GlyphClass: 2
Flags: HW
LayerCount: 2
Fore
SplineSet
362 93 m 0,0,1
 480 93 480 93 520 150 c 128,-1,2
 560 207 560 207 560 328 c 2,3,-1
 560 411 l 1,4,-1
 657 411 l 1,5,-1
 657 328 l 2,6,7
 657 270 657 270 650 224.5 c 128,-1,8
 643 179 643 179 624 137 c 128,-1,9
 605 95 605 95 574 67.5 c 128,-1,10
 543 40 543 40 491.5 23 c 128,-1,11
 440 6 440 6 371 5 c 1,12,13
 286 5 286 5 227.5 27 c 128,-1,14
 169 49 169 49 137.5 94 c 128,-1,15
 106 139 106 139 93.5 194.5 c 128,-1,16
 81 250 81 250 81 328 c 2,17,-1
 81 751 l 1,18,-1
 177 751 l 1,19,-1
 178 595 l 1,20,-1
 654 595 l 1,21,-1
 654 500 l 1,22,-1
 178 500 l 1,23,-1
 177 328 l 2,24,25
 177 235 177 235 193 190.5 c 128,-1,26
 209 146 209 146 257 118 c 1,27,28
 301 93 301 93 362 93 c 0,0,1
EndSplineSet
EndChar

StartChar: uni0536
Encoding: 1334 1334 328
Width: 769
GlyphClass: 2
Flags: HW
LayerCount: 2
Fore
SplineSet
650 480 m 0,0,1
 650 421 650 421 636 367.5 c 128,-1,2
 622 314 622 314 601.5 277.5 c 128,-1,3
 581 241 581 241 554 209.5 c 128,-1,4
 527 178 527 178 505 161 c 128,-1,5
 483 144 483 144 463 134 c 1,6,-1
 589 134 l 2,7,8
 613 134 613 134 633.5 129 c 128,-1,9
 654 124 654 124 676.5 110 c 128,-1,10
 699 96 699 96 713 66.5 c 128,-1,11
 727 37 727 37 728 -6 c 1,12,-1
 643 -5 l 1,13,14
 643 51 643 51 572 53 c 1,15,-1
 139 53 l 1,16,-1
 139 -2 l 1,17,-1
 47 -2 l 1,18,-1
 47 188 l 1,19,-1
 139 188 l 1,20,-1
 139 132 l 1,21,-1
 269 132 l 2,22,23
 297 132 297 132 342 150 c 128,-1,24
 387 168 387 168 416 185 c 1,25,26
 456 207 456 207 486 236.5 c 128,-1,27
 516 266 516 266 531 288.5 c 128,-1,28
 546 311 546 311 556.5 345 c 128,-1,29
 567 379 567 379 569 391 c 128,-1,30
 571 403 571 403 575 430 c 1,31,-1
 575 456 l 2,32,33
 575 518 575 518 552.5 563.5 c 128,-1,34
 530 609 530 609 494 632 c 128,-1,35
 458 655 458 655 422 665.5 c 128,-1,36
 386 676 386 676 351 676 c 2,37,-1
 337 676 l 1,38,-1
 319 674 l 1,39,-1
 290 668 l 1,40,41
 171 637 171 637 138 523 c 1,42,-1
 130 482 l 1,43,44
 128 464 128 464 128 449 c 1,45,-1
 321 451 l 1,46,-1
 321 368 l 1,47,-1
 32 368 l 1,48,49
 31 378 31 378 31 397 c 0,50,51
 31 732 31 732 323 753 c 1,52,-1
 360 753 l 2,53,54
 374 753 374 753 386 751 c 1,55,56
 439 751 439 751 496.5 723 c 128,-1,57
 554 695 554 695 600 646 c 0,58,59
 616 629 616 629 633 578 c 128,-1,60
 650 527 650 527 650 480 c 0,0,1
EndSplineSet
EndChar

StartChar: uni0537
Encoding: 1335 1335 329
Width: 496
GlyphClass: 2
Flags: HW
LayerCount: 2
Fore
SplineSet
342 81 m 1,0,-1
 342 0 l 1,1,-1
 86 0 l 1,2,-1
 86 738 l 1,3,-1
 184 738 l 1,4,-1
 184 500 l 1,5,-1
 440 500 l 1,6,-1
 440 421 l 1,7,-1
 184 421 l 1,8,-1
 184 81 l 1,9,-1
 342 81 l 1,0,-1
EndSplineSet
EndChar

StartChar: uni0538
Encoding: 1336 1336 330
Width: 739
GlyphClass: 2
Flags: HW
LayerCount: 2
Fore
SplineSet
638 566 m 1,0,1
 645 528 l 0,2,3
 652 491 652 491 652 425 c 2,4,-1
 652 281 l 1,5,-1
 555 281 l 1,6,-1
 555 424 l 2,7,8
 555 482 555 482 548 520.5 c 128,-1,9
 541 559 541 559 521 593 c 128,-1,10
 501 627 501 627 460.5 642.5 c 128,-1,11
 420 658 420 658 357 659 c 0,12,13
 299 659 299 659 261.5 643.5 c 128,-1,14
 224 628 224 628 205 594.5 c 128,-1,15
 186 561 186 561 179.5 522 c 128,-1,16
 173 483 173 483 172 424 c 1,17,-1
 172 90 l 1,18,-1
 654 89 l 1,19,-1
 652 0 l 1,20,-1
 76 1 l 1,21,-1
 76 425 l 2,22,23
 76 485 76 485 83 531.5 c 128,-1,24
 90 578 90 578 109.5 620 c 128,-1,25
 129 662 129 662 161 688.5 c 128,-1,26
 193 715 193 715 244.5 730.5 c 128,-1,27
 296 746 296 746 366 746 c 0,28,29
 418 746 418 746 460.5 736.5 c 128,-1,30
 503 727 503 727 531 709.5 c 128,-1,31
 559 692 559 692 579 674 c 128,-1,32
 599 656 599 656 611.5 633 c 128,-1,33
 624 610 624 610 629 595.5 c 128,-1,34
 634 581 634 581 638 566 c 1,0,1
EndSplineSet
EndChar

StartChar: uni0539
Encoding: 1337 1337 331
Width: 800
GlyphClass: 2
Flags: HW
LayerCount: 2
Fore
SplineSet
466 377 m 2,0,1
 395 377 395 377 371.5 348 c 128,-1,2
 348 319 348 319 348 223 c 0,3,4
 348 136 348 136 374.5 107.5 c 128,-1,5
 401 79 401 79 493 78 c 1,6,7
 650 78 650 78 649 218 c 2,8,-1
 649 377 l 1,9,-1
 466 377 l 2,0,1
746 211 m 2,10,11
 746 115 746 115 679 56.5 c 128,-1,12
 612 -2 612 -2 503 -2 c 2,13,-1
 473 -2 l 2,14,15
 461 -2 461 -2 454 -1 c 1,16,17
 443 -1 443 -1 436 0 c 1,18,19
 416 0 416 0 384 9 c 0,20,21
 312 28 312 28 282.5 77 c 128,-1,22
 253 126 253 126 253 221 c 0,23,24
 253 351 253 351 297.5 405 c 128,-1,25
 342 459 342 459 465 459 c 2,26,-1
 649 459 l 1,27,-1
 649 526 l 2,28,29
 649 593 649 593 617 628.5 c 128,-1,30
 585 664 585 664 498 666 c 1,31,-1
 314 666 l 2,32,33
 305 666 305 666 304 667 c 1,34,-1
 289 667 l 2,35,36
 162 667 162 667 162 526 c 2,37,-1
 162 0 l 1,38,-1
 65 0 l 1,39,-1
 65 536 l 2,40,41
 65 595 65 595 88.5 638.5 c 128,-1,42
 112 682 112 682 150 704 c 128,-1,43
 188 726 188 726 227 735.5 c 128,-1,44
 266 745 266 745 308 745 c 2,45,-1
 504 745 l 2,46,47
 612 745 612 745 679 687.5 c 128,-1,48
 746 630 746 630 746 536 c 2,49,-1
 746 459 l 1,50,-1
 802 459 l 1,51,-1
 802 379 l 1,52,-1
 746 379 l 1,53,-1
 746 211 l 2,10,11
EndSplineSet
EndChar

StartChar: uni053A
Encoding: 1338 1338 332
Width: 670
GlyphClass: 2
Flags: HW
LayerCount: 2
Fore
SplineSet
555 200 m 2,0,1
 555 107 555 107 489 49.5 c 128,-1,2
 423 -8 423 -8 311 -10 c 1,3,4
 202 -10 202 -10 135.5 46.5 c 128,-1,5
 69 103 69 103 69 200 c 2,6,-1
 69 329 l 2,7,8
 69 423 69 423 134.5 480 c 128,-1,9
 200 537 200 537 311 539 c 1,10,-1
 458 539 l 1,11,-1
 458 735 l 1,12,-1
 552 735 l 1,13,-1
 552 539 l 1,14,-1
 653 539 l 1,15,-1
 653 462 l 1,16,-1
 555 462 l 1,17,-1
 555 200 l 2,0,1
311 67 m 0,18,19
 382 67 382 67 419 96.5 c 128,-1,20
 456 126 456 126 458 207 c 1,21,-1
 458 462 l 1,22,-1
 433 462 l 2,23,24
 419 462 419 462 391.5 461.5 c 128,-1,25
 364 461 364 461 350 461 c 0,26,27
 333 461 333 461 304 463 c 2,28,-1
 290 464 l 1,29,30
 268 464 268 464 249 458.5 c 128,-1,31
 230 453 230 453 210 438.5 c 128,-1,32
 190 424 190 424 178.5 392.5 c 128,-1,33
 167 361 167 361 166 316 c 1,34,-1
 166 207 l 2,35,36
 166 67 166 67 311 67 c 0,18,19
EndSplineSet
EndChar

StartChar: uni053B
Encoding: 1339 1339 333
Width: 715
GlyphClass: 2
Flags: HW
LayerCount: 2
Fore
SplineSet
544 263 m 2,0,1
 544 320 544 320 536.5 359.5 c 128,-1,2
 529 399 529 399 510.5 432.5 c 128,-1,3
 492 466 492 466 454.5 482 c 128,-1,4
 417 498 417 498 359 498 c 0,5,6
 283 498 283 498 230.5 471 c 128,-1,7
 178 444 178 444 168 390 c 0,8,9
 161 352 161 352 161 293 c 2,10,-1
 161 0 l 1,11,-1
 65 0 l 1,12,-1
 65 750 l 1,13,-1
 165 750 l 1,14,-1
 165 530 l 1,15,16
 175 554 175 554 237 571.5 c 128,-1,17
 299 589 299 589 347 589 c 0,18,19
 433 589 433 589 492 566 c 128,-1,20
 551 543 551 543 582.5 497 c 128,-1,21
 614 451 614 451 627 395.5 c 128,-1,22
 640 340 640 340 640 263 c 2,23,-1
 640 190 l 1,24,-1
 544 190 l 1,25,-1
 544 263 l 2,0,1
EndSplineSet
EndChar

StartChar: uni053C
Encoding: 1340 1340 334
Width: 427
GlyphClass: 2
Flags: HW
LayerCount: 2
Fore
SplineSet
95 0 m 1,0,-1
 95 733 l 1,1,-1
 193 733 l 1,2,-1
 193 96 l 1,3,-1
 382 95 l 1,4,-1
 382 0 l 1,5,-1
 95 0 l 1,0,-1
EndSplineSet
EndChar

StartChar: uni053D
Encoding: 1341 1341 335
Width: 873
GlyphClass: 2
Flags: HW
LayerCount: 2
Fore
SplineSet
557 75 m 0,0,1
 583 75 583 75 598.5 78 c 128,-1,2
 614 81 614 81 637 92 c 128,-1,3
 660 103 660 103 675.5 133 c 128,-1,4
 691 163 691 163 699 210 c 1,5,6
 699 219 699 219 702 243 c 0,7,8
 702 250 702 250 703.5 277.5 c 128,-1,9
 705 305 705 305 705 310 c 2,10,-1
 705 540 l 1,11,-1
 802 540 l 1,12,-1
 802 309 l 2,13,14
 802 136 802 136 740.5 62 c 128,-1,15
 679 -12 679 -12 565 -12 c 0,16,17
 490 -12 490 -12 437 5.5 c 128,-1,18
 384 23 384 23 353 51.5 c 128,-1,19
 322 80 322 80 304 127.5 c 128,-1,20
 286 175 286 175 280 223.5 c 128,-1,21
 274 272 274 272 274 342 c 0,22,23
 274 361 274 361 274.5 401 c 128,-1,24
 275 441 275 441 275 460 c 1,25,-1
 165 459 l 1,26,-1
 165 0 l 1,27,-1
 68 0 l 1,28,-1
 68 740 l 1,29,-1
 165 740 l 1,30,-1
 165 541 l 1,31,-1
 373 540 l 1,32,-1
 373 310 l 2,33,34
 373 252 373 252 379 213.5 c 128,-1,35
 385 175 385 175 404 142 c 128,-1,36
 423 109 423 109 460.5 92.5 c 128,-1,37
 498 76 498 76 557 75 c 0,0,1
EndSplineSet
EndChar

StartChar: uni053E
Encoding: 1342 1342 336
Width: 809
GlyphClass: 2
Flags: HW
LayerCount: 2
Fore
SplineSet
121 780 m 1,0,1
 125 724 125 724 219 724 c 2,2,-1
 644 724 l 2,3,4
 740 724 740 724 777 678 c 1,5,-1
 786 662 l 1,6,-1
 720 597 l 1,7,8
 716 617 716 617 704.5 628 c 128,-1,9
 693 639 693 639 683.5 640.5 c 128,-1,10
 674 642 674 642 657 642 c 2,11,-1
 528 643 l 2,12,13
 537 643 537 643 581 615 c 0,14,15
 726 520 726 520 729 319 c 1,16,17
 729 182 729 182 626 89 c 1,18,19
 526 -4 526 -4 384 -4 c 0,20,21
 242 -4 242 -4 145 95 c 128,-1,22
 48 194 48 194 48 338 c 0,23,24
 48 424 48 424 89 496 c 128,-1,25
 130 568 130 568 195 614 c 0,26,27
 237 645 237 645 246 646 c 1,28,-1
 163 647 l 1,29,30
 36 647 36 647 36 730 c 2,31,-1
 36 738 l 1,32,-1
 121 780 l 1,0,1
642 324 m 1,33,34
 642 439 642 439 570.5 517.5 c 128,-1,35
 499 596 499 596 393.5 596 c 128,-1,36
 288 596 288 596 210 512 c 0,37,38
 133 428 133 428 133 319 c 0,39,40
 133 221 133 221 208 146 c 0,41,42
 281 73 281 73 381 72 c 1,43,44
 484 72 484 72 563 147 c 0,45,46
 640 221 640 221 642 324 c 1,33,34
EndSplineSet
EndChar

StartChar: uni053F
Encoding: 1343 1343 337
Width: 728
GlyphClass: 2
Flags: HW
LayerCount: 2
Fore
SplineSet
369 163 m 0,0,1
 283 163 283 163 224.5 185.5 c 128,-1,2
 166 208 166 208 134 253 c 128,-1,3
 102 298 102 298 89 354 c 128,-1,4
 76 410 76 410 76 487 c 2,5,-1
 76 751 l 1,6,-1
 172 751 l 1,7,-1
 172 488 l 2,8,9
 172 395 172 395 188 350.5 c 128,-1,10
 204 306 204 306 252 278 c 1,11,12
 294 255 294 255 357 253 c 1,13,14
 403 253 403 253 438.5 262 c 128,-1,15
 474 271 474 271 493 283.5 c 128,-1,16
 512 296 512 296 525 314.5 c 128,-1,17
 538 333 538 333 541.5 344 c 128,-1,18
 545 355 545 355 548 370 c 0,19,20
 555 412 555 412 555 488 c 2,21,-1
 555 566 l 1,22,-1
 652 566 l 1,23,-1
 651 1 l 1,24,-1
 552 1 l 1,25,-1
 552 221 l 1,26,27
 542 199 542 199 495 181 c 128,-1,28
 448 163 448 163 369 163 c 0,0,1
EndSplineSet
EndChar

StartChar: uni0540
Encoding: 1344 1344 338
Width: 602
GlyphClass: 2
Flags: HW
LayerCount: 2
Fore
SplineSet
516 742 m 0,0,1
 561 742 561 742 581 727 c 1,2,-1
 581 622 l 1,3,-1
 567 638 l 1,4,5
 550 652 550 652 526 654 c 1,6,7
 488 654 488 654 449 607 c 2,8,-1
 171 271 l 1,9,-1
 564 91 l 1,10,-1
 564 -76 l 1,11,-1
 531 -76 l 1,12,13
 525 -44 525 -44 511.5 -19.5 c 128,-1,14
 498 5 498 5 474 22.5 c 128,-1,15
 450 40 450 40 441 45 c 128,-1,16
 432 50 432 50 411 60 c 2,17,-1
 24 234 l 1,18,-1
 404 685 l 1,19,20
 450 742 450 742 516 742 c 0,0,1
EndSplineSet
EndChar

StartChar: uni0541
Encoding: 1345 1345 339
Width: 678
GlyphClass: 2
Flags: HW
LayerCount: 2
Fore
SplineSet
340 669 m 0,0,1
 270 669 270 669 223.5 624.5 c 128,-1,2
 177 580 177 580 177 507 c 2,3,-1
 177 444 l 1,4,-1
 80 446 l 1,5,-1
 80 514 l 2,6,7
 80 585 80 585 122.5 639.5 c 128,-1,8
 165 694 165 694 228 724 c 1,9,10
 277 746 277 746 340 745 c 0,11,12
 459 745 459 745 531.5 676 c 128,-1,13
 604 607 604 607 606 494 c 1,14,-1
 606 429 l 2,15,16
 606 328 606 328 554.5 237.5 c 128,-1,17
 503 147 503 147 415 86 c 1,18,19
 429 74 429 74 443 58.5 c 128,-1,20
 457 43 457 43 472.5 22.5 c 128,-1,21
 488 2 488 2 498 -8 c 1,22,-1
 423 -43 l 1,23,24
 375 -3 375 -3 346 37 c 1,25,26
 272 -2 272 -2 225 -10 c 1,27,-1
 205 -11 l 1,28,29
 145 -11 145 -11 109.5 12 c 128,-1,30
 74 35 74 35 62 69 c 2,31,-1
 55 91 l 1,32,-1
 52 109 l 1,33,34
 52 172 52 172 85.5 206.5 c 128,-1,35
 119 241 119 241 178 243 c 0,36,37
 206 243 206 243 233 234 c 1,38,-1
 246 231 l 2,39,40
 316 214 316 214 359 141 c 1,41,42
 424 182 424 182 467.5 265 c 128,-1,43
 511 348 511 348 511 439 c 2,44,-1
 511 484 l 2,45,46
 511 528 511 528 496 563 c 128,-1,47
 481 598 481 598 460 617 c 128,-1,48
 439 636 439 636 413.5 649 c 128,-1,49
 388 662 388 662 370 665.5 c 128,-1,50
 352 669 352 669 340 669 c 0,0,1
183 165 m 0,51,52
 143 165 143 165 140 105 c 1,53,54
 140 71 140 71 204 66 c 1,55,56
 248 66 248 66 284 101 c 1,57,58
 271 123 271 123 242.5 144 c 128,-1,59
 214 165 214 165 183 165 c 0,51,52
EndSplineSet
EndChar

StartChar: uni0542
Encoding: 1346 1346 340
Width: 680
GlyphClass: 2
Flags: HW
LayerCount: 2
Fore
SplineSet
324 745 m 0,0,1
 433 745 433 745 499.5 687.5 c 128,-1,2
 566 630 566 630 566 536 c 2,3,-1
 566 77 l 1,4,-1
 666 77 l 1,5,-1
 666 0 l 1,6,-1
 469 0 l 1,7,-1
 469 529 l 2,8,9
 469 595 469 595 438 631 c 128,-1,10
 407 667 407 667 324 669 c 1,11,12
 255 669 255 669 216.5 638 c 128,-1,13
 178 607 178 607 178 529 c 2,14,-1
 178 321 l 1,15,-1
 81 321 l 1,16,-1
 81 536 l 2,17,18
 81 628 81 628 147.5 686.5 c 128,-1,19
 214 745 214 745 324 745 c 0,0,1
EndSplineSet
EndChar

StartChar: uni0543
Encoding: 1347 1347 341
Width: 680
GlyphClass: 2
Flags: HW
LayerCount: 2
Fore
SplineSet
640 0 m 1,0,-1
 48 0 l 1,1,2
 48 139 48 139 91.5 266.5 c 128,-1,3
 135 394 135 394 207 485 c 1,4,5
 253 547 253 547 262 549 c 1,6,7
 236 567 236 567 188 586 c 1,8,-1
 250 658 l 1,9,10
 275 651 275 651 297 643 c 128,-1,11
 319 635 319 635 341 621 c 1,12,13
 406 679 406 679 543 741 c 1,14,-1
 610 673 l 1,15,16
 488 619 488 619 420 570 c 1,17,18
 428 570 428 570 477 503 c 0,19,20
 549 407 549 407 594.5 273.5 c 128,-1,21
 640 140 640 140 640 0 c 1,0,-1
550 98 m 1,22,-1
 532 169 l 1,23,24
 470 384 470 384 350 508 c 1,25,26
 341 508 341 508 293 430 c 128,-1,27
 245 352 245 352 222 308 c 1,28,29
 174 207 174 207 154 98 c 1,30,-1
 550 98 l 1,22,-1
EndSplineSet
EndChar

StartChar: uni0544
Encoding: 1348 1348 342
Width: 774
GlyphClass: 2
Flags: HW
LayerCount: 2
Fore
SplineSet
341 87 m 0,0,1
 398 87 398 87 436 103.5 c 128,-1,2
 474 120 474 120 493 153.5 c 128,-1,3
 512 187 512 187 519 226 c 128,-1,4
 526 265 526 265 526 322 c 2,5,-1
 526 746 l 1,6,-1
 730 746 l 1,7,-1
 731 651 l 1,8,-1
 623 650 l 1,9,-1
 623 322 l 2,10,11
 623 243 623 243 610 187 c 128,-1,12
 597 131 597 131 565.5 87 c 128,-1,13
 534 43 534 43 476 21.5 c 128,-1,14
 418 0 418 0 333 0 c 0,15,16
 249 0 249 0 191.5 23 c 128,-1,17
 134 46 134 46 103 91 c 128,-1,18
 72 136 72 136 59 191.5 c 128,-1,19
 46 247 46 247 46 322 c 2,20,-1
 46 745 l 1,21,-1
 143 745 l 1,22,-1
 143 322 l 2,23,24
 143 201 143 201 183 144 c 128,-1,25
 223 87 223 87 341 87 c 0,0,1
EndSplineSet
EndChar

StartChar: uni0545
Encoding: 1349 1349 343
Width: 637
GlyphClass: 2
Flags: HW
LayerCount: 2
Fore
SplineSet
458 395 m 1,0,1
 500 390 500 390 533.5 339.5 c 128,-1,2
 567 289 567 289 567 208 c 0,3,4
 567 106 567 106 492.5 47 c 128,-1,5
 418 -12 418 -12 305 -12 c 0,6,7
 277 -12 277 -12 271 -11 c 1,8,9
 224 -11 224 -11 174.5 12.5 c 128,-1,10
 125 36 125 36 87.5 86 c 128,-1,11
 50 136 50 136 50 199 c 1,12,-1
 145 199 l 1,13,14
 145 125 145 125 206 97 c 0,15,16
 277 64 277 64 308 65 c 0,17,18
 348 65 348 65 410 93 c 0,19,20
 471 121 471 121 471 214 c 0,21,22
 471 303 471 303 418 332 c 0,23,24
 364 361 364 361 314 360 c 2,25,-1
 77 360 l 1,26,-1
 77 439 l 1,27,-1
 313 439 l 2,28,29
 447 439 447 439 450 557 c 1,30,31
 450 616 450 616 404.5 642.5 c 128,-1,32
 359 669 359 669 306 669 c 0,33,34
 252 669 252 669 215.5 641.5 c 128,-1,35
 179 614 179 614 179 569 c 1,36,-1
 81 569 l 1,37,38
 81 598 81 598 91.5 626 c 128,-1,39
 102 654 102 654 126 682.5 c 128,-1,40
 150 711 150 711 196.5 728 c 128,-1,41
 243 745 243 745 307 745 c 0,42,43
 361 745 361 745 404 733 c 128,-1,44
 447 721 447 721 473 701.5 c 128,-1,45
 499 682 499 682 515.5 656 c 128,-1,46
 532 630 532 630 538.5 605 c 128,-1,47
 545 580 545 580 545 554 c 0,48,49
 545 475 545 475 512 439 c 0,50,51
 481 404 481 404 458 395 c 1,0,1
EndSplineSet
EndChar

StartChar: uni0546
Encoding: 1350 1350 344
Width: 791
GlyphClass: 2
Flags: HW
LayerCount: 2
Fore
SplineSet
457 0 m 128,-1,1
 372 0 372 0 315 20 c 128,-1,2
 258 40 258 40 227 83.5 c 128,-1,3
 196 127 196 127 182.5 183 c 128,-1,4
 169 239 169 239 167 322 c 1,5,-1
 167 650 l 1,6,-1
 9 651 l 1,7,-1
 9 746 l 1,8,-1
 264 746 l 1,9,-1
 264 322 l 2,10,11
 264 230 264 230 279.5 185 c 128,-1,12
 295 140 295 140 343 112 c 1,13,14
 387 87 387 87 449 87 c 0,15,16
 567 87 567 87 606.5 144 c 128,-1,17
 646 201 646 201 646 322 c 2,18,-1
 646 465 l 1,19,-1
 743 465 l 1,20,-1
 743 322 l 2,21,22
 743 247 743 247 731 192.5 c 128,-1,23
 719 138 719 138 688 92.5 c 128,-1,24
 657 47 657 47 599.5 23.5 c 128,-1,0
 542 0 542 0 457 0 c 128,-1,1
EndSplineSet
EndChar

StartChar: uni0547
Encoding: 1351 1351 345
Width: 617
GlyphClass: 2
Flags: HW
LayerCount: 2
Fore
SplineSet
41 341 m 2,0,1
 41 459 41 459 97.5 534.5 c 128,-1,2
 154 610 154 610 238 640 c 1,3,-1
 94 671 l 1,4,-1
 94 757 l 1,5,-1
 526 657 l 1,6,-1
 526 572 l 1,7,8
 510 575 510 575 465 587 c 128,-1,9
 420 599 420 599 391 601 c 2,10,-1
 369 602 l 2,11,12
 351 602 351 602 319 597 c 1,13,14
 310 597 310 597 295 592 c 2,15,-1
 269 583 l 1,16,17
 214 565 214 565 177.5 504 c 128,-1,18
 141 443 141 443 141 341 c 2,19,-1
 141 248 l 2,20,21
 141 178 141 178 171 136.5 c 128,-1,22
 201 95 201 95 245 79 c 1,23,-1
 280 68 l 1,24,-1
 295 66 l 1,25,-1
 308 65 l 1,26,27
 355 65 355 65 413 99 c 1,28,29
 471 133 471 133 471 226 c 2,30,-1
 471 292 l 1,31,-1
 569 292 l 1,32,-1
 569 220 l 2,33,34
 569 135 569 135 504 66 c 0,35,36
 431 -12 431 -12 308 -12 c 0,37,38
 248 -12 248 -12 199.5 7 c 128,-1,39
 151 26 151 26 122 54 c 128,-1,40
 93 82 93 82 74 115 c 128,-1,41
 55 148 55 148 48 174.5 c 128,-1,42
 41 201 41 201 41 220 c 2,43,-1
 41 341 l 2,0,1
EndSplineSet
EndChar

StartChar: uni0548
Encoding: 1352 1352 346
Width: 739
GlyphClass: 2
Flags: HW
LayerCount: 2
Fore
SplineSet
638 566 m 1,0,1
 645 528 l 0,2,3
 652 491 652 491 652 425 c 2,4,-1
 652 1 l 1,5,-1
 555 1 l 1,6,-1
 555 424 l 2,7,8
 555 482 555 482 548 520.5 c 128,-1,9
 541 559 541 559 521 593 c 128,-1,10
 501 627 501 627 460.5 642.5 c 128,-1,11
 420 658 420 658 357 659 c 0,12,13
 299 659 299 659 261.5 643.5 c 128,-1,14
 224 628 224 628 205 594.5 c 128,-1,15
 186 561 186 561 179.5 522 c 128,-1,16
 173 483 173 483 172 424 c 1,17,-1
 172 1 l 1,18,-1
 76 1 l 1,19,-1
 76 425 l 2,20,21
 76 485 76 485 83 531.5 c 128,-1,22
 90 578 90 578 109.5 620 c 128,-1,23
 129 662 129 662 161 688.5 c 128,-1,24
 193 715 193 715 244.5 730.5 c 128,-1,25
 296 746 296 746 366 746 c 0,26,27
 418 746 418 746 460.5 736.5 c 128,-1,28
 503 727 503 727 531 709.5 c 128,-1,29
 559 692 559 692 579 674 c 128,-1,30
 599 656 599 656 611.5 633 c 128,-1,31
 624 610 624 610 629 595.5 c 128,-1,32
 634 581 634 581 638 566 c 1,0,1
EndSplineSet
EndChar

StartChar: uni0549
Encoding: 1353 1353 347
Width: 663
GlyphClass: 2
Flags: HW
LayerCount: 2
Fore
SplineSet
597 395 m 2,0,1
 597 334 597 334 574 282 c 128,-1,2
 551 230 551 230 513 196 c 128,-1,3
 475 162 475 162 432 140.5 c 128,-1,4
 389 119 389 119 343 111 c 1,5,-1
 498 70 l 1,6,-1
 500 -14 l 1,7,-1
 88 93 l 1,8,-1
 88 180 l 1,9,-1
 222 142 l 1,10,11
 354 153 354 153 426 222.5 c 128,-1,12
 498 292 498 292 498 412 c 2,13,-1
 498 499 l 2,14,15
 498 547 498 547 482.5 580.5 c 128,-1,16
 467 614 467 614 439.5 631.5 c 128,-1,17
 412 649 412 649 386.5 657 c 128,-1,18
 361 665 361 665 328 669 c 1,19,20
 255 669 255 669 210.5 625.5 c 128,-1,21
 166 582 166 582 165 507 c 1,22,-1
 165 441 l 1,23,-1
 68 440 l 1,24,-1
 68 514 l 2,25,26
 68 599 68 599 133 669 c 1,27,28
 210 746 210 746 328 745 c 0,29,30
 391 745 391 745 442 725.5 c 128,-1,31
 493 706 493 706 520 678 c 128,-1,32
 547 650 547 650 565.5 615.5 c 128,-1,33
 584 581 584 581 589.5 556.5 c 128,-1,34
 595 532 595 532 596 514 c 2,35,-1
 597 395 l 2,0,1
EndSplineSet
EndChar

StartChar: uni054A
Encoding: 1354 1354 348
Width: 739
GlyphClass: 2
Flags: HW
LayerCount: 2
Fore
SplineSet
638 566 m 1,0,1
 645 528 l 0,2,3
 652 491 652 491 652 425 c 2,4,-1
 652 1 l 1,5,-1
 555 1 l 1,6,-1
 555 424 l 2,7,8
 555 492 555 492 545.5 536 c 128,-1,9
 536 580 536 580 513 604.5 c 128,-1,10
 490 629 490 629 468 639.5 c 128,-1,11
 446 650 446 650 407 660 c 1,12,-1
 407 251 l 2,13,14
 407 229 407 229 404 228 c 1,15,-1
 307 228 l 1,16,-1
 307 659 l 1,17,18
 278 659 278 659 271 656 c 2,19,-1
 246 642 l 1,20,21
 174 599 174 599 172 424 c 1,22,-1
 172 381 l 1,23,-1
 76 381 l 1,24,-1
 76 425 l 2,25,26
 76 485 76 485 83 531.5 c 128,-1,27
 90 578 90 578 109.5 620 c 128,-1,28
 129 662 129 662 161 688.5 c 128,-1,29
 193 715 193 715 244.5 730.5 c 128,-1,30
 296 746 296 746 366 746 c 0,31,32
 418 746 418 746 460.5 736.5 c 128,-1,33
 503 727 503 727 531 709.5 c 128,-1,34
 559 692 559 692 579 674 c 128,-1,35
 599 656 599 656 611.5 633 c 128,-1,36
 624 610 624 610 629 595.5 c 128,-1,37
 634 581 634 581 638 566 c 1,0,1
EndSplineSet
EndChar

StartChar: uni054B
Encoding: 1355 1355 349
Width: 769
GlyphClass: 2
Flags: HW
LayerCount: 2
Fore
SplineSet
530 288 m 1,0,1
 572 375 572 375 575 449 c 1,2,3
 575 514 575 514 553.5 560.5 c 128,-1,4
 532 607 532 607 495.5 630.5 c 128,-1,5
 459 654 459 654 420 665 c 128,-1,6
 381 676 381 676 337 676 c 0,7,8
 288 676 288 676 249 658.5 c 128,-1,9
 210 641 210 641 187.5 615 c 128,-1,10
 165 589 165 589 150 555.5 c 128,-1,11
 135 522 135 522 130 495 c 128,-1,12
 125 468 125 468 125 444 c 1,13,14
 484 445 484 445 530 288 c 1,0,1
650 480.5 m 128,-1,16
 650 421 650 421 636 367.5 c 128,-1,17
 622 314 622 314 601.5 277.5 c 128,-1,18
 581 241 581 241 554 209.5 c 128,-1,19
 527 178 527 178 505 161 c 128,-1,20
 483 144 483 144 463 134 c 1,21,-1
 589 134 l 2,22,23
 656 134 656 134 691 97 c 128,-1,24
 726 60 726 60 728 -8 c 1,25,-1
 643 -5 l 1,26,27
 643 51 643 51 572 53 c 1,28,-1
 139 53 l 1,29,-1
 139 -2 l 1,30,-1
 47 -2 l 1,31,-1
 47 188 l 1,32,-1
 139 188 l 1,33,-1
 139 132 l 1,34,-1
 269 132 l 2,35,36
 339 132 339 132 394 161 c 128,-1,37
 449 190 449 190 449 243 c 0,38,39
 449 283 449 283 417 309.5 c 128,-1,40
 385 336 385 336 332.5 346.5 c 128,-1,41
 280 357 280 357 242.5 360.5 c 128,-1,42
 205 364 205 364 163 364 c 1,43,-1
 81 366 l 2,44,45
 52 366 52 366 43 369 c 1,46,-1
 43 460 l 2,47,48
 43 496 43 496 50.5 532 c 128,-1,49
 58 568 58 568 79 609 c 128,-1,50
 100 650 100 650 132 681 c 128,-1,51
 164 712 164 712 217.5 732.5 c 128,-1,52
 271 753 271 753 339 753 c 0,53,54
 364 753 364 753 389.5 749.5 c 128,-1,55
 415 746 415 746 453.5 737.5 c 128,-1,56
 492 729 492 729 524 710 c 128,-1,57
 556 691 556 691 585.5 663 c 128,-1,58
 615 635 615 635 632.5 587.5 c 128,-1,15
 650 540 650 540 650 480.5 c 128,-1,16
EndSplineSet
EndChar

StartChar: uni054C
Encoding: 1356 1356 350
Width: 768
GlyphClass: 2
Flags: HW
LayerCount: 2
Fore
SplineSet
638 566 m 1,0,1
 645 528 l 0,2,3
 652 491 652 491 652 425 c 2,4,-1
 652 256 l 1,5,-1
 729 256 l 1,6,-1
 730 174 l 1,7,-1
 649 173 l 1,8,-1
 650 2 l 1,9,-1
 555 1 l 1,10,-1
 555 424 l 2,11,12
 555 482 555 482 548 520.5 c 128,-1,13
 541 559 541 559 521 593 c 128,-1,14
 501 627 501 627 460.5 642.5 c 128,-1,15
 420 658 420 658 357 659 c 0,16,17
 299 659 299 659 261.5 643.5 c 128,-1,18
 224 628 224 628 205 594.5 c 128,-1,19
 186 561 186 561 179.5 522 c 128,-1,20
 173 483 173 483 172 424 c 1,21,-1
 172 1 l 1,22,-1
 76 1 l 1,23,-1
 76 425 l 2,24,25
 76 485 76 485 83 531.5 c 128,-1,26
 90 578 90 578 109.5 620 c 128,-1,27
 129 662 129 662 161 688.5 c 128,-1,28
 193 715 193 715 244.5 730.5 c 128,-1,29
 296 746 296 746 366 746 c 0,30,31
 418 746 418 746 460.5 736.5 c 128,-1,32
 503 727 503 727 531 709.5 c 128,-1,33
 559 692 559 692 579 674 c 128,-1,34
 599 656 599 656 611.5 633 c 128,-1,35
 624 610 624 610 629 595.5 c 128,-1,36
 634 581 634 581 638 566 c 1,0,1
EndSplineSet
EndChar

StartChar: uni054D
Encoding: 1357 1357 351
Width: 739
GlyphClass: 2
Flags: HW
LayerCount: 2
Fore
SplineSet
362 75 m 1,0,1
 479 75 479 75 519.5 132 c 128,-1,2
 560 189 560 189 560 310 c 2,3,-1
 560 733 l 1,4,-1
 657 733 l 1,5,-1
 657 309 l 2,6,7
 657 237 657 237 645.5 184 c 128,-1,8
 634 131 634 131 604 84 c 128,-1,9
 574 37 574 37 515.5 12.5 c 128,-1,10
 457 -12 457 -12 371 -12 c 0,11,12
 206 -12 206 -12 143.5 67.5 c 128,-1,13
 81 147 81 147 81 309 c 2,14,-1
 81 733 l 1,15,-1
 177 733 l 1,16,-1
 177 310 l 2,17,18
 177 216 177 216 193 171.5 c 128,-1,19
 209 127 209 127 257 100 c 0,20,21
 301 77 301 77 362 75 c 1,0,1
EndSplineSet
EndChar

StartChar: uni054E
Encoding: 1358 1358 352
Width: 765
GlyphClass: 2
Flags: HW
LayerCount: 2
Fore
SplineSet
369 163 m 0,0,1
 283 163 283 163 224.5 185.5 c 128,-1,2
 166 208 166 208 134 253 c 128,-1,3
 102 298 102 298 89 354 c 128,-1,4
 76 410 76 410 76 487 c 2,5,-1
 76 591 l 1,6,-1
 172 591 l 1,7,-1
 172 488 l 2,8,9
 172 395 172 395 188 350.5 c 128,-1,10
 204 306 204 306 252 278 c 1,11,12
 294 255 294 255 357 253 c 1,13,14
 403 253 403 253 438.5 262 c 128,-1,15
 474 271 474 271 493 283.5 c 128,-1,16
 512 296 512 296 525 314.5 c 128,-1,17
 538 333 538 333 541.5 344 c 128,-1,18
 545 355 545 355 548 370 c 0,19,20
 555 412 555 412 555 488 c 2,21,-1
 555 746 l 1,22,-1
 652 746 l 1,23,-1
 652 97 l 1,24,-1
 744 97 l 1,25,-1
 744 1 l 1,26,-1
 552 1 l 1,27,-1
 552 221 l 1,28,29
 542 199 542 199 495 181 c 128,-1,30
 448 163 448 163 369 163 c 0,0,1
EndSplineSet
EndChar

StartChar: uni054F
Encoding: 1359 1359 353
Width: 683
GlyphClass: 2
Flags: HW
LayerCount: 2
Fore
SplineSet
536 199 m 0,0,1
 536 240 536 240 511 266 c 128,-1,2
 486 292 486 292 447 305 c 128,-1,3
 408 318 408 318 359.5 328 c 128,-1,4
 311 338 311 338 262 351.5 c 128,-1,5
 213 365 213 365 172.5 384.5 c 128,-1,6
 132 404 132 404 104.5 444.5 c 128,-1,7
 77 485 77 485 74 544 c 1,8,9
 74 638 74 638 148 691.5 c 128,-1,10
 222 745 222 745 332 745 c 0,11,12
 378 745 378 745 417 737.5 c 128,-1,13
 456 730 456 730 482 719 c 128,-1,14
 508 708 508 708 529.5 689.5 c 128,-1,15
 551 671 551 671 562.5 656.5 c 128,-1,16
 574 642 574 642 584 619.5 c 128,-1,17
 594 597 594 597 596.5 586 c 128,-1,18
 599 575 599 575 603 557 c 2,19,-1
 607 538 l 1,20,-1
 607 526 l 1,21,-1
 514 519 l 1,22,23
 502 657 502 657 336 660 c 1,24,25
 260 660 260 660 214 632 c 128,-1,26
 168 604 168 604 168 550 c 0,27,28
 168 510 168 510 202.5 485 c 128,-1,29
 237 460 237 460 290.5 446.5 c 128,-1,30
 344 433 344 433 401.5 420.5 c 128,-1,31
 459 408 459 408 514.5 380.5 c 128,-1,32
 570 353 570 353 599 311 c 0,33,34
 610 295 610 295 617 276.5 c 128,-1,35
 624 258 624 258 625.5 246 c 128,-1,36
 627 234 627 234 630 207 c 1,37,38
 630 113 630 113 552 50.5 c 128,-1,39
 474 -12 474 -12 358 -12 c 0,40,41
 269 -12 269 -12 204.5 12 c 128,-1,42
 140 36 140 36 107.5 75 c 128,-1,43
 75 114 75 114 60.5 154 c 128,-1,44
 46 194 46 194 46 236 c 1,45,-1
 137 244 l 1,46,47
 149 99 149 99 322 76 c 1,48,-1
 354 75 l 1,49,50
 428 75 428 75 482 107.5 c 128,-1,51
 536 140 536 140 536 199 c 0,0,1
EndSplineSet
EndChar

StartChar: uni0550
Encoding: 1360 1360 354
Width: 715
GlyphClass: 2
Flags: HW
LayerCount: 2
Fore
SplineSet
638 566 m 1,0,1
 645 528 l 0,2,3
 652 491 652 491 652 425 c 2,4,-1
 652 301 l 1,5,-1
 555 301 l 1,6,-1
 555 424 l 2,7,8
 555 482 555 482 548 520.5 c 128,-1,9
 541 559 541 559 521 593 c 128,-1,10
 501 627 501 627 460.5 642.5 c 128,-1,11
 420 658 420 658 357 659 c 0,12,13
 299 659 299 659 261.5 643.5 c 128,-1,14
 224 628 224 628 205 594.5 c 128,-1,15
 186 561 186 561 179.5 522 c 128,-1,16
 173 483 173 483 172 424 c 1,17,-1
 172 1 l 1,18,-1
 76 1 l 1,19,-1
 76 425 l 2,20,21
 76 485 76 485 83 531.5 c 128,-1,22
 90 578 90 578 109.5 620 c 128,-1,23
 129 662 129 662 161 688.5 c 128,-1,24
 193 715 193 715 244.5 730.5 c 128,-1,25
 296 746 296 746 366 746 c 0,26,27
 418 746 418 746 460.5 736.5 c 128,-1,28
 503 727 503 727 531 709.5 c 128,-1,29
 559 692 559 692 579 674 c 128,-1,30
 599 656 599 656 611.5 633 c 128,-1,31
 624 610 624 610 629 595.5 c 128,-1,32
 634 581 634 581 638 566 c 1,0,1
EndSplineSet
EndChar

StartChar: uni0551
Encoding: 1361 1361 355
Width: 637
GlyphClass: 2
Flags: HW
LayerCount: 2
Fore
SplineSet
81 557 m 0,0,1
 81 589 81 589 90.5 618 c 128,-1,2
 100 647 100 647 123.5 678 c 128,-1,3
 147 709 147 709 197.5 727 c 128,-1,4
 248 745 248 745 319 745 c 0,5,6
 556 745 556 745 559 557 c 1,7,8
 559 454 559 454 469 416 c 1,9,10
 511 406 511 406 546 353.5 c 128,-1,11
 581 301 581 301 583 216 c 1,12,13
 583 116 583 116 510.5 52 c 128,-1,14
 438 -12 438 -12 321 -12 c 0,15,16
 204 -12 204 -12 135 45.5 c 128,-1,17
 66 103 66 103 61 208 c 1,18,-1
 157 208 l 1,19,20
 157 117 157 117 265 75 c 1,21,-1
 300 67 l 1,22,-1
 321 65 l 1,23,24
 341 65 341 65 362 68.5 c 128,-1,25
 383 72 383 72 406 82.5 c 128,-1,26
 429 93 429 93 446.5 109 c 128,-1,27
 464 125 464 125 475 152.5 c 128,-1,28
 486 180 486 180 486 216 c 0,29,30
 486 275 486 275 458.5 311 c 128,-1,31
 431 347 431 347 389 357 c 1,32,-1
 354 365 l 1,33,-1
 322 368 l 1,34,35
 216 368 216 368 179 313 c 1,36,-1
 71 314 l 1,37,38
 93 381 93 381 168 414 c 1,39,40
 145 422 145 422 114 454 c 0,41,42
 83 484 83 484 81 557 c 0,0,1
174 557 m 128,-1,44
 174 508 174 508 216 475 c 128,-1,45
 258 442 258 442 319.5 442 c 128,-1,46
 381 442 381 442 422 470.5 c 128,-1,47
 463 499 463 499 463 557 c 0,48,49
 463 598 463 598 438 624 c 128,-1,50
 413 650 413 650 382.5 659 c 128,-1,51
 352 668 352 668 318 668 c 0,52,53
 259 668 259 668 216.5 637 c 128,-1,43
 174 606 174 606 174 557 c 128,-1,44
EndSplineSet
EndChar

StartChar: uni0552
Encoding: 1362 1362 356
Width: 427
GlyphClass: 2
Flags: HW
LayerCount: 2
Fore
SplineSet
78 740 m 1,0,-1
 175 740 l 1,1,-1
 175 486 l 1,2,-1
 359 486 l 1,3,-1
 359 404 l 1,4,-1
 175 404 l 1,5,-1
 175 0 l 1,6,-1
 78 0 l 1,7,-1
 78 740 l 1,0,-1
EndSplineSet
EndChar

StartChar: uni0553
Encoding: 1363 1363 357
Width: 803
GlyphClass: 2
Flags: HW
LayerCount: 2
Fore
SplineSet
353 49 m 1,0,1
 324 52 324 52 293.5 60 c 128,-1,2
 263 68 263 68 215 90.5 c 128,-1,3
 167 113 167 113 131.5 145 c 128,-1,4
 96 177 96 177 69.5 236.5 c 128,-1,5
 43 296 43 296 43 371 c 0,6,7
 43 444 43 444 68.5 501 c 128,-1,8
 94 558 94 558 129 590 c 128,-1,9
 164 622 164 622 211.5 644.5 c 128,-1,10
 259 667 259 667 290.5 674.5 c 128,-1,11
 322 682 322 682 353 686 c 1,12,-1
 353 742 l 1,13,-1
 450 742 l 1,14,-1
 450 686 l 1,15,-1
 458 686 l 2,16,17
 464 686 464 686 468 685 c 2,18,-1
 490 681 l 1,19,20
 555 668 555 668 600.5 642.5 c 128,-1,21
 646 617 646 617 689 572 c 0,22,23
 758 500 758 500 758 371 c 0,24,25
 758 310 758 310 741 259 c 128,-1,26
 724 208 724 208 695 174.5 c 128,-1,27
 666 141 666 141 633 116.5 c 128,-1,28
 600 92 600 92 563 78.5 c 128,-1,29
 526 65 526 65 499.5 58 c 128,-1,30
 473 51 473 51 450 49 c 1,31,-1
 450 1 l 1,32,-1
 353 1 l 1,33,-1
 353 49 l 1,0,1
353 605 m 1,34,35
 331 603 331 603 309 597 c 128,-1,36
 287 591 287 591 255.5 574.5 c 128,-1,37
 224 558 224 558 200 533.5 c 128,-1,38
 176 509 176 509 158.5 466 c 128,-1,39
 141 423 141 423 140 369 c 1,40,41
 140 170 140 170 353 129 c 1,42,-1
 353 605 l 1,34,35
450 129 m 1,43,44
 658 167 658 167 664 369 c 1,45,46
 664 472 664 472 607 532 c 128,-1,47
 550 592 550 592 450 605 c 1,48,-1
 450 129 l 1,43,44
EndSplineSet
EndChar

StartChar: uni0554
Encoding: 1364 1364 358
Width: 653
GlyphClass: 2
Flags: HW
LayerCount: 2
Fore
SplineSet
370 745 m 0,0,1
 478 745 478 745 541 689 c 128,-1,2
 604 633 604 633 608 534 c 1,3,4
 608 415 608 415 549 348.5 c 128,-1,5
 490 282 490 282 379.5 282 c 128,-1,6
 269 282 269 282 222 343 c 1,7,-1
 222 204 l 1,8,-1
 612 204 l 1,9,-1
 612 124 l 1,10,-1
 221 124 l 1,11,-1
 221 0 l 1,12,-1
 126 0 l 1,13,-1
 126 124 l 1,14,-1
 37 124 l 1,15,-1
 37 204 l 1,16,-1
 126 204 l 1,17,-1
 126 536 l 2,18,19
 126 630 126 630 193 687.5 c 128,-1,20
 260 745 260 745 370 745 c 0,0,1
370 669 m 1,21,22
 308 669 308 669 265.5 631 c 128,-1,23
 223 593 223 593 223 530 c 2,24,-1
 223 483 l 2,25,26
 223 430 223 430 270.5 395 c 128,-1,27
 318 360 318 360 381 360 c 0,28,29
 512 360 512 360 512 523 c 0,30,31
 512 564 512 564 498 594.5 c 128,-1,32
 484 625 484 625 461 639.5 c 128,-1,33
 438 654 438 654 416 661 c 128,-1,34
 394 668 394 668 370 669 c 1,21,22
EndSplineSet
EndChar

StartChar: uni0555
Encoding: 1365 1365 359
Width: 796
GlyphClass: 2
Flags: HW
LayerCount: 2
Fore
SplineSet
751 366 m 1,0,1
 751 198 751 198 652.5 93 c 128,-1,2
 554 -12 554 -12 400 -12 c 0,3,4
 243 -12 243 -12 147 94 c 128,-1,5
 51 200 51 200 49 357 c 1,6,7
 49 535 49 535 145.5 639.5 c 128,-1,8
 242 744 242 744 400 746 c 1,9,10
 554 746 554 746 651.5 642 c 128,-1,11
 749 538 749 538 751 366 c 1,0,1
401 663 m 0,12,13
 368 663 368 663 337 656 c 128,-1,14
 306 649 306 649 271 629 c 128,-1,15
 236 609 236 609 210 577 c 128,-1,16
 184 545 184 545 167 487.5 c 128,-1,17
 150 430 150 430 150 355 c 0,18,19
 150 226 150 226 218.5 148.5 c 128,-1,20
 287 71 287 71 399 71 c 0,21,22
 441 71 441 71 481.5 84.5 c 128,-1,23
 522 98 522 98 561.5 129 c 128,-1,24
 601 160 601 160 625.5 221 c 128,-1,25
 650 282 650 282 650 366 c 0,26,27
 650 434 650 434 633 487.5 c 128,-1,28
 616 541 616 541 590 573 c 128,-1,29
 564 605 564 605 530 626 c 128,-1,30
 496 647 496 647 464.5 655 c 128,-1,31
 433 663 433 663 401 663 c 0,12,13
EndSplineSet
EndChar

StartChar: uni0556
Encoding: 1366 1366 360
Width: 733
GlyphClass: 2
Flags: HW
LayerCount: 2
Fore
SplineSet
592 280 m 2,0,1
 592 329 592 329 577.5 363.5 c 128,-1,2
 563 398 563 398 539 414.5 c 128,-1,3
 515 431 515 431 492.5 437 c 128,-1,4
 470 443 470 443 446 443 c 2,5,-1
 399 443 l 1,6,-1
 399 69 l 1,7,-1
 446 69 l 2,8,9
 471 69 471 69 494 76 c 128,-1,10
 517 83 517 83 540 99 c 128,-1,11
 563 115 563 115 577.5 147 c 128,-1,12
 592 179 592 179 592 223 c 2,13,-1
 592 280 l 2,0,1
159 592 m 0,14,15
 159 518 159 518 270 518 c 2,16,-1
 275 518 l 1,17,-1
 291 518 l 2,18,19
 301 518 301 518 305 519 c 1,20,-1
 305 669 l 1,21,-1
 286 669 l 1,22,-1
 263 670 l 1,23,24
 159 670 159 670 159 592 c 0,14,15
689 217 m 2,25,26
 689 120 689 120 623 57 c 128,-1,27
 557 -6 557 -6 446 -8 c 1,28,-1
 310 -8 l 1,29,-1
 283 -9 l 1,30,31
 151 -9 151 -9 82 66 c 0,32,33
 40 112 40 112 40 179 c 1,34,-1
 135 179 l 1,35,36
 135 67 135 67 306 68 c 1,37,-1
 306 444 l 1,38,-1
 260 445 l 2,39,40
 234 445 234 445 207.5 452 c 128,-1,41
 181 459 181 459 152.5 473 c 128,-1,42
 124 487 124 487 106 517.5 c 128,-1,43
 88 548 88 548 88 590 c 0,44,45
 88 680 88 680 142 711 c 128,-1,46
 196 742 196 742 302 742 c 2,47,-1
 399 742 l 1,48,-1
 399 520 l 1,49,-1
 446 520 l 2,50,51
 555 520 555 520 619.5 463 c 128,-1,52
 684 406 684 406 689 305 c 1,53,-1
 689 217 l 2,25,26
EndSplineSet
EndChar

StartChar: uni055A
Encoding: 1370 1370 362
Width: 227
GlyphClass: 2
Flags: HW
LayerCount: 2
Fore
SplineSet
62 636 m 1,0,-1
 62 740 l 1,1,-1
 159 740 l 1,2,-1
 159 658 l 2,3,4
 159 600 159 600 143.5 563.5 c 128,-1,5
 128 527 128 527 76 501 c 1,6,-1
 54 536 l 1,7,8
 108 556 108 556 109 636 c 1,9,-1
 62 636 l 1,0,-1
EndSplineSet
EndChar

StartChar: uni055B
Encoding: 1371 1371 363
Width: 136
GlyphClass: 2
Flags: HW
LayerCount: 2
Fore
SplineSet
25 602 m 1,0,-1
 115 735 l 1,1,-1
 157 735 l 1,2,-1
 50 602 l 1,3,-1
 25 602 l 1,0,-1
EndSplineSet
EndChar

StartChar: uni055C
Encoding: 1372 1372 364
Width: 340
GlyphClass: 2
Flags: HW
LayerCount: 2
Fore
SplineSet
24 647 m 1,0,1
 36 666 36 666 63.5 683.5 c 128,-1,2
 91 701 91 701 119 701 c 2,3,-1
 154 701 l 1,4,-1
 215 698 l 1,5,6
 260 698 260 698 309 748 c 1,7,-1
 309 701 l 1,8,9
 295 686 295 686 287.5 679.5 c 128,-1,10
 280 673 280 673 261.5 664 c 128,-1,11
 243 655 243 655 221 655 c 2,12,-1
 141 655 l 1,13,-1
 119 654 l 1,14,15
 95 654 95 654 77.5 645.5 c 128,-1,16
 60 637 60 637 52.5 628.5 c 128,-1,17
 45 620 45 620 32 599 c 1,18,-1
 24 647 l 1,0,1
EndSplineSet
EndChar

StartChar: uni055E
Encoding: 1374 1374 366
Width: 340
GlyphClass: 2
Flags: HW
LayerCount: 2
Fore
SplineSet
22 654 m 1,0,1
 27 685 27 685 35 706.5 c 128,-1,2
 43 728 43 728 62 751.5 c 128,-1,3
 81 775 81 775 117.5 788 c 128,-1,4
 154 801 154 801 207 801 c 128,-1,5
 260 801 260 801 283.5 778 c 128,-1,6
 307 755 307 755 307 699 c 0,7,8
 307 655 307 655 280.5 632 c 128,-1,9
 254 609 254 609 209 609 c 0,10,11
 117 609 117 609 117 701 c 1,12,-1
 162 701 l 1,13,14
 162 674 162 674 172.5 663.5 c 128,-1,15
 183 653 183 653 211 651 c 1,16,17
 238 651 238 651 249 661.5 c 128,-1,18
 260 672 260 672 261 700 c 0,19,20
 261 713 261 713 258.5 723 c 128,-1,21
 256 733 256 733 251 738.5 c 128,-1,22
 246 744 246 744 239 748 c 128,-1,23
 232 752 232 752 223 753.5 c 128,-1,24
 214 755 214 755 204 756 c 128,-1,25
 194 757 194 757 182 757 c 0,26,27
 128 757 128 757 99 727.5 c 128,-1,28
 70 698 70 698 70 624 c 1,29,-1
 22 624 l 1,30,-1
 22 654 l 1,0,1
EndSplineSet
EndChar

StartChar: uni055F
Encoding: 1375 1375 367
Width: 340
GlyphClass: 2
Flags: HW
LayerCount: 2
Fore
SplineSet
34 610 m 1,0,-1
 23 638 l 1,1,-1
 109 724 l 1,2,-1
 131 701 l 1,3,-1
 74 643 l 1,4,-1
 314 643 l 1,5,-1
 314 610 l 1,6,-1
 34 610 l 1,0,-1
EndSplineSet
EndChar

StartChar: uni0561
Encoding: 1377 1377 368
Width: 852
GlyphClass: 2
Flags: HW
LayerCount: 2
Fore
SplineSet
565 68 m 0,0,1
 636 68 636 68 666 116.5 c 128,-1,2
 696 165 696 165 696 257 c 2,3,-1
 696 537 l 1,4,-1
 786 537 l 1,5,-1
 786 1 l 1,6,-1
 706 1 l 1,7,-1
 706 76 l 1,8,9
 684 39 684 39 641 14.5 c 128,-1,10
 598 -10 598 -10 545 -10 c 0,11,12
 426 -10 426 -10 395 83 c 1,13,14
 333 -10 333 -10 231 -10 c 0,15,16
 66 -10 66 -10 67 168 c 2,17,-1
 67 537 l 1,18,-1
 157 537 l 1,19,-1
 157 198 l 2,20,21
 157 145 157 145 164 122 c 128,-1,22
 171 99 171 99 197 82 c 1,23,24
 221 68 221 68 251 68 c 0,25,26
 273 68 273 68 293 74 c 128,-1,27
 313 80 313 80 334 95.5 c 128,-1,28
 355 111 355 111 368 144 c 128,-1,29
 381 177 381 177 381 224 c 2,30,-1
 381 537 l 1,31,-1
 471 537 l 1,32,-1
 471 187 l 2,33,34
 471 129 471 129 492.5 98.5 c 128,-1,35
 514 68 514 68 565 68 c 0,0,1
EndSplineSet
EndChar

StartChar: uni0562
Encoding: 1378 1378 369
Width: 569
GlyphClass: 2
Flags: HW
LayerCount: 2
Fore
SplineSet
507 200 m 1,0,-1
 417 200 l 1,1,-1
 417 300 l 2,2,3
 417 375 417 375 411 394 c 1,4,5
 403 429 403 429 375.5 450 c 128,-1,6
 348 471 348 471 307 471 c 0,7,8
 264 471 264 471 230.5 449.5 c 128,-1,9
 197 428 197 428 181.5 393 c 128,-1,10
 166 358 166 358 166 290 c 2,11,-1
 167 98 l 1,12,-1
 505 98 l 1,13,-1
 505 0 l 1,14,-1
 167 0 l 1,15,-1
 166 -216 l 1,16,-1
 76 -216 l 1,17,-1
 76 537 l 1,18,-1
 157 537 l 1,19,-1
 157 458 l 1,20,21
 218 548 218 548 325 548 c 0,22,23
 370 548 370 548 410.5 530 c 128,-1,24
 451 512 451 512 473 485 c 1,25,26
 507 440 507 440 507 334 c 2,27,-1
 507 200 l 1,0,-1
EndSplineSet
EndChar

StartChar: uni0563
Encoding: 1379 1379 370
Width: 585
GlyphClass: 2
Flags: HW
LayerCount: 2
Fore
SplineSet
36 274 m 0,0,1
 36 399 36 399 97.5 473.5 c 128,-1,2
 159 548 159 548 260 548 c 0,3,4
 316 548 316 548 350.5 528 c 128,-1,5
 385 508 385 508 415 467 c 1,6,-1
 415 537 l 1,7,-1
 497 537 l 1,8,-1
 496 86 l 1,9,-1
 574 86 l 1,10,-1
 574 5 l 1,11,-1
 496 5 l 1,12,-1
 496 -209 l 1,13,-1
 407 -208 l 1,14,-1
 407 60 l 1,15,16
 355 -5 355 -5 267 -7 c 1,17,18
 164 -7 164 -7 100 72.5 c 128,-1,19
 36 152 36 152 36 274 c 0,0,1
273 68 m 0,20,21
 329 68 329 68 372 113.5 c 128,-1,22
 415 159 415 159 415 267 c 0,23,24
 415 362 415 362 374.5 419.5 c 128,-1,25
 334 477 334 477 269 477 c 0,26,27
 246 477 246 477 224 468 c 128,-1,28
 202 459 202 459 179 438 c 128,-1,29
 156 417 156 417 142 375 c 128,-1,30
 128 333 128 333 128 275 c 0,31,32
 128 163 128 163 172 115.5 c 128,-1,33
 216 68 216 68 273 68 c 0,20,21
EndSplineSet
EndChar

StartChar: uni0564
Encoding: 1380 1380 371
Width: 594
GlyphClass: 2
Flags: HW
LayerCount: 2
Fore
SplineSet
160 455 m 1,0,1
 167 463 167 463 173 474 c 128,-1,2
 179 485 179 485 193.5 498 c 128,-1,3
 208 511 208 511 225 521.5 c 128,-1,4
 242 532 242 532 269 539.5 c 128,-1,5
 296 547 296 547 329 547 c 0,6,7
 397 547 397 547 435.5 512 c 128,-1,8
 474 477 474 477 478 414 c 1,9,-1
 478 63 l 1,10,-1
 581 63 l 1,11,-1
 581 0 l 1,12,-1
 478 0 l 1,13,-1
 478 -214 l 1,14,-1
 390 -214 l 1,15,-1
 390 375 l 2,16,17
 390 468 390 468 308 470 c 1,18,19
 235 470 235 470 199 421.5 c 128,-1,20
 163 373 163 373 163 296 c 2,21,-1
 163 0 l 1,22,-1
 75 0 l 1,23,-1
 75 537 l 1,24,-1
 160 537 l 1,25,-1
 160 455 l 1,0,1
EndSplineSet
EndChar

StartChar: uni0565
Encoding: 1381 1381 372
Width: 563
GlyphClass: 2
Flags: HW
LayerCount: 2
Fore
SplineSet
262 67 m 0,0,1
 403 67 403 67 403 242 c 2,2,-1
 403 341 l 1,3,-1
 493 341 l 1,4,-1
 493 0 l 1,5,-1
 412 0 l 1,6,-1
 412 76 l 1,7,8
 353 -11 353 -11 243 -11 c 0,9,10
 100 -11 100 -11 67 118 c 1,11,12
 62 164 62 164 61 205 c 2,13,-1
 61 736 l 1,14,-1
 153 738 l 1,15,-1
 153 537 l 1,16,-1
 498 536 l 1,17,-1
 498 441 l 1,18,-1
 153 441 l 1,19,-1
 152 209 l 2,20,21
 152 139 152 139 176 103 c 128,-1,22
 200 67 200 67 262 67 c 0,0,1
EndSplineSet
EndChar

StartChar: uni0566
Encoding: 1382 1382 373
Width: 602
GlyphClass: 2
Flags: HW
LayerCount: 2
Fore
SplineSet
249 5 m 0,0,1
 160 5 160 5 101.5 82 c 128,-1,2
 43 159 43 159 43 270 c 0,3,4
 43 390 43 390 101 470 c 128,-1,5
 159 550 159 550 263 550 c 0,6,7
 319 550 319 550 355.5 528 c 128,-1,8
 392 506 392 506 407 481 c 1,9,-1
 407 537 l 1,10,-1
 490 537 l 1,11,-1
 490 -144 l 1,12,-1
 592 -144 l 1,13,-1
 592 -204 l 1,14,-1
 403 -204 l 1,15,-1
 403 83 l 1,16,17
 353 5 353 5 249 5 c 0,0,1
134 274 m 0,18,19
 134 188 134 188 171 134.5 c 128,-1,20
 208 81 208 81 276 77 c 1,21,22
 335 77 335 77 369.5 136.5 c 128,-1,23
 404 196 404 196 407 272 c 1,24,25
 407 360 407 360 373.5 419.5 c 128,-1,26
 340 479 340 479 271 479 c 0,27,28
 200 479 200 479 167 420.5 c 128,-1,29
 134 362 134 362 134 274 c 0,18,19
EndSplineSet
EndChar

StartChar: uni0567
Encoding: 1383 1383 374
Width: 458
GlyphClass: 2
Flags: HW
LayerCount: 2
Fore
SplineSet
326 76 m 1,0,-1
 326 -124 l 1,1,-1
 249 -122 l 1,2,-1
 248 0 l 1,3,-1
 96 0 l 1,4,-1
 96 738 l 1,5,-1
 184 738 l 1,6,-1
 184 489 l 1,7,-1
 366 489 l 1,8,-1
 366 411 l 1,9,-1
 184 411 l 1,10,-1
 184 76 l 1,11,-1
 326 76 l 1,0,-1
EndSplineSet
EndChar

StartChar: uni0568
Encoding: 1384 1384 375
Width: 569
GlyphClass: 2
Flags: HW
LayerCount: 2
Fore
SplineSet
296 465 m 0,0,1
 159 465 159 465 155 284 c 1,2,-1
 156 -119 l 1,3,-1
 492 -119 l 1,4,-1
 492 -213 l 1,5,-1
 65 -211 l 1,6,-1
 65 530 l 1,7,-1
 145 530 l 1,8,-1
 145 452 l 1,9,10
 206 542 206 542 314 542 c 0,11,12
 357 542 357 542 398.5 524 c 128,-1,13
 440 506 440 506 462 479 c 1,14,15
 496 434 496 434 496 339 c 0,16,17
 496 337 496 337 496 333 c 128,-1,18
 496 329 496 329 496 328 c 2,19,-1
 496 -1 l 1,20,-1
 406 -1 l 1,21,-1
 406 294 l 2,22,23
 406 372 406 372 400 388 c 1,24,25
 392 423 392 423 364.5 444 c 128,-1,26
 337 465 337 465 296 465 c 0,0,1
EndSplineSet
EndChar

StartChar: uni0569
Encoding: 1385 1385 376
Width: 581
GlyphClass: 2
Flags: HW
LayerCount: 2
Fore
SplineSet
518 173 m 2,0,1
 518 98 518 98 477.5 51.5 c 128,-1,2
 437 5 437 5 369 4 c 1,3,4
 299 4 299 4 256 42.5 c 128,-1,5
 213 81 213 81 213 148 c 0,6,7
 213 211 213 211 255 256 c 128,-1,8
 297 301 297 301 365 302 c 1,9,-1
 450 302 l 1,10,-1
 450 369 l 1,11,12
 442 485 442 485 313 487 c 0,13,14
 274 487 274 487 244.5 473.5 c 128,-1,15
 215 460 215 460 198.5 440.5 c 128,-1,16
 182 421 182 421 171 396.5 c 128,-1,17
 160 372 160 372 157 356 c 128,-1,18
 154 340 154 340 153 327 c 1,19,-1
 153 -206 l 1,20,-1
 70 -207 l 1,21,-1
 72 537 l 1,22,-1
 152 537 l 1,23,-1
 152 470 l 1,24,25
 167 500 167 500 199 522.5 c 128,-1,26
 231 545 231 545 267 548 c 2,27,-1
 300 550 l 1,28,29
 419 550 419 550 465 501 c 0,30,31
 517 444 517 444 517 381 c 2,32,-1
 517 299 l 1,33,-1
 567 299 l 1,34,-1
 567 238 l 1,35,-1
 518 238 l 1,36,-1
 518 173 l 2,0,1
369 71 m 0,37,38
 410 71 410 71 431.5 98.5 c 128,-1,39
 453 126 453 126 453 174 c 2,40,-1
 453 240 l 1,41,-1
 355 240 l 2,42,43
 320 240 320 240 302 213 c 128,-1,44
 284 186 284 186 282 145 c 1,45,46
 282 112 282 112 307.5 91.5 c 128,-1,47
 333 71 333 71 369 71 c 0,37,38
EndSplineSet
EndChar

StartChar: uni056A
Encoding: 1386 1386 377
Width: 595
GlyphClass: 2
Flags: HW
LayerCount: 2
Fore
SplineSet
225 1 m 1,0,1
 214 1 214 1 195 8 c 128,-1,2
 176 15 176 15 150 34.5 c 128,-1,3
 124 54 124 54 102 83.5 c 128,-1,4
 80 113 80 113 64.5 163.5 c 128,-1,5
 49 214 49 214 49 275 c 0,6,7
 49 381 49 381 105 459 c 128,-1,8
 161 537 161 537 261 537 c 2,9,-1
 404 537 l 1,10,-1
 404 752 l 1,11,-1
 496 752 l 1,12,-1
 496 537 l 1,13,-1
 596 537 l 1,14,-1
 596 467 l 1,15,-1
 496 467 l 1,16,-1
 496 226 l 2,17,18
 496 122 496 122 432 59.5 c 128,-1,19
 368 -3 368 -3 270 -3 c 2,20,-1
 256 -3 l 2,21,22
 253 -3 253 -3 247 -2.5 c 128,-1,23
 241 -2 241 -2 238 -1 c 1,24,25
 233 -1 233 -1 225 1 c 1,0,1
279 69 m 0,26,27
 319 69 319 69 345.5 86 c 128,-1,28
 372 103 372 103 385 139 c 128,-1,29
 398 175 398 175 403.5 216.5 c 128,-1,30
 409 258 409 258 409 318 c 0,31,32
 409 336 409 336 408.5 374 c 128,-1,33
 408 412 408 412 408 430 c 2,34,-1
 408 467 l 1,35,-1
 283 467 l 2,36,37
 147 467 147 467 141 273 c 1,38,39
 142 71 142 71 279 69 c 0,26,27
EndSplineSet
EndChar

StartChar: uni056B
Encoding: 1387 1387 378
Width: 558
GlyphClass: 2
Flags: HW
LayerCount: 2
Fore
SplineSet
298 466 m 0,0,1
 273 466 273 466 251.5 459 c 128,-1,2
 230 452 230 452 207 434.5 c 128,-1,3
 184 417 184 417 171 380 c 128,-1,4
 158 343 158 343 158 291 c 2,5,-1
 158 -210 l 1,6,-1
 68 -210 l 1,7,-1
 68 733 l 1,8,-1
 158 733 l 1,9,-1
 158 470 l 1,10,11
 221 543 221 543 316 543 c 0,12,13
 418 543 418 543 459 489.5 c 128,-1,14
 500 436 500 436 500 337 c 2,15,-1
 500 0 l 1,16,-1
 410 0 l 1,17,-1
 410 337 l 2,18,19
 410 402 410 402 383 433.5 c 128,-1,20
 356 465 356 465 298 466 c 0,0,1
EndSplineSet
EndChar

StartChar: uni056C
Encoding: 1388 1388 379
Width: 308
GlyphClass: 2
Flags: HW
LayerCount: 2
Fore
SplineSet
253 -128 m 1,0,-1
 253 -213 l 1,1,-1
 62 -213 l 1,2,-1
 61 537 l 1,3,-1
 151 537 l 1,4,-1
 152 -128 l 1,5,-1
 253 -128 l 1,0,-1
EndSplineSet
EndChar

StartChar: uni056D
Encoding: 1389 1389 380
Width: 818
GlyphClass: 2
Flags: HW
LayerCount: 2
Fore
SplineSet
512 65 m 1,0,1
 653 65 653 65 653 240 c 2,2,-1
 653 537 l 1,3,-1
 743 537 l 1,4,-1
 743 -1 l 1,5,-1
 663 -1 l 1,6,-1
 663 75 l 1,7,8
 606 -11 606 -11 494 -13 c 1,9,10
 350 -13 350 -13 317 116 c 1,11,12
 310 177 310 177 310 258 c 0,13,14
 310 282 310 282 311 331.5 c 128,-1,15
 312 381 312 381 312 404 c 0,16,17
 312 412 312 412 311.5 428.5 c 128,-1,18
 311 445 311 445 311 454 c 1,19,-1
 155 454 l 1,20,-1
 155 -215 l 1,21,-1
 68 -215 l 1,22,-1
 68 730 l 1,23,-1
 155 730 l 1,24,-1
 155 537 l 1,25,-1
 402 537 l 1,26,-1
 402 207 l 2,27,28
 402 139 402 139 424 103.5 c 128,-1,29
 446 68 446 68 512 65 c 1,0,1
EndSplineSet
EndChar

StartChar: uni056E
Encoding: 1390 1390 381
Width: 569
GlyphClass: 2
Flags: HW
LayerCount: 2
Fore
SplineSet
431 463 m 1,0,1
 450 449 450 449 467.5 401.5 c 128,-1,2
 485 354 485 354 492 276 c 1,3,4
 492 250 492 250 493 237 c 1,5,6
 493 135 493 135 433.5 63.5 c 128,-1,7
 374 -8 374 -8 275 -8 c 0,8,9
 172 -8 172 -8 108 71 c 128,-1,10
 44 150 44 150 44 270 c 0,11,12
 44 285 44 285 47 314.5 c 128,-1,13
 50 344 50 344 53 349 c 1,14,15
 53 363 53 363 66 392 c 128,-1,16
 79 421 79 421 102 454 c 128,-1,17
 125 487 125 487 166 511.5 c 128,-1,18
 207 536 207 536 255 536 c 1,19,-1
 278 537 l 1,20,21
 216 580 216 580 212 648 c 1,22,23
 212 710 212 710 299 766 c 1,24,-1
 351 713 l 1,25,26
 291 690 291 690 290 649 c 1,27,28
 290 594 290 594 386 528 c 1,29,-1
 536 528 l 1,30,-1
 536 463 l 1,31,-1
 431 463 l 1,0,1
408 271 m 0,32,33
 408 290 408 290 403.5 319 c 128,-1,34
 399 348 399 348 389 385.5 c 128,-1,35
 379 423 379 423 357 448 c 128,-1,36
 335 473 335 473 304 473 c 0,37,38
 212 473 212 473 174 422.5 c 128,-1,39
 136 372 136 372 136 268 c 0,40,41
 136 175 136 175 170 119 c 128,-1,42
 204 63 204 63 279 63 c 0,43,44
 403 63 403 63 408 271 c 0,32,33
EndSplineSet
EndChar

StartChar: uni056F
Encoding: 1391 1391 382
Width: 567
GlyphClass: 2
Flags: HW
LayerCount: 2
Fore
SplineSet
275 73 m 0,0,1
 299 73 299 73 320.5 80 c 128,-1,2
 342 87 342 87 365 104.5 c 128,-1,3
 388 122 388 122 402 159 c 128,-1,4
 416 196 416 196 416 248 c 2,5,-1
 416 537 l 1,6,-1
 506 537 l 1,7,-1
 506 -216 l 1,8,-1
 416 -215 l 1,9,-1
 416 68 l 1,10,11
 354 -3 354 -3 256 -5 c 1,12,13
 152 -5 152 -5 113.5 48.5 c 128,-1,14
 75 102 75 102 73 202 c 1,15,-1
 73 738 l 1,16,-1
 163 738 l 1,17,-1
 163 202 l 2,18,19
 162 73 162 73 275 73 c 0,0,1
EndSplineSet
EndChar

StartChar: uni0570
Encoding: 1392 1392 383
Width: 545
GlyphClass: 2
Flags: HW
LayerCount: 2
Fore
SplineSet
298 466 m 0,0,1
 273 466 273 466 251.5 459 c 128,-1,2
 230 452 230 452 207 434.5 c 128,-1,3
 184 417 184 417 171 380 c 128,-1,4
 158 343 158 343 158 291 c 2,5,-1
 158 0 l 1,6,-1
 68 0 l 1,7,-1
 68 733 l 1,8,-1
 158 733 l 1,9,-1
 158 470 l 1,10,11
 221 543 221 543 316 543 c 0,12,13
 418 543 418 543 459 489.5 c 128,-1,14
 500 436 500 436 500 337 c 2,15,-1
 500 0 l 1,16,-1
 410 0 l 1,17,-1
 410 337 l 2,18,19
 410 402 410 402 383 433.5 c 128,-1,20
 356 465 356 465 298 466 c 0,0,1
EndSplineSet
EndChar

StartChar: uni0571
Encoding: 1393 1393 384
Width: 561
GlyphClass: 2
Flags: HW
LayerCount: 2
Fore
SplineSet
338 681 m 1,0,1
 381 681 381 681 396 669 c 128,-1,2
 411 657 411 657 411 635 c 0,3,4
 411 620 411 620 394 598.5 c 128,-1,5
 377 577 377 577 356.5 561 c 128,-1,6
 336 545 336 545 318 529 c 1,7,8
 395 514 395 514 439 447 c 128,-1,9
 483 380 483 380 483 283 c 2,10,-1
 483 0 l 1,11,-1
 404 0 l 1,12,-1
 404 65 l 1,13,14
 394 38 394 38 359.5 12 c 128,-1,15
 325 -14 325 -14 266 -14 c 0,16,17
 164 -14 164 -14 102.5 65.5 c 128,-1,18
 41 145 41 145 41 266 c 0,19,20
 41 319 41 319 66 369.5 c 128,-1,21
 91 420 91 420 128 457 c 128,-1,22
 165 494 165 494 203 524 c 128,-1,23
 241 554 241 554 272.5 578.5 c 128,-1,24
 304 603 304 603 311 616 c 1,25,26
 311 621 311 621 278.5 623.5 c 128,-1,27
 246 626 246 626 211 633.5 c 128,-1,28
 176 641 176 641 171 660 c 1,29,30
 171 706 171 706 213 754 c 1,31,-1
 287 754 l 1,32,33
 284 743 284 743 274.5 726.5 c 128,-1,34
 265 710 265 710 265 705 c 0,35,36
 265 696 265 696 281 689 c 1,37,-1
 338 681 l 1,0,1
266 464 m 2,38,39
 225 464 225 464 178.5 404.5 c 128,-1,40
 132 345 132 345 132 262 c 0,41,42
 132 175 132 175 167.5 116.5 c 128,-1,43
 203 58 203 58 274 57 c 0,44,45
 336 57 336 57 373 114.5 c 128,-1,46
 410 172 410 172 410 249 c 0,47,48
 410 260 410 260 411 264 c 1,49,50
 411 351 411 351 374 407.5 c 128,-1,51
 337 464 337 464 279 464 c 2,52,-1
 266 464 l 2,38,39
EndSplineSet
EndChar

StartChar: uni0572
Encoding: 1394 1394 385
Width: 565
GlyphClass: 2
Flags: HW
LayerCount: 2
Fore
SplineSet
293 543 m 0,0,1
 335 543 335 543 366 529 c 128,-1,2
 397 515 397 515 412.5 493.5 c 128,-1,3
 428 472 428 472 435 451 c 128,-1,4
 442 430 442 430 442 410 c 2,5,-1
 442 -140 l 1,6,-1
 545 -140 l 1,7,-1
 545 -205 l 1,8,-1
 355 -205 l 1,9,-1
 355 371 l 2,10,11
 355 465 355 465 272 466 c 1,12,13
 148 466 148 466 128 325 c 1,14,-1
 128 0 l 1,15,-1
 40 0 l 1,16,-1
 40 537 l 1,17,-1
 124 537 l 1,18,-1
 124 447 l 1,19,20
 154 484 154 484 166.5 498 c 128,-1,21
 179 512 179 512 213 527.5 c 128,-1,22
 247 543 247 543 293 543 c 0,0,1
EndSplineSet
EndChar

StartChar: uni0573
Encoding: 1395 1395 386
Width: 565
GlyphClass: 2
Flags: HW
LayerCount: 2
Fore
SplineSet
44 32 m 1,0,1
 44 250 44 250 210 472 c 1,2,-1
 144 522 l 1,3,-1
 195 588 l 1,4,-1
 258 537 l 1,5,6
 362 663 362 663 469 749 c 1,7,-1
 519 699 l 1,8,9
 479 659 479 659 327 498 c 1,10,11
 411 405 411 405 459 308.5 c 128,-1,12
 507 212 507 212 507 89 c 0,13,14
 507 84 507 84 508.5 59.5 c 128,-1,15
 510 35 510 35 510 32 c 2,16,-1
 509 10 l 2,17,18
 509 2 509 2 508 0 c 1,19,-1
 46 0 l 1,20,21
 45 5 45 5 45 16 c 128,-1,22
 45 27 45 27 44 32 c 1,0,1
432 72 m 1,23,24
 404 272 404 272 311 394 c 0,25,26
 282 432 282 432 278 432 c 1,27,28
 277 428 277 428 253.5 391.5 c 128,-1,29
 230 355 230 355 206 311.5 c 128,-1,30
 182 268 182 268 161.5 201 c 128,-1,31
 141 134 141 134 141 72 c 1,32,-1
 432 72 l 1,23,24
EndSplineSet
EndChar

StartChar: uni0574
Encoding: 1396 1396 387
Width: 557
GlyphClass: 2
Flags: HW
LayerCount: 2
Fore
SplineSet
393 446 m 2,0,1
 393 476 393 476 370.5 503.5 c 128,-1,2
 348 531 348 531 321.5 550.5 c 128,-1,3
 295 570 295 570 272.5 603 c 128,-1,4
 250 636 250 636 250 675 c 0,5,6
 250 703 250 703 262 721 c 128,-1,7
 274 739 274 739 297.5 747.5 c 128,-1,8
 321 756 321 756 343.5 759 c 128,-1,9
 366 762 366 762 397 762 c 2,10,-1
 463 762 l 2,11,12
 472 762 472 762 476 761 c 1,13,-1
 476 691 l 1,14,-1
 390 692 l 2,15,16
 372 692 372 692 362.5 691 c 128,-1,17
 353 690 353 690 345.5 685 c 128,-1,18
 338 680 338 680 335 669 c 1,19,20
 335 649 335 649 362 621 c 2,21,-1
 413 570 l 2,22,23
 422 560 422 560 431 551 c 128,-1,24
 440 542 440 542 449 529.5 c 128,-1,25
 458 517 458 517 465 505 c 128,-1,26
 472 493 472 493 476 477 c 128,-1,27
 480 461 480 461 480 443 c 2,28,-1
 480 0 l 1,29,-1
 394 0 l 1,30,-1
 394 57 l 1,31,-1
 337 20 l 1,32,33
 299 -11 299 -11 225 -10 c 0,34,35
 158 -10 158 -10 117 26 c 128,-1,36
 76 62 76 62 75 118 c 1,37,-1
 75 537 l 1,38,-1
 163 537 l 1,39,-1
 163 157 l 2,40,41
 163 67 163 67 245 67 c 0,42,43
 290 67 290 67 320 80 c 128,-1,44
 350 93 350 93 364.5 118 c 128,-1,45
 379 143 379 143 385 165.5 c 128,-1,46
 391 188 391 188 393 219 c 1,47,-1
 393 446 l 2,0,1
EndSplineSet
EndChar

StartChar: uni0575
Encoding: 1397 1397 388
Width: 227
GlyphClass: 2
Flags: HW
LayerCount: 2
Fore
SplineSet
12 -136 m 0,0,1
 27 -136 27 -136 38 -130 c 128,-1,2
 49 -124 49 -124 54.5 -116 c 128,-1,3
 60 -108 60 -108 63 -92 c 128,-1,4
 66 -76 66 -76 66.5 -64.5 c 128,-1,5
 67 -53 67 -53 67 -32 c 2,6,-1
 67 -27 l 1,7,-1
 67 537 l 1,8,-1
 157 537 l 1,9,-1
 157 -29 l 2,10,11
 157 -125 157 -125 127.5 -170 c 128,-1,12
 98 -215 98 -215 24 -215 c 0,13,14
 -19 -215 -19 -215 -47 -206 c 1,15,-1
 -30 -129 l 1,16,17
 -2 -136 -2 -136 12 -136 c 0,0,1
EndSplineSet
EndChar

StartChar: uni0576
Encoding: 1398 1398 389
Width: 557
GlyphClass: 2
Flags: HW
LayerCount: 2
Fore
SplineSet
265 65 m 1,0,1
 363 65 363 65 388 203 c 1,2,-1
 388 537 l 1,3,-1
 477 537 l 1,4,-1
 477 0 l 1,5,-1
 395 0 l 1,6,-1
 395 85 l 1,7,-1
 367 54 l 1,8,9
 347 29 347 29 335.5 19 c 128,-1,10
 324 9 324 9 296.5 0.5 c 128,-1,11
 269 -8 269 -8 225 -10 c 1,12,13
 197 -10 197 -10 159 0 c 1,14,-1
 141 9 l 1,15,16
 99 35 99 35 80 81 c 1,17,-1
 75 115 l 1,18,-1
 76 569 l 2,19,20
 76 609 76 609 96 651.5 c 128,-1,21
 116 694 116 694 142 720 c 0,22,23
 188 763 188 763 262 763 c 2,24,-1
 329 763 l 1,25,-1
 329 700 l 1,26,27
 262 700 262 700 226.5 685 c 128,-1,28
 191 670 191 670 179.5 645 c 128,-1,29
 168 620 168 620 162 569 c 0,30,31
 162 565 162 565 161.5 556.5 c 128,-1,32
 161 548 161 548 161 543 c 2,33,-1
 161 152 l 2,34,35
 161 70 161 70 243 62 c 0,36,37
 249 63 249 63 265 65 c 1,0,1
EndSplineSet
EndChar

StartChar: uni0577
Encoding: 1399 1399 390
Width: 466
GlyphClass: 2
Flags: HW
LayerCount: 2
Fore
SplineSet
325 349 m 0,0,1
 325 391 325 391 295 426.5 c 128,-1,2
 265 462 265 462 223 462 c 0,3,4
 171 462 171 462 124 404 c 1,5,-1
 80 464 l 1,6,7
 141 539 141 539 228 542 c 1,8,9
 299 542 299 542 350 489.5 c 128,-1,10
 401 437 401 437 401 366 c 0,11,12
 401 300 401 300 360 240 c 0,13,14
 306 158 306 158 256 86.5 c 128,-1,15
 206 15 206 15 187 -10.5 c 128,-1,16
 168 -36 168 -36 156.5 -58 c 128,-1,17
 145 -80 145 -80 145 -100 c 1,18,19
 149 -132 149 -132 244 -132 c 2,20,-1
 256 -132 l 1,21,22
 280 -130 280 -130 333 -130 c 2,23,-1
 383 -130 l 1,24,-1
 402 -130 l 1,25,-1
 402 -195 l 1,26,-1
 272 -195 l 2,27,28
 195 -195 195 -195 139 -189 c 1,29,-1
 129 -187 l 1,30,31
 122 -187 122 -187 101.5 -178 c 128,-1,32
 81 -169 81 -169 70 -157 c 1,33,34
 63 -144 63 -144 54 -112 c 1,35,36
 54 -79 54 -79 79.5 -34.5 c 128,-1,37
 105 10 105 10 173 103 c 128,-1,38
 241 196 241 196 274 247 c 2,39,-1
 312 304 l 2,40,41
 325 323 325 323 325 349 c 0,0,1
EndSplineSet
EndChar

StartChar: uni0578
Encoding: 1400 1400 391
Width: 569
GlyphClass: 2
Flags: HW
LayerCount: 2
Fore
SplineSet
302 471 m 0,0,1
 227 471 227 471 195 424 c 128,-1,2
 163 377 163 377 161 290 c 1,3,-1
 161 -1 l 1,4,-1
 71 -1 l 1,5,-1
 71 537 l 1,6,-1
 152 537 l 1,7,-1
 152 458 l 1,8,9
 213 548 213 548 321 548 c 0,10,11
 364 548 364 548 404.5 530 c 128,-1,12
 445 512 445 512 468 485 c 1,13,14
 502 440 502 440 502 334 c 2,15,-1
 502 -1 l 1,16,-1
 412 -1 l 1,17,-1
 412 300 l 2,18,19
 412 368 412 368 406 394 c 0,20,21
 399 428 399 428 370.5 449.5 c 128,-1,22
 342 471 342 471 302 471 c 0,0,1
EndSplineSet
EndChar

StartChar: uni0579
Encoding: 1401 1401 392
Width: 399
GlyphClass: 2
Flags: HW
LayerCount: 2
Fore
SplineSet
224 206 m 1,0,1
 224 223 224 223 205 241.5 c 128,-1,2
 186 260 186 260 162.5 274.5 c 128,-1,3
 139 289 139 289 116 309.5 c 128,-1,4
 93 330 93 330 87 350 c 1,5,6
 87 389 87 389 207 544 c 1,7,-1
 295 524 l 1,8,-1
 222 437 l 1,9,10
 180 383 180 383 180 362 c 0,11,12
 180 357 180 357 182 356 c 2,13,-1
 245 301 l 1,14,15
 290 264 290 264 302 246 c 128,-1,16
 314 228 314 228 314 212 c 0,17,18
 314 189 314 189 291 157 c 2,19,-1
 220 60 l 2,20,21
 204 38 204 38 191 20 c 128,-1,22
 178 2 178 2 167.5 -12.5 c 128,-1,23
 157 -27 157 -27 149 -39 c 128,-1,24
 141 -51 141 -51 136.5 -61 c 128,-1,25
 132 -71 132 -71 129.5 -79.5 c 128,-1,26
 127 -88 127 -88 127 -96 c 1,27,-1
 129 -110 l 1,28,29
 136 -142 136 -142 225 -141 c 2,30,-1
 237 -141 l 1,31,32
 242 -140 242 -140 254 -140 c 2,33,-1
 262 -140 l 2,34,35
 280 -140 280 -140 313.5 -139.5 c 128,-1,36
 347 -139 347 -139 366 -139 c 1,37,-1
 366 -204 l 1,38,-1
 256 -204 l 2,39,40
 180 -204 180 -204 151 -201 c 1,41,42
 41 -201 41 -201 36 -101 c 1,43,44
 36 -68 36 -68 76 -11 c 2,45,-1
 218 188 l 2,46,47
 222 195 222 195 224 206 c 1,0,1
EndSplineSet
EndChar

StartChar: uni057A
Encoding: 1402 1402 393
Width: 852
GlyphClass: 2
Flags: HW
LayerCount: 2
Fore
SplineSet
565 68 m 0,0,1
 636 68 636 68 666 116.5 c 128,-1,2
 696 165 696 165 696 257 c 2,3,-1
 696 537 l 1,4,-1
 786 537 l 1,5,-1
 786 -218 l 1,6,-1
 706 -218 l 1,7,-1
 706 76 l 1,8,9
 684 39 684 39 641 14.5 c 128,-1,10
 598 -10 598 -10 545 -10 c 0,11,12
 426 -10 426 -10 395 83 c 1,13,14
 333 -10 333 -10 231 -10 c 0,15,16
 66 -10 66 -10 67 168 c 2,17,-1
 67 537 l 1,18,-1
 157 537 l 1,19,-1
 157 198 l 2,20,21
 157 145 157 145 164 122 c 128,-1,22
 171 99 171 99 197 82 c 1,23,24
 221 68 221 68 251 68 c 0,25,26
 273 68 273 68 293 74 c 128,-1,27
 313 80 313 80 334 95.5 c 128,-1,28
 355 111 355 111 368 144 c 128,-1,29
 381 177 381 177 381 224 c 2,30,-1
 381 537 l 1,31,-1
 471 537 l 1,32,-1
 471 187 l 2,33,34
 471 129 471 129 492.5 98.5 c 128,-1,35
 514 68 514 68 565 68 c 0,0,1
EndSplineSet
EndChar

StartChar: uni057B
Encoding: 1403 1403 394
Width: 521
GlyphClass: 2
Flags: HW
LayerCount: 2
Fore
SplineSet
43 387 m 1,0,1
 43 435 43 435 102.5 490 c 128,-1,2
 162 545 162 545 245 545 c 1,3,-1
 279 544 l 2,4,5
 291 544 291 544 311.5 539 c 128,-1,6
 332 534 332 534 360.5 518 c 128,-1,7
 389 502 389 502 413 478.5 c 128,-1,8
 437 455 437 455 455 413.5 c 128,-1,9
 473 372 473 372 474 319 c 1,10,11
 474 161 474 161 311 18 c 1,12,-1
 255 -27 l 1,13,14
 175 -93 175 -93 175 -115 c 0,15,16
 175 -151 175 -151 290 -152 c 1,17,-1
 301 -152 l 1,18,19
 306 -151 306 -151 318 -151 c 2,20,-1
 327 -151 l 2,21,22
 343 -151 343 -151 374.5 -150.5 c 128,-1,23
 406 -150 406 -150 423 -150 c 1,24,-1
 423 -214 l 1,25,-1
 272 -214 l 2,26,27
 264 -214 264 -214 246 -214.5 c 128,-1,28
 228 -215 228 -215 220 -215 c 0,29,30
 192 -215 192 -215 173 -212.5 c 128,-1,31
 154 -210 154 -210 133.5 -203 c 128,-1,32
 113 -196 113 -196 100.5 -180 c 128,-1,33
 88 -164 88 -164 84 -140 c 1,34,35
 84 -116 84 -116 103 -90.5 c 128,-1,36
 122 -65 122 -65 144 -45.5 c 128,-1,37
 166 -26 166 -26 185 1 c 128,-1,38
 204 28 204 28 204 53 c 0,39,40
 204 94 204 94 161 133 c 0,41,42
 119 171 119 171 84 200 c 0,43,44
 66 215 66 215 52.5 258 c 128,-1,45
 39 301 39 301 39 341 c 1,46,-1
 41 373 l 2,47,48
 41 382 41 382 43 387 c 1,0,1
398 346 m 1,49,50
 398 358 398 358 391 376 c 128,-1,51
 384 394 384 394 368.5 416 c 128,-1,52
 353 438 353 438 319.5 453.5 c 128,-1,53
 286 469 286 469 240 469 c 0,54,55
 179 469 179 469 145 432.5 c 128,-1,56
 111 396 111 396 106 336 c 1,57,58
 106 300 106 300 124 271 c 128,-1,59
 142 242 142 242 178 206 c 1,60,61
 258 146 258 146 259 54 c 1,62,63
 262 56 262 56 274 69 c 2,64,-1
 299 95 l 1,65,66
 334 130 334 130 367.5 190 c 128,-1,67
 401 250 401 250 401 314 c 0,68,69
 401 334 401 334 398 346 c 1,49,50
EndSplineSet
EndChar

StartChar: uni057C
Encoding: 1404 1404 395
Width: 560
GlyphClass: 2
Flags: HW
LayerCount: 2
Fore
SplineSet
274 78 m 1,0,1
 284 78 284 78 320.5 121.5 c 128,-1,2
 357 165 357 165 392.5 232.5 c 128,-1,3
 428 300 428 300 428 352 c 128,-1,4
 428 404 428 404 397.5 437.5 c 128,-1,5
 367 471 367 471 313 471 c 0,6,7
 172 471 172 471 172 290 c 2,8,-1
 172 0 l 1,9,-1
 82 0 l 1,10,-1
 82 537 l 1,11,-1
 163 537 l 1,12,-1
 163 458 l 1,13,14
 224 548 224 548 331 548 c 0,15,16
 375 548 375 548 416.5 530 c 128,-1,17
 458 512 458 512 479 485 c 0,18,19
 489 472 489 472 502 431 c 128,-1,20
 515 390 515 390 515 370 c 0,21,22
 515 324 515 324 492.5 268 c 128,-1,23
 470 212 470 212 452 200 c 1,24,-1
 337 81 l 1,25,-1
 456 81 l 1,26,-1
 456 0 l 1,27,-1
 274 0 l 1,28,-1
 274 78 l 1,0,1
EndSplineSet
EndChar

StartChar: uni057D
Encoding: 1405 1405 396
Width: 545
GlyphClass: 2
Flags: HW
LayerCount: 2
Fore
SplineSet
265 66 m 0,0,1
 405 66 405 66 406 247 c 2,2,-1
 406 536 l 1,3,-1
 496 536 l 1,4,-1
 496 0 l 1,5,-1
 416 0 l 1,6,-1
 416 78 l 1,7,8
 354 -12 354 -12 247 -12 c 0,9,10
 205 -12 205 -12 162.5 6.5 c 128,-1,11
 120 25 120 25 99 50 c 0,12,13
 65 94 65 94 66 191 c 0,14,15
 66 193 66 193 66 197 c 128,-1,16
 66 201 66 201 66 202 c 2,17,-1
 66 536 l 1,18,-1
 156 536 l 1,19,-1
 156 237 l 2,20,21
 156 158 156 158 161 141 c 1,22,23
 169 107 169 107 196.5 86.5 c 128,-1,24
 224 66 224 66 265 66 c 0,0,1
EndSplineSet
EndChar

StartChar: uni057E
Encoding: 1406 1406 397
Width: 624
GlyphClass: 2
Flags: HW
LayerCount: 2
Fore
SplineSet
275 73 m 0,0,1
 299 73 299 73 320.5 80 c 128,-1,2
 342 87 342 87 365 104.5 c 128,-1,3
 388 122 388 122 402 159 c 128,-1,4
 416 196 416 196 416 248 c 2,5,-1
 416 733 l 1,6,-1
 506 733 l 1,7,-1
 504 -139 l 1,8,-1
 594 -139 l 1,9,-1
 594 -216 l 1,10,-1
 416 -215 l 1,11,-1
 416 68 l 1,12,13
 354 -3 354 -3 256 -5 c 1,14,15
 152 -5 152 -5 113.5 48.5 c 128,-1,16
 75 102 75 102 73 202 c 1,17,-1
 73 537 l 1,18,-1
 163 537 l 1,19,-1
 163 202 l 2,20,21
 162 73 162 73 275 73 c 0,0,1
EndSplineSet
EndChar

StartChar: uni057F
Encoding: 1407 1407 398
Width: 908
GlyphClass: 2
Flags: HW
LayerCount: 2
Fore
SplineSet
274 65 m 0,0,1
 414 65 414 65 415 246 c 2,2,-1
 415 537 l 1,3,-1
 502 537 l 1,4,-1
 502 458 l 1,5,6
 563 548 563 548 670 548 c 0,7,8
 714 548 714 548 755 530 c 128,-1,9
 796 512 796 512 818 485 c 1,10,11
 852 440 852 440 852 334 c 2,12,-1
 852 -1 l 1,13,-1
 762 -1 l 1,14,-1
 762 300 l 2,15,16
 762 375 762 375 756 394 c 1,17,18
 748 429 748 429 720.5 450 c 128,-1,19
 693 471 693 471 652 471 c 0,20,21
 609 471 609 471 575.5 449.5 c 128,-1,22
 542 428 542 428 526.5 393 c 128,-1,23
 511 358 511 358 511 290 c 2,24,-1
 511 -1 l 1,25,-1
 425 -1 l 1,26,-1
 425 77 l 1,27,28
 363 -13 363 -13 256 -13 c 0,29,30
 213 -13 213 -13 171 5.5 c 128,-1,31
 129 24 129 24 109 49 c 0,32,33
 75 93 75 93 75 190 c 0,34,35
 75 192 75 192 75 196 c 128,-1,36
 75 200 75 200 75 201 c 2,37,-1
 75 537 l 1,38,-1
 165 537 l 1,39,-1
 165 236 l 2,40,41
 165 157 165 157 170 140 c 1,42,43
 178 106 178 106 205.5 85.5 c 128,-1,44
 233 65 233 65 274 65 c 0,0,1
EndSplineSet
EndChar

StartChar: uni0580
Encoding: 1408 1408 399
Width: 569
GlyphClass: 2
Flags: HW
LayerCount: 2
Fore
SplineSet
302 471 m 0,0,1
 227 471 227 471 195 424 c 128,-1,2
 163 377 163 377 161 290 c 1,3,-1
 161 -216 l 1,4,-1
 71 -216 l 1,5,-1
 71 537 l 1,6,-1
 152 537 l 1,7,-1
 152 458 l 1,8,9
 213 548 213 548 321 548 c 0,10,11
 364 548 364 548 404.5 530 c 128,-1,12
 445 512 445 512 468 485 c 1,13,14
 502 440 502 440 502 334 c 2,15,-1
 502 -1 l 1,16,-1
 412 -1 l 1,17,-1
 412 300 l 2,18,19
 412 368 412 368 406 394 c 0,20,21
 399 428 399 428 370.5 449.5 c 128,-1,22
 342 471 342 471 302 471 c 0,0,1
EndSplineSet
EndChar

StartChar: uni0581
Encoding: 1409 1409 400
Width: 558
GlyphClass: 2
Flags: HW
LayerCount: 2
Fore
SplineSet
33 270 m 1,0,1
 33 388 33 388 94 468 c 128,-1,2
 155 548 155 548 263 548 c 0,3,4
 357 548 357 548 418 472 c 1,5,-1
 418 537 l 1,6,-1
 501 537 l 1,7,-1
 501 72 l 2,8,9
 501 -50 501 -50 476.5 -102.5 c 128,-1,10
 452 -155 452 -155 395.5 -185 c 128,-1,11
 339 -215 339 -215 261 -215 c 0,12,13
 231 -215 231 -215 205 -211.5 c 128,-1,14
 179 -208 179 -208 149.5 -196.5 c 128,-1,15
 120 -185 120 -185 99.5 -167.5 c 128,-1,16
 79 -150 79 -150 65 -118 c 128,-1,17
 51 -86 51 -86 51 -44 c 1,18,-1
 138 -57 l 1,19,20
 147 -138 147 -138 260 -141 c 1,21,22
 379 -141 379 -141 403 -46 c 0,23,24
 407 -30 407 -30 410 70 c 1,25,26
 352 0 352 0 262 0 c 0,27,28
 154 0 154 0 94.5 76.5 c 128,-1,29
 35 153 35 153 33 270 c 1,0,1
269.5 474 m 128,-1,31
 214 474 214 474 170 428 c 128,-1,32
 126 382 126 382 126 278 c 0,33,34
 126 218 126 218 140 175 c 128,-1,35
 154 132 154 132 177.5 111.5 c 128,-1,36
 201 91 201 91 223.5 83 c 128,-1,37
 246 75 246 75 271 75 c 0,38,39
 329 75 329 75 373 121.5 c 128,-1,40
 417 168 417 168 417 274 c 0,41,42
 417 379 417 379 371 426.5 c 128,-1,30
 325 474 325 474 269.5 474 c 128,-1,31
EndSplineSet
EndChar

StartChar: uni0582
Encoding: 1410 1410 401
Width: 360
GlyphClass: 2
Flags: HW
LayerCount: 2
Fore
SplineSet
165 537 m 1,0,-1
 165 63 l 1,1,-1
 294 63 l 1,2,-1
 294 0 l 1,3,-1
 78 0 l 1,4,-1
 78 537 l 1,5,-1
 165 537 l 1,0,-1
EndSplineSet
EndChar

StartChar: uni0583
Encoding: 1411 1411 402
Width: 873
GlyphClass: 2
Flags: HW
LayerCount: 2
Fore
SplineSet
244 65 m 0,0,1
 323 65 323 65 353 113 c 128,-1,2
 383 161 383 161 385 246 c 1,3,-1
 385 740 l 1,4,-1
 471 740 l 1,5,-1
 471 458 l 1,6,7
 532 548 532 548 640 548 c 0,8,9
 684 548 684 548 725 530 c 128,-1,10
 766 512 766 512 788 485 c 1,11,12
 821 438 821 438 821 334 c 2,13,-1
 821 -1 l 1,14,-1
 731 -1 l 1,15,-1
 731 300 l 2,16,17
 731 378 731 378 726 394 c 1,18,19
 718 429 718 429 690.5 450 c 128,-1,20
 663 471 663 471 622 471 c 0,21,22
 482 471 482 471 481 290 c 2,23,-1
 481 -211 l 1,24,-1
 394 -211 l 1,25,-1
 394 77 l 1,26,27
 332 -13 332 -13 226 -13 c 0,28,29
 183 -13 183 -13 141.5 5 c 128,-1,30
 100 23 100 23 79 49 c 0,31,32
 44 94 44 94 44 201 c 2,33,-1
 44 537 l 1,34,-1
 134 537 l 1,35,-1
 134 236 l 2,36,37
 134 160 134 160 140 140 c 1,38,39
 148 105 148 105 175.5 85 c 128,-1,40
 203 65 203 65 244 65 c 0,0,1
EndSplineSet
EndChar

StartChar: uni0584
Encoding: 1412 1412 403
Width: 602
GlyphClass: 2
Flags: HW
LayerCount: 2
Fore
SplineSet
581 285 m 0,0,1
 581 180 581 180 521 115.5 c 128,-1,2
 461 51 461 51 349 46 c 1,3,4
 266 46 266 46 216 113 c 1,5,-1
 216 -68 l 1,6,-1
 532 -68 l 1,7,-1
 532 -127 l 1,8,-1
 216 -127 l 1,9,-1
 216 -214 l 1,10,-1
 128 -214 l 1,11,-1
 128 -127 l 1,12,-1
 26 -127 l 1,13,-1
 26 -68 l 1,14,-1
 128 -68 l 1,15,-1
 128 537 l 1,16,-1
 211 537 l 1,17,-1
 211 470 l 1,18,19
 221 497 221 497 256.5 523.5 c 128,-1,20
 292 550 292 550 352 550 c 0,21,22
 390 550 390 550 427 537 c 128,-1,23
 464 524 464 524 500.5 496 c 128,-1,24
 537 468 537 468 559 413.5 c 128,-1,25
 581 359 581 359 581 285 c 0,0,1
347 479 m 0,26,27
 294 479 294 479 255 435.5 c 128,-1,28
 216 392 216 392 216 295 c 0,29,30
 216 221 216 221 251.5 169 c 128,-1,31
 287 117 287 117 346 114 c 0,32,33
 360 114 360 114 366 115 c 1,34,35
 429 115 429 115 459.5 167 c 128,-1,36
 490 219 490 219 490 295 c 0,37,38
 490 383 490 383 457.5 431 c 128,-1,39
 425 479 425 479 347 479 c 0,26,27
EndSplineSet
EndChar

StartChar: uni0585
Encoding: 1413 1413 404
Width: 592
GlyphClass: 2
Flags: HW
LayerCount: 2
Fore
SplineSet
300 -12 m 1,0,1
 256 -12 256 -12 216 0.5 c 128,-1,2
 176 13 176 13 137 42.5 c 128,-1,3
 98 72 98 72 74.5 129 c 128,-1,4
 51 186 51 186 51 265 c 0,5,6
 51 328 51 328 67.5 378.5 c 128,-1,7
 84 429 84 429 109 459 c 128,-1,8
 134 489 134 489 168.5 508.5 c 128,-1,9
 203 528 203 528 234.5 535.5 c 128,-1,10
 266 543 266 543 300 543 c 0,11,12
 412 543 412 543 480.5 469 c 128,-1,13
 549 395 549 395 549 273 c 0,14,15
 549 203 549 203 531.5 150 c 128,-1,16
 514 97 514 97 489 67.5 c 128,-1,17
 464 38 464 38 428.5 19.5 c 128,-1,18
 393 1 393 1 363 -5 c 128,-1,19
 333 -11 333 -11 300 -12 c 1,0,1
300 469 m 0,20,21
 272 469 272 469 247 460 c 128,-1,22
 222 451 222 451 198 430 c 128,-1,23
 174 409 174 409 159 366.5 c 128,-1,24
 144 324 144 324 143 265 c 1,25,26
 143 155 143 155 190.5 108.5 c 128,-1,27
 238 62 238 62 300 62 c 0,28,29
 329 62 329 62 354 72 c 128,-1,30
 379 82 379 82 403 103.5 c 128,-1,31
 427 125 427 125 441.5 167.5 c 128,-1,32
 456 210 456 210 456 268 c 0,33,34
 456 325 456 325 440.5 367 c 128,-1,35
 425 409 425 409 400 429.5 c 128,-1,36
 375 450 375 450 350.5 459.5 c 128,-1,37
 326 469 326 469 300 469 c 0,20,21
EndSplineSet
EndChar

